<svg xmlns="http://www.w3.org/2000/svg" fill="none" viewBox="0 0 24 24" id="Settings-User--Streamline-Ultimate" height="24" width="24"><desc>Settings User Streamline Icon: https://streamlinehq.com</desc><path fill="#e3e3e3" d="M13 8.5c0.5304 0 1.0391 -0.21071 1.4142 -0.58579C14.7893 7.53914 15 7.03043 15 6.5s-0.2107 -1.03914 -0.5858 -1.41421C14.0391 4.71071 13.5304 4.5 13 4.5v-4c0.3353 0.002008 0.6698 0.032114 1 0.09v1.53c0.4919 0.11283 0.9609 0.30863 1.387 0.579l1.086 -1.086c0.547 0.38902 1.025 0.86697 1.414 1.414L16.8 4.113c0.2707 0.42603 0.4669 0.89508 0.58 1.387h1.53c0.0579 0.33023 0.088 0.66474 0.09 1 -0.002 0.33526 -0.0321 0.66977 -0.09 1h-1.53c-0.1131 0.49192 -0.3093 0.96097 -0.58 1.387l1.086 1.086c-0.389 0.547 -0.867 1.025 -1.414 1.414L15.387 10.3c-0.426 0.2707 -0.8951 0.4669 -1.387 0.58v1.53c-0.3302 0.0579 -0.6647 0.088 -1 0.09v-4Z" stroke-width="1"></path><path fill="#ffdda1" d="M11 12.5c-1.5913 0 -3.11742 -0.6321 -4.24264 -1.7574C5.63214 9.61742 5 8.0913 5 6.5c0 -1.5913 0.63214 -3.11742 1.75736 -4.24264C7.88258 1.13214 9.4087 0.5 11 0.5v12Z" stroke-width="1"></path><path fill="#ffdda1" d="M5 6.5c-0.00022 0.50595 0.06328 1.00992 0.189 1.5 0.33261 -1.28819 1.08394 -2.42929 2.13584 -3.24388C8.37675 3.94153 9.66956 3.49966 11 3.5v-3c-1.5913 0 -3.11742 0.63214 -4.24264 1.75736C5.63214 3.38258 5 4.9087 5 6.5Z" stroke-width="1"></path><path stroke="#191919" stroke-linecap="round" stroke-linejoin="round" d="M11 12.5c-1.5913 0 -3.11742 -0.6321 -4.24264 -1.7574C5.63214 9.61742 5 8.0913 5 6.5c0 -1.5913 0.63214 -3.11742 1.75736 -4.24264C7.88258 1.13214 9.4087 0.5 11 0.5v12Z" stroke-width="1"></path><path fill="#66e1ff" d="M1.5 23.5c0 -2.5196 1.00089 -4.9359 2.78249 -6.7175C6.06408 15.0009 8.48044 14 11 14v9.5H1.5Z" stroke-width="1"></path><path fill="#c2f3ff" d="M1.5 23.5h0.484c0.63 -1.8929 1.83993 -3.5395 3.45821 -4.7061C7.0605 17.6272 9.005 16.9996 11 17v-3c-2.51956 0 -4.93592 1.0009 -6.71751 2.7825C2.50089 18.5641 1.5 20.9804 1.5 23.5Z" stroke-width="1"></path><path stroke="#191919" stroke-linecap="round" stroke-linejoin="round" d="M1.5 23.5c0 -2.5196 1.00089 -4.9359 2.78249 -6.7175C6.06408 15.0009 8.48044 14 11 14v9.5H1.5Z" stroke-width="1"></path><path stroke="#191919" stroke-linecap="round" stroke-linejoin="round" d="M13 12.5c0.3353 -0.002 0.6698 -0.0321 1 -0.09v-1.53c0.4919 -0.1128 0.9609 -0.3086 1.387 -0.579l1.086 1.086c0.547 -0.389 1.025 -0.867 1.414 -1.414L16.8 8.887c0.2707 -0.42603 0.4669 -0.89508 0.58 -1.387h1.53c0.0579 -0.33023 0.088 -0.66474 0.09 -1 -0.002 -0.33526 -0.0321 -0.66977 -0.09 -1h-1.53c-0.1131 -0.49192 -0.3093 -0.96097 -0.58 -1.387l1.086 -1.086c-0.389 -0.54703 -0.867 -1.02498 -1.414 -1.414L15.387 2.7c-0.426 -0.27072 -0.8951 -0.46686 -1.387 -0.58V0.59c-0.3302 -0.057886 -0.6647 -0.087992 -1 -0.09" stroke-width="1"></path><path stroke="#191919" stroke-linecap="round" stroke-linejoin="round" d="M13 4.5c0.5304 0 1.0391 0.21071 1.4142 0.58579C14.7893 5.46086 15 5.96957 15 6.5s-0.2107 1.03914 -0.5858 1.41421C14.0391 8.28929 13.5304 8.5 13 8.5" stroke-width="1"></path><path fill="#e3e3e3" d="M17 23.5c0 -1.0609 -0.4214 -2.0783 -1.1716 -2.8284C15.0783 19.9214 14.0609 19.5 13 19.5V14c0.6724 0.001 1.3428 0.0731 2 0.215v2.063c0.707 0.1957 1.381 0.4953 2 0.889l1.442 -1.443c1.1041 0.7762 2.0309 1.778 2.719 2.939l-1.461 1.47c0.2987 0.5906 0.517 1.2185 0.649 1.867h2.021c0.0829 0.4958 0.1264 0.9973 0.13 1.5H17Z" stroke-width="1"></path><path stroke="#191919" stroke-linecap="round" stroke-linejoin="round" d="M22.5 23.5c-0.0036 -0.5027 -0.0471 -1.0042 -0.13 -1.5h-2.021c-0.1336 -0.6488 -0.3536 -1.2767 -0.654 -1.867l1.471 -1.47c-0.6881 -1.161 -1.6149 -2.1628 -2.719 -2.939l-1.442 1.443c-0.619 -0.3937 -1.293 -0.6933 -2 -0.889v-2.063c-0.6589 -0.1423 -1.3309 -0.2143 -2.005 -0.215" stroke-width="1"></path><path stroke="#191919" stroke-linecap="round" stroke-linejoin="round" d="M13 19.5c1.0609 0 2.0783 0.4214 2.8284 1.1716C16.5786 21.4217 17 22.4391 17 23.5" stroke-width="1"></path></svg>
