<?xml version="1.0" standalone="no"?>
<!DOCTYPE svg PUBLIC "-//W3C//DTD SVG 20010904//EN"
 "http://www.w3.org/TR/2001/REC-SVG-20010904/DTD/svg10.dtd">
<svg version="1.0" xmlns="http://www.w3.org/2000/svg"
 width="512.000000pt" height="512.000000pt" viewBox="0 0 512.000000 512.000000"
 preserveAspectRatio="xMidYMid meet">

<g transform="translate(0.000000,512.000000) scale(0.100000,-0.100000)"
fill="#000000" stroke="none">
<path d="M2377 5105 c-100 -19 -209 -56 -295 -99 -60 -31 -340 -217 -1357
-905 -199 -134 -347 -242 -392 -285 -125 -118 -216 -258 -271 -416 -59 -171
-57 -125 -57 -1360 l0 -1135 27 -100 c106 -384 389 -666 775 -773 l98 -27
1655 0 1655 0 100 27 c383 105 667 390 773 773 l27 100 0 1135 c0 1235 2 1189
-57 1360 -57 163 -152 307 -284 429 -106 96 -1596 1104 -1744 1178 -146 74
-267 104 -440 109 -92 2 -160 -1 -213 -11z m694 -2129 c37 -8 86 -24 110 -36
54 -28 142 -111 173 -164 55 -94 56 -108 56 -648 0 -473 -1 -501 -20 -555 -42
-121 -134 -218 -252 -266 -52 -21 -66 -22 -547 -25 -328 -2 -512 1 -545 8
-127 27 -238 115 -297 235 l-34 70 -3 514 c-3 558 -2 571 54 667 32 54 119
136 174 164 87 44 138 48 615 49 351 1 465 -2 516 -13z"/>
<path d="M2130 2135 l0 -425 430 0 430 0 0 425 0 425 -430 0 -430 0 0 -425z"/>
</g>
</svg>
