<?xml version="1.0" standalone="no"?>
<!DOCTYPE svg PUBLIC "-//W3C//DTD SVG 20010904//EN"
 "http://www.w3.org/TR/2001/REC-SVG-20010904/DTD/svg10.dtd">
<svg version="1.0" xmlns="http://www.w3.org/2000/svg"
 width="512.000000pt" height="512.000000pt" viewBox="0 0 512.000000 512.000000"
 preserveAspectRatio="xMidYMid meet">

<g transform="translate(0.000000,512.000000) scale(0.100000,-0.100000)"
fill="#000000" stroke="none">
<path d="M887 5104 c-416 -75 -741 -375 -855 -789 l-27 -100 0 -1655 0 -1655
27 -100 c106 -384 389 -666 775 -773 l98 -27 1655 0 1655 0 100 27 c383 105
667 390 773 773 l27 100 0 1655 0 1655 -27 100 c-116 420 -440 716 -866 790
-124 22 -3216 21 -3335 -1z m1766 -1500 c42 -21 75 -52 95 -89 15 -26 18 -80
22 -385 l5 -355 355 -5 c383 -5 386 -6 436 -62 90 -99 75 -246 -34 -323 l-44
-30 -356 -5 -357 -5 -5 -357 -5 -356 -30 -44 c-77 -108 -225 -124 -323 -34
-56 50 -57 53 -62 436 l-5 355 -355 5 c-305 4 -359 7 -385 22 -145 80 -145
296 0 376 26 15 80 18 385 22 l355 5 5 355 c4 305 7 359 22 385 54 99 182 139
281 89z"/>
</g>
</svg>
