<svg xmlns="http://www.w3.org/2000/svg" width="239" height="211" viewBox="0 0 239 211" version="1.1"><path d="M 111.040 17.452 C 108.958 19.961, 110.195 22.500, 113.500 22.500 C 115.566 22.500, 116.578 21.952, 116.819 20.702 C 117.216 18.640, 115.352 16, 113.500 16 C 112.810 16, 111.703 16.653, 111.040 17.452 M 85.208 35.288 C 82.894 37.646, 81 39.992, 81 40.500 C 81 42.342, 89.469 50, 91.505 50 C 94.145 50, 101 43.077, 101 40.411 C 101 37.839, 94.035 31, 91.416 31 C 90.316 31, 87.523 32.930, 85.208 35.288 M 114.254 46.661 C 113.568 46.938, 108.066 53.619, 102.028 61.508 C 95.989 69.397, 90.603 76.127, 90.059 76.464 C 89.515 76.800, 86.242 75.292, 82.785 73.113 C 74.867 68.123, 72.223 67.462, 67.708 69.348 C 60.907 72.190, 60.823 72.752, 61.209 112.831 C 61.553 148.445, 61.557 148.510, 64.149 155.242 C 71.768 175.026, 86.607 188.439, 106.460 193.485 C 137.579 201.395, 170.857 180.124, 177.620 148 C 180.564 134.014, 177.999 117.870, 170.927 105.876 C 167.128 99.433, 129.534 50.112, 126.638 47.772 C 124.594 46.121, 117.229 45.460, 114.254 46.661" stroke="none" fill="#FFDF00" fill-rule="evenodd"/></svg>