<?xml version="1.0" standalone="no"?>
<!DOCTYPE svg PUBLIC "-//W3C//DTD SVG 20010904//EN"
 "http://www.w3.org/TR/2001/REC-SVG-20010904/DTD/svg10.dtd">
<svg version="1.0" xmlns="http://www.w3.org/2000/svg"
 width="512.000000pt" height="512.000000pt" viewBox="0 0 512.000000 512.000000"
 preserveAspectRatio="xMidYMid meet">

<g transform="translate(0.000000,512.000000) scale(0.100000,-0.100000)"
fill="#000000" stroke="none">
<path d="M1899 4791 c-350 -154 -663 -296 -695 -316 -165 -106 -287 -286 -328
-488 -24 -114 -21 -180 8 -213 20 -24 32 -28 90 -32 l66 -4 0 -774 0 -774 633
2 632 3 3 413 2 412 250 0 250 0 2 -412 3 -413 95 0 95 0 3 228 2 227 170 0
170 0 0 -230 0 -230 100 0 100 0 0 230 0 230 165 0 165 0 0 -230 0 -230 100 0
100 0 0 774 0 774 66 4 c58 4 70 8 90 32 29 33 32 99 8 213 -42 206 -171 393
-339 495 -81 49 -1317 588 -1346 587 -13 0 -310 -125 -660 -278z m1249 -186
c321 -140 607 -267 635 -282 83 -45 168 -137 216 -234 23 -46 44 -99 47 -116
l7 -33 -1493 0 -1492 0 7 33 c3 17 24 69 46 114 46 95 126 183 210 230 30 17
265 123 524 236 259 113 520 228 580 255 61 28 115 50 120 51 6 1 273 -114
593 -254z m732 -1310 l0 -445 -435 0 -435 0 0 139 c0 77 -4 151 -10 165 -5 14
-24 35 -42 46 -31 19 -51 20 -396 20 -387 0 -401 -2 -435 -50 -14 -20 -15 -19
-21 17 -11 63 -19 414 -12 486 l8 67 889 0 889 0 0 -445z"/>
<path d="M1300 1800 c0 -191 -1 -200 -21 -210 -47 -26 -119 -40 -202 -40 -77
0 -100 5 -185 37 -134 50 -193 63 -299 63 -111 0 -170 -12 -288 -58 -60 -23
-116 -37 -169 -42 -72 -7 -82 -10 -108 -39 l-28 -31 0 -676 c0 -733 -1 -717
55 -742 20 -9 604 -12 2506 -12 2712 0 2522 -4 2548 57 8 21 11 208 9 705 l-3
678 -27 26 c-22 23 -38 28 -110 34 -57 5 -112 19 -175 43 -126 49 -193 60
-320 55 -85 -4 -124 -11 -183 -32 -171 -64 -182 -66 -270 -66 -61 0 -104 6
-148 21 l-62 21 0 204 0 204 -100 0 -100 0 0 -175 0 -175 -89 0 c-49 0 -103
-3 -120 -6 l-31 -6 0 181 0 181 -100 0 -100 0 0 -219 0 -218 -31 -7 c-17 -3
-66 -6 -109 -6 -77 0 -92 4 -260 66 -59 21 -98 28 -183 32 -128 6 -189 -5
-330 -58 -96 -36 -114 -40 -201 -40 -52 0 -101 3 -110 6 -14 5 -16 35 -16 225
l0 219 -100 0 -100 0 0 -181 0 -181 -35 6 c-19 4 -73 7 -120 7 l-85 1 0 174 0
174 -100 0 -100 0 0 -200z m-499 -393 c112 -46 197 -61 323 -55 76 4 120 13
176 33 194 71 178 67 290 63 91 -4 117 -10 195 -41 123 -48 195 -61 318 -54
101 5 127 11 296 72 68 25 85 27 180 23 92 -4 118 -10 196 -41 122 -48 195
-61 313 -54 95 5 126 12 291 72 68 25 85 27 180 23 92 -4 118 -10 196 -41 122
-48 195 -61 313 -54 95 5 126 12 291 72 68 25 85 27 180 23 90 -4 118 -9 185
-37 44 -18 105 -38 135 -45 l56 -13 3 -551 2 -552 -2360 0 -2360 0 0 555 0
555 23 0 c22 0 97 24 222 72 41 15 71 18 160 15 100 -3 118 -6 196 -40z"/>
</g>
</svg>
