<svg xmlns="http://www.w3.org/2000/svg" fill="none" viewBox="0 0 24 24" id="Search-1--Streamline-Ultimate" height="24" width="24"><desc>Search 1 Streamline Icon: https://streamlinehq.com</desc><path fill="#66e1ff" d="M10.5 20.5c5.5228 0 10 -4.4772 10 -10 0 -5.52285 -4.4772 -10 -10 -10 -5.52285 0 -10 4.47715 -10 10 0 5.5228 4.47715 10 10 10Z" stroke-width="1"></path><path fill="#c2f3ff" d="M3.42898 17.571C1.56719 15.6928 0.525178 13.1536 0.530969 10.509 0.53676 7.86448 1.58988 5.32988 3.45988 3.45988c1.87 -1.87 4.4046 -2.92312 7.04912 -2.928911 2.6446 -0.005791 5.1838 1.036221 7.062 2.898011L3.42898 17.571Z" stroke-width="1"></path><path stroke="#191919" stroke-linecap="round" stroke-linejoin="round" d="M10.5 20.5c5.5228 0 10 -4.4772 10 -10 0 -5.52285 -4.4772 -10 -10 -10 -5.52285 0 -10 4.47715 -10 10 0 5.5228 4.47715 10 10 10Z" stroke-width="1"></path><path stroke="#191919" stroke-linecap="round" stroke-linejoin="round" d="m23.5 23.5 -5.929 -5.929" stroke-width="1"></path></svg>