<svg xmlns="http://www.w3.org/2000/svg" width="368" height="368" viewBox="0 0 368 368" version="1.1"><path d="M 83.200 49.200 C 82.311 50.089, 82 59.800, 82 86.700 C 82 108.112, 81.623 123, 81.081 123 C 80.575 123, 77.620 125.323, 74.513 128.162 C 69.011 133.191, 64.671 140.192, 62.060 148.250 C 61.392 150.313, 60.577 152, 60.250 152 C 59.923 152, 57.145 149.837, 54.078 147.194 C 34.657 130.458, 35.486 130.999, 29.237 131.015 C 22.450 131.033, 19.763 132.187, 22.630 133.853 C 24.251 134.794, 24.034 134.963, 21 135.119 C 17.852 135.282, 17.783 135.342, 20.310 135.722 C 21.856 135.954, 23.812 135.571, 24.657 134.869 C 26.027 133.732, 26.003 133.527, 24.437 132.978 C 23.471 132.639, 25.281 132.293, 28.460 132.210 C 37.653 131.968, 40.316 134.476, 35.585 138.920 L 33.170 141.189 31.631 138.840 C 30.225 136.694, 29.438 136.503, 22.501 136.624 C 18.327 136.696, 14.593 137.078, 14.205 137.471 C 13.817 137.865, 16.875 138.049, 21 137.880 C 29.251 137.541, 31.425 138.267, 30.681 141.112 C 30.410 142.149, 30.626 143.269, 31.162 143.600 C 31.698 143.931, 31.876 144.881, 31.558 145.710 C 30.955 147.281, 36.333 155.490, 45.511 167.009 C 50.873 173.740, 56.660 178.365, 61 179.391 C 62.375 179.716, 62.938 179.723, 62.250 179.407 C 61.563 179.092, 61 178.180, 61 177.381 C 61 176.582, 58.975 175.061, 56.500 174 C 51.761 171.969, 50.468 169.858, 54.209 170.262 C 55.612 170.413, 56.548 169.878, 56.773 168.797 C 57.031 167.562, 55.394 166.221, 50.814 163.918 C 42.851 159.912, 37.703 155.873, 35.011 151.518 L 32.906 148.113 36.703 144.620 C 39.075 142.438, 40.856 141.479, 41.450 142.064 C 42.804 143.398, 43.803 143.222, 44.177 141.584 C 44.383 140.679, 48.412 143.570, 55.327 149.584 C 61.281 154.763, 66.794 159, 67.577 159 C 69.456 159, 69.403 155.580, 67.500 154 C 66.675 153.315, 65.993 151.573, 65.985 150.128 C 65.976 148.682, 65.561 146.854, 65.061 146.065 C 63.048 142.883, 72.317 129.439, 79.649 124.908 C 83.477 122.542, 83.510 122.549, 84.861 126.037 C 85.718 128.248, 85.800 128.115, 85.658 124.744 C 85.551 122.198, 85.097 121.141, 84.250 121.463 C 83.279 121.831, 83 117.930, 83 103.969 L 83 86 88.500 86 C 92.210 86, 94.014 86.407, 94.044 87.250 C 94.069 87.938, 94.922 86.925, 95.940 84.999 C 98.722 79.740, 101.446 77.644, 104.503 78.411 C 105.924 78.768, 107.489 80.059, 107.980 81.280 C 108.635 82.908, 108.890 83.049, 108.937 81.809 C 108.971 80.879, 108.475 79.794, 107.834 79.397 C 107.053 78.915, 107.622 77.916, 109.555 76.374 L 112.443 74.072 109.534 71.036 C 107.935 69.366, 106.148 68.018, 105.563 68.041 C 104.978 68.063, 105.968 69.338, 107.763 70.874 C 110.904 73.563, 110.957 73.729, 109.184 75.333 C 108.171 76.250, 105.951 77, 104.249 77 C 101.878 77, 100.357 77.933, 97.732 81 C 94.487 84.791, 94.013 85, 88.654 85 L 83 85 83 73.500 L 83 62 204.500 62 L 326 62 326 73.500 L 326 85 219.941 85 C 149.490 85, 114.089 85.336, 114.500 86 C 114.840 86.550, 114.228 87, 113.141 87 C 112.053 87, 110.378 87.301, 109.418 87.670 C 108.227 88.127, 107.902 87.968, 108.395 87.170 C 108.793 86.526, 110.104 85.968, 111.309 85.930 C 113.410 85.862, 113.418 85.827, 111.500 85.066 C 110.353 84.611, 109.228 84.696, 108.862 85.265 C 107.889 86.777, 106.015 85.157, 105.884 82.691 C 105.777 80.664, 105.732 80.649, 105.284 82.500 C 105.018 83.600, 103.872 85.507, 102.738 86.738 C 101.147 88.463, 100.363 88.717, 99.315 87.846 C 98.248 86.961, 98.084 87.055, 98.554 88.280 C 98.884 89.140, 98.620 90.891, 97.967 92.172 C 97.198 93.681, 97.815 93.294, 99.721 91.072 C 103.847 86.260, 104.485 88.579, 100.466 93.782 C 97.811 97.220, 97.068 97.713, 96.696 96.282 C 96.441 95.302, 96.180 95.989, 96.116 97.809 C 96.052 99.629, 95.615 100.880, 95.144 100.589 C 94.674 100.298, 94.513 101.231, 94.786 102.661 C 95.059 104.091, 96.132 105.483, 97.170 105.755 C 99.090 106.257, 99.063 106.946, 96.888 112.758 C 96.423 114, 93.896 116.420, 91.272 118.135 C 88.647 119.851, 87.221 121.012, 88.102 120.715 C 89.299 120.313, 90.285 121.575, 91.992 125.694 C 93.250 128.730, 95.792 133.194, 97.640 135.615 C 99.488 138.036, 101 140.196, 101 140.415 C 101 140.634, 99.987 140.636, 98.750 140.420 C 97.513 140.205, 97.912 140.522, 99.637 141.126 C 103.037 142.317, 103.896 144.819, 104.057 154 C 104.128 158.062, 104.244 158.274, 105.255 156.174 C 106.087 154.443, 106.070 152.711, 105.187 149.409 C 103.582 143.410, 103.689 142.003, 105.750 141.985 C 107.047 141.973, 107.165 141.757, 106.207 141.149 C 105.223 140.525, 105.768 139.060, 108.487 135.019 C 110.452 132.099, 112.834 127.060, 113.780 123.822 C 115.201 118.957, 115.847 117.984, 117.500 118.217 C 119.224 118.461, 119.542 119.381, 119.801 124.876 C 120.102 131.247, 120.100 131.252, 117.527 130.760 C 116.111 130.490, 114.753 130.590, 114.510 130.984 C 114.266 131.378, 115.515 131.655, 117.284 131.600 L 120.500 131.500 120.798 125.250 C 121.095 119.008, 121.443 118.465, 124.418 119.607 C 125.615 120.066, 126 121.660, 126 126.149 C 126 138.132, 120.654 157.608, 113.139 173 L 108.500 182.500 107.714 175.500 C 106.271 162.662, 105.741 159.489, 105.262 160.820 C 105 161.547, 105.313 167.245, 105.956 173.484 C 107.374 187.234, 106.652 189.432, 101 188.577 C 99.075 188.286, 98.253 188.374, 99.173 188.774 C 100.636 189.409, 100.372 190.286, 97.066 195.773 C 94.988 199.223, 93.084 202.250, 92.835 202.499 C 92.311 203.022, 67.947 200.280, 67.290 199.624 C 66.574 198.907, 70.033 192.709, 72.801 189.750 C 75.130 187.261, 76.093 186.983, 82.937 186.820 C 88.194 186.694, 89.086 186.527, 85.865 186.270 C 81.579 185.928, 81.183 185.664, 80.602 182.762 C 80.257 181.037, 80.382 179.218, 80.880 178.720 C 81.378 178.222, 81.554 176.091, 81.271 173.983 C 80.884 171.099, 81.282 169.413, 82.878 167.171 C 84.045 165.532, 85 163.473, 85 162.596 C 85 159.641, 82.266 160.968, 78.501 165.750 C 76.445 168.363, 72.903 172.186, 70.631 174.247 C 68.359 176.308, 66.848 177.996, 67.272 177.997 C 67.697 177.999, 70.131 176.088, 72.680 173.750 L 77.315 169.500 76.683 174.500 C 76.336 177.250, 75.822 180.625, 75.543 182 C 75.263 183.375, 75.639 182.700, 76.379 180.500 L 77.724 176.500 78.857 180.500 C 80.415 186.004, 80.363 186.175, 77.250 185.816 C 74.372 185.485, 71.286 188.678, 67.605 195.796 C 65.472 199.923, 65.580 201, 68.131 201 C 70.044 201, 70.194 201.384, 69.603 204.750 C 69.241 206.813, 68.735 210.750, 68.478 213.500 C 68.136 217.163, 68.389 216.539, 69.425 211.164 C 70.202 207.130, 71.007 203.660, 71.212 203.454 C 71.418 203.249, 75.617 203.504, 80.543 204.022 C 95.168 205.561, 94.169 205.886, 97.365 198.550 C 99.975 192.559, 102.464 189.131, 103.473 190.140 C 104.222 190.888, 100.173 207.764, 98.441 211.113 L 96.770 214.346 95.013 212.017 C 92.605 208.825, 90.604 209.874, 87.532 215.936 C 84.790 221.347, 83.225 222.184, 76.500 221.829 C 74.300 221.713, 71.752 221.962, 70.837 222.382 C 69.669 222.919, 69.017 222.605, 68.645 221.323 C 68.194 219.774, 68.144 219.800, 68.307 221.500 C 68.420 222.671, 69.839 224.122, 71.729 225 C 74.855 226.452, 74.943 226.660, 74.474 231.500 C 73.944 236.973, 74.483 236.618, 75.443 230.861 L 76.049 227.223 82.936 227.361 C 89.005 227.484, 90.143 227.203, 92.509 225 C 96.288 221.482, 98.656 216.428, 101.493 205.827 C 103.227 199.350, 104.791 195.741, 106.805 193.573 C 118.723 180.740, 128.406 156.633, 131.212 132.809 C 132.518 121.727, 132.501 121.733, 140.638 129.234 C 146.644 134.770, 149.562 139.617, 148.013 141.484 C 147.361 142.270, 147.110 143.369, 147.455 143.927 C 147.800 144.485, 147.350 146.356, 146.456 148.086 C 145.327 150.268, 145.149 151.549, 145.873 152.273 C 147.396 153.796, 149.010 152.162, 159.667 138.308 L 169.079 126.073 173.519 129.463 C 175.962 131.327, 178.864 133.139, 179.968 133.490 L 181.976 134.127 179.965 138.069 C 178.645 140.656, 175.987 143.280, 172.227 145.705 C 164.848 150.467, 162 152.997, 162 154.791 C 162 156.258, 164.246 156.146, 168.500 154.468 C 170.354 153.737, 170.335 153.861, 168.250 156.154 C 165.746 158.909, 165.392 160.631, 167.205 161.235 C 167.924 161.475, 166.774 163.392, 164.359 165.981 C 161.204 169.364, 159.333 170.482, 155.903 171.037 L 151.500 171.750 155.272 171.875 C 161.618 172.085, 166.423 166.619, 175.509 148.854 C 182.337 135.504, 183.091 133.495, 182.097 131.314 C 181.480 129.959, 181.213 128.465, 181.504 127.994 C 181.795 127.523, 181.574 126.855, 181.014 126.508 C 180.328 126.084, 180.349 125.217, 181.078 123.854 C 181.674 122.740, 181.961 121.628, 181.716 121.382 C 181.470 121.137, 180.706 122.295, 180.018 123.956 C 178.773 126.961, 178.754 126.968, 175.915 125.291 C 171.936 122.940, 171.663 121.410, 174.785 118.955 C 176.788 117.379, 178.379 116.968, 180.989 117.351 C 186.703 118.190, 192.652 119.761, 190.583 119.885 C 189.529 119.948, 188.937 120.270, 189.266 120.600 C 189.596 120.929, 191.501 120.660, 193.500 120 C 197.923 118.540, 197.291 117.533, 192.142 117.837 C 190.051 117.960, 187.250 117.587, 185.920 117.008 C 183.550 115.976, 183.557 115.965, 186.250 116.496 C 187.952 116.832, 189 116.606, 189 115.904 C 189 114.604, 179.108 115.527, 175.597 117.154 C 174.444 117.689, 172.050 120.235, 170.278 122.813 C 168.506 125.391, 163.943 131.451, 160.140 136.279 L 153.224 145.059 150.234 139.779 C 147.414 134.798, 137.628 124, 135.934 124 C 135.505 124, 133.881 122.953, 132.327 121.673 C 130.463 120.139, 126.946 118.907, 122 118.054 C 117.875 117.343, 113.713 116.350, 112.750 115.846 C 110.404 114.617, 110.471 110.303, 112.848 109.548 C 114.811 108.925, 117 105.045, 117 102.188 C 117 101.243, 116.116 98.822, 115.036 96.806 C 113.681 94.277, 113.433 93.022, 114.237 92.754 C 114.878 92.541, 115.424 91.046, 115.451 89.433 L 115.500 86.500 220.500 86.500 L 325.500 86.500 325.756 161.890 C 325.943 216.753, 325.705 237.650, 324.884 238.640 C 323.947 239.769, 307.735 240, 229.378 240 C 177.470 240, 135 239.633, 135 239.184 C 135 238.735, 135.433 235.922, 135.962 232.934 C 137.895 222.014, 138.984 204.043, 138.344 193.595 C 137.984 187.705, 137.412 183.333, 137.074 183.880 C 136.317 185.106, 132.091 186.842, 125.500 188.636 L 120.500 189.998 124.818 189.476 C 127.193 189.189, 129.659 188.852, 130.297 188.727 C 132.135 188.367, 133.397 206.086, 132.169 215 C 131.419 220.443, 130.020 224.648, 127.068 230.331 C 122.700 238.741, 122.017 242, 124.625 242 C 125.943 242, 126.111 242.614, 125.513 245.250 C 124.199 251.041, 124.363 252.511, 126.307 252.352 C 127.747 252.233, 128.009 252.741, 127.596 254.852 C 127.311 256.308, 126.083 262.631, 124.868 268.903 C 123.092 278.068, 121.985 281.307, 119.227 285.403 C 114.520 292.395, 112.809 295.881, 113.520 297.032 C 113.908 297.660, 114.786 297.650, 115.995 297.003 C 119.725 295.006, 120.007 296.615, 116.966 302.539 C 115.752 304.904, 115.164 307.441, 115.507 308.835 C 115.822 310.119, 115.796 312.068, 115.447 313.166 C 114.892 314.916, 114.178 315.099, 109.657 314.649 L 104.500 314.136 109.750 315.209 C 112.638 315.799, 115 316.606, 115 317.002 C 115 317.398, 116.099 317.513, 117.441 317.256 C 120.291 316.711, 119.428 320.037, 128.010 276.500 C 131.371 259.450, 134.328 244.488, 134.580 243.250 L 135.038 241 229.819 241 C 302.204 241, 324.884 240.716, 325.800 239.800 C 326.716 238.884, 327 216.438, 327 144.871 C 327 60.997, 326.835 50.978, 325.429 49.571 C 324.017 48.160, 311.639 48, 204.129 48 C 112.340 48, 84.120 48.280, 83.200 49.200 M 84.200 50.200 C 83.540 50.860, 83 53.562, 83 56.204 L 83 61.008 204.250 60.754 L 325.500 60.500 325.414 55.660 C 325.360 52.658, 324.791 50.481, 323.914 49.926 C 321.605 48.464, 85.666 48.734, 84.200 50.200 M 307.667 52.667 C 307.300 53.033, 307 54.383, 307 55.667 C 307 57.593, 307.524 58, 310 58 C 312.667 58, 313 57.667, 313 55 C 313 52.524, 312.593 52, 310.667 52 C 309.383 52, 308.033 52.300, 307.667 52.667 M 317.333 55 C 317.333 57.254, 317.633 57.720, 318.578 56.936 C 319.435 56.224, 320.024 56.229, 320.470 56.951 C 320.826 57.528, 321.597 58, 322.181 58 C 322.852 58, 322.785 57.446, 322 56.500 C 321.007 55.303, 321.007 54.697, 322 53.500 C 322.785 52.554, 322.852 52, 322.181 52 C 321.597 52, 320.826 52.472, 320.470 53.049 C 320.024 53.771, 319.435 53.776, 318.578 53.064 C 317.633 52.280, 317.333 52.746, 317.333 55 M 308 55 C 308 56.333, 308.667 57, 310 57 C 311.333 57, 312 56.333, 312 55 C 312 53.667, 311.333 53, 310 53 C 308.667 53, 308 53.667, 308 55 M 298.762 57.707 C 300.006 57.946, 301.806 57.937, 302.762 57.687 C 303.718 57.437, 302.700 57.241, 300.500 57.252 C 298.300 57.263, 297.518 57.468, 298.762 57.707 M 125.345 68.484 C 123.610 69.220, 121.886 70.785, 121.513 71.961 C 120.583 74.891, 123.417 79, 126.368 79 C 128.921 79, 132.039 76.154, 131.932 73.921 C 131.894 73.126, 131.391 73.482, 130.789 74.728 C 128.840 78.767, 123.694 78.762, 122.411 74.720 C 121.578 72.094, 125.794 68.048, 127.123 70.198 C 127.755 71.222, 128.170 71.230, 129.158 70.242 C 131.279 68.121, 128.844 66.998, 125.345 68.484 M 141.411 68.371 C 141.119 69.132, 141.020 71.947, 141.190 74.627 L 141.500 79.500 220.500 79.500 L 299.500 79.500 299.500 73.500 L 299.500 67.500 220.721 67.244 C 154.405 67.028, 141.858 67.207, 141.411 68.371 M 308.500 69.359 C 307.650 70.657, 307.243 72.469, 307.595 73.387 C 308.460 75.640, 311.666 77.241, 313.897 76.533 C 314.928 76.205, 316.265 76.615, 316.981 77.477 C 317.676 78.315, 318.710 79, 319.277 79 C 319.845 79, 319.456 78.056, 318.412 76.902 C 317.368 75.749, 316.648 73.781, 316.812 72.529 C 317.163 69.851, 314.656 67, 311.952 67 C 310.904 67, 309.351 68.062, 308.500 69.359 M 92.173 70.858 C 89.025 73.428, 88.950 73.638, 90.680 75.076 C 95.017 78.682, 96.324 79.230, 93.683 76.337 L 90.866 73.251 93.586 71.111 C 95.081 69.935, 96.121 68.788, 95.896 68.563 C 95.671 68.338, 93.996 69.371, 92.173 70.858 M 142.404 69.389 C 142.109 70.159, 142.009 72.524, 142.183 74.645 L 142.500 78.500 220.802 78.756 L 299.105 79.012 298.802 73.756 L 298.500 68.500 220.721 68.244 C 154.780 68.027, 142.860 68.201, 142.404 69.389 M 310.200 69.200 C 308.399 71.001, 308.754 73.798, 310.931 74.963 C 312.388 75.743, 313.246 75.611, 314.431 74.427 C 316.544 72.313, 316.407 70.288, 314.066 69.035 C 311.655 67.745, 311.655 67.745, 310.200 69.200 M 104 87 C 104 87.550, 104.450 88, 105 88 C 105.550 88, 106 87.550, 106 87 C 106 86.450, 105.550 86, 105 86 C 104.450 86, 104 86.450, 104 87 M 93.158 91 C 93.158 92.375, 93.385 92.938, 93.662 92.250 C 93.940 91.563, 93.940 90.438, 93.662 89.750 C 93.385 89.063, 93.158 89.625, 93.158 91 M 106 93.378 C 106 94.135, 105.213 95.351, 104.250 96.079 C 102.761 97.206, 102.687 97.194, 103.750 96.002 C 105.834 93.665, 105.153 92.854, 102.542 94.564 C 100.560 95.863, 100.198 96.738, 100.667 99.087 C 101.192 101.712, 100.991 102, 98.625 102 C 96.958 102, 96 102.548, 96 103.500 C 96 104.333, 96.889 105, 98 105 C 100.386 105, 100.435 105.516, 98.555 110.845 C 97.123 114.904, 97.136 114.961, 99.984 116.988 C 102.750 118.958, 102.992 118.971, 106.429 117.332 C 110.783 115.256, 110.956 113.452, 107.016 111.203 C 103.629 109.270, 101.847 106.340, 104.739 107.459 C 110.657 109.748, 115.830 108.605, 114.557 105.288 C 114.263 104.522, 114.468 104.171, 115.011 104.507 C 116.266 105.282, 116.291 101.896, 115.055 98.644 C 114.324 96.722, 113.610 96.289, 111.907 96.735 C 109.801 97.285, 109.786 97.370, 111.548 98.659 C 113.081 99.780, 113.166 100.218, 112.050 101.254 C 111.255 101.991, 110.966 102.036, 111.342 101.363 C 111.692 100.738, 111.317 99.678, 110.510 99.008 C 109.422 98.105, 109.304 97.300, 110.056 95.895 C 110.807 94.493, 110.736 93.996, 109.785 93.985 C 108.882 93.974, 108.945 93.682, 110 93 C 111.169 92.245, 110.893 92.027, 108.750 92.015 C 107.073 92.006, 106 92.538, 106 93.378 M 107 96.833 C 107 97.475, 106.494 97.888, 105.875 97.750 C 105.256 97.612, 104.544 98.063, 104.292 98.750 C 104.040 99.438, 104.560 100, 105.448 100 C 107.144 100, 108.693 97.359, 107.624 96.290 C 107.281 95.947, 107 96.192, 107 96.833 M 93.250 117.674 C 90.584 119.534, 90.540 119.962, 92.524 124.712 L 94.048 128.359 98.024 124.477 C 100.211 122.341, 102 120.247, 102 119.823 C 102 119.160, 96.646 115.904, 95.800 116.052 C 95.635 116.081, 94.487 116.811, 93.250 117.674 M 107.143 117.873 L 103.786 119.662 107.887 122.911 L 111.989 126.159 112.994 123.515 C 114.438 119.719, 114.236 117.305, 112.418 116.607 C 110.521 115.879, 111.182 115.720, 107.143 117.873 M 184.750 120.662 C 185.438 120.940, 186.563 120.940, 187.250 120.662 C 187.938 120.385, 187.375 120.158, 186 120.158 C 184.625 120.158, 184.063 120.385, 184.750 120.662 M 101.105 122.373 C 100.478 123.129, 100.205 124.370, 100.497 125.133 C 100.790 125.895, 100.602 128.765, 100.078 131.510 C 99.240 135.910, 99.364 136.737, 101.123 138.500 C 103.118 140.500, 103.119 140.500, 105.613 137.632 C 107.644 135.296, 107.968 134.183, 107.360 131.632 C 106.949 129.909, 106.581 127.375, 106.541 126 C 106.407 121.344, 103.545 119.434, 101.105 122.373 M 170.609 123.725 C 169.365 124.969, 170.105 126.063, 174.193 129.025 C 177.857 131.679, 178.499 131.859, 179.285 130.456 C 179.779 129.573, 180.030 128.753, 179.842 128.633 C 179.654 128.514, 177.636 127.224, 175.359 125.766 C 173.081 124.308, 170.944 123.390, 170.609 123.725 M 167.694 129.639 C 166.895 130.438, 167.798 132, 169.059 132 C 169.577 132, 170 131.325, 170 130.500 C 170 128.954, 168.820 128.513, 167.694 129.639 M 87 132.825 C 87 133.499, 88.325 134.315, 89.945 134.639 C 91.904 135.031, 92.993 135.918, 93.195 137.286 C 93.363 138.417, 94.074 139.457, 94.775 139.597 C 95.476 139.736, 95.589 139.621, 95.025 139.342 C 94.461 139.062, 94 137.746, 94 136.417 C 94 134.562, 93.466 134, 91.700 134 C 90.435 134, 88.860 133.460, 88.200 132.800 C 87.267 131.867, 87 131.872, 87 132.825 M 165.639 132.694 C 164.513 133.820, 164.954 135, 166.500 135 C 167.325 135, 168 134.577, 168 134.059 C 168 132.798, 166.438 131.895, 165.639 132.694 M 116 136.049 C 116 136.626, 114.088 137.966, 111.750 139.027 C 109.412 140.088, 108.175 140.964, 109 140.974 C 111.014 140.999, 117 137.288, 117 136.015 C 117 135.457, 116.775 135, 116.500 135 C 116.225 135, 116 135.472, 116 136.049 M 35.740 139.754 C 33.070 142.489, 32.323 143.905, 32.986 144.977 C 33.748 146.210, 34.322 146.048, 36.539 143.974 C 39.978 140.757, 41.426 138.026, 40.294 136.894 C 39.773 136.373, 37.884 137.559, 35.740 139.754 M 41 139.969 C 41 140.501, 41.675 140.678, 42.500 140.362 C 43.325 140.045, 44 139.609, 44 139.393 C 44 139.177, 43.325 139, 42.500 139 C 41.675 139, 41 139.436, 41 139.969 M 45 144.500 C 45 145.417, 45.484 146.005, 46.075 145.808 C 46.666 145.611, 47.150 145.022, 47.150 144.500 C 47.150 143.978, 46.666 143.389, 46.075 143.192 C 45.484 142.995, 45 143.583, 45 144.500 M 34 156.477 C 34 158.895, 47.779 177.554, 48.807 176.527 C 49.117 176.217, 47.756 174.284, 45.783 172.232 C 43.811 170.179, 40.352 165.618, 38.098 162.095 C 35.844 158.572, 34 156.044, 34 156.477 M 130.317 162.494 C 131 169.807, 132.321 173, 134.664 173 C 136.025 173, 136.157 172.103, 135.564 166.865 L 134.870 160.729 138.685 163.738 C 143.400 167.456, 149.166 170.994, 150.500 170.987 C 151.050 170.984, 149.243 169.687, 146.485 168.104 C 143.726 166.522, 139.160 163.152, 136.338 160.614 C 133.515 158.076, 130.870 156, 130.458 156 C 130.047 156, 129.984 158.923, 130.317 162.494 M 108.336 159.567 C 107.502 161.739, 109.618 163.782, 111.133 162.267 C 112.413 160.987, 111.620 158, 110 158 C 109.415 158, 108.667 158.705, 108.336 159.567 M 259.859 161.019 C 258.957 161.546, 255.357 162.392, 251.859 162.900 C 248.362 163.407, 244.715 164.134, 243.756 164.515 C 242.498 165.016, 241.735 164.553, 241.015 162.855 C 240.027 160.521, 240.020 160.524, 240.256 163.180 C 240.444 165.302, 239.635 166.482, 236.364 168.851 C 233.668 170.804, 231.196 173.921, 229.242 177.832 C 226.480 183.359, 226.124 183.696, 224.625 182.196 C 223.707 181.279, 223 181.064, 223 181.702 C 223 182.324, 223.551 183.017, 224.226 183.242 C 225.048 183.516, 225.484 186.338, 225.551 191.825 C 225.644 199.441, 225.509 200.005, 223.575 200.079 C 221.757 200.148, 221.813 200.273, 224.028 201.088 C 225.418 201.600, 227.422 203.628, 228.481 205.595 C 230.778 209.860, 239.412 217.970, 244.131 220.295 C 247.333 221.872, 245.674 221.956, 210.583 221.977 C 190.279 221.990, 173.868 222.201, 174.113 222.446 C 174.916 223.249, 291.143 223.578, 291.637 222.778 C 291.902 222.350, 287.198 222, 281.184 222 C 275.170 222, 268.843 221.719, 267.124 221.375 L 263.999 220.750 268.067 218.737 C 270.304 217.630, 273.342 215.164, 274.817 213.257 C 276.293 211.350, 278.954 208.005, 280.731 205.823 C 287.331 197.720, 287.194 187.867, 280.342 177.906 C 278.206 174.801, 277.017 172.044, 277.318 170.893 C 277.590 169.850, 277.405 169.249, 276.907 169.558 C 276.408 169.866, 276 170.770, 276 171.567 C 276 172.767, 275.655 172.801, 274 171.768 C 272.900 171.081, 271.993 169.615, 271.985 168.509 C 271.974 167.082, 271.733 166.873, 271.152 167.789 C 270.535 168.760, 269.661 168.822, 267.602 168.039 C 262.039 165.924, 262.695 167.146, 268.681 170.049 C 275.225 173.223, 278.806 176.740, 282.131 183.257 C 284.661 188.215, 284.881 196.395, 282.604 200.799 C 280.760 204.364, 280.012 204.888, 280.532 202.250 C 281.477 197.454, 281.813 189.998, 281.063 190.461 C 279.854 191.208, 278.787 186.245, 279.604 183.673 C 280.199 181.797, 280.083 181.686, 278.714 182.822 C 277.385 183.925, 276.973 183.817, 276.070 182.130 C 275.481 181.031, 275 179.228, 275 178.125 C 275 177.021, 274.557 175.844, 274.015 175.509 C 273.399 175.129, 273.271 176.107, 273.674 178.118 C 274.219 180.843, 274.063 181.238, 272.659 180.699 C 271.746 180.349, 271 180.446, 271 180.915 C 271 181.383, 271.900 182.002, 273 182.290 C 274.714 182.738, 274.999 183.649, 274.991 188.656 C 274.979 195.979, 271.436 202.625, 263.959 209.347 C 261.113 211.906, 259.105 214, 259.498 214 C 261.224 214, 268.103 207.560, 270.919 203.309 C 274.216 198.331, 275.025 199.610, 272.462 205.746 C 270.235 211.074, 268.280 212.839, 262.803 214.466 C 255.769 216.555, 254.302 215.552, 258.718 211.675 C 260.696 209.938, 263.093 206.776, 264.046 204.649 C 265.493 201.417, 265.932 201.055, 266.713 202.452 C 267.387 203.656, 267.628 202.732, 267.574 199.147 C 267.518 195.384, 268.085 193.379, 269.902 190.920 C 271.704 188.482, 271.891 187.828, 270.652 188.303 C 269.275 188.832, 268.966 188.153, 268.798 184.219 C 268.687 181.623, 268.680 177.925, 268.782 176 C 268.919 173.420, 268.713 172.894, 267.999 174 C 267.171 175.283, 266.693 174.889, 266.788 173 C 266.802 172.725, 265.698 171.667, 264.336 170.650 C 261.882 168.818, 261.870 168.820, 263.141 170.854 C 264.913 173.692, 263.253 174.961, 261.182 172.352 C 255.568 165.282, 244.902 166.760, 237.033 175.700 C 232.767 180.547, 228.068 191.499, 227.885 197.021 L 227.770 200.500 227.038 196.725 C 225.344 187.983, 229.422 176.363, 236.229 170.536 C 242.291 165.347, 248.377 163.690, 259.581 164.180 C 264.737 164.406, 268.403 164.240, 267.728 163.811 C 267.052 163.382, 265.262 163.024, 263.750 163.015 C 260.930 163, 260.015 161.564, 262.250 160.662 C 262.938 160.385, 263.050 160.136, 262.500 160.109 C 261.950 160.083, 260.762 160.492, 259.859 161.019 M 173.144 163.750 C 172.053 166.300, 172.078 166.359, 173.484 164.559 C 174.318 163.491, 175 162.254, 175 161.809 C 175 160.289, 174.322 160.999, 173.144 163.750 M 168.066 171.268 C 165.218 174.778, 165.106 175.073, 167.408 173 C 169.800 170.845, 172.640 166.964, 171.785 167.018 C 171.628 167.028, 169.955 168.940, 168.066 171.268 M 108.500 170 C 107.684 171.320, 108.777 173, 110.452 173 C 111.915 173, 113.219 170.552, 112.264 169.598 C 111.332 168.665, 109.183 168.895, 108.500 170 M 248.409 169.853 C 248.874 170.606, 248.205 171, 246.463 171 C 242.808 171, 238.487 174.314, 235.504 179.403 C 234.127 181.753, 233 184.029, 233 184.460 C 233 185.871, 236.097 182.714, 237.640 179.730 C 238.469 178.126, 239.376 177.042, 239.655 177.321 C 239.934 177.600, 239.660 178.767, 239.046 179.914 C 237.150 183.458, 239.457 182.216, 242.558 178.024 C 244.176 175.837, 245.907 174.037, 246.405 174.024 C 246.903 174.011, 246.495 174.900, 245.500 176 C 244.114 177.531, 244.019 178.005, 245.095 178.022 C 245.942 178.036, 245.506 178.822, 244 180 C 241.555 181.912, 241.548 181.956, 243.677 181.978 C 246.200 182.004, 249.954 177.699, 250.100 174.615 C 250.196 172.570, 250.221 172.566, 250.850 174.500 C 251.498 176.493, 251.514 176.493, 255.816 174.427 C 259.583 172.619, 259.933 172.189, 258.566 171.055 C 256.486 169.329, 247.422 168.257, 248.409 169.853 M 136.252 177.500 C 136.263 179.700, 136.468 180.482, 136.707 179.238 C 136.946 177.994, 136.937 176.194, 136.687 175.238 C 136.437 174.282, 136.241 175.300, 136.252 177.500 M 256 175.594 C 250.963 177.776, 246.765 182.012, 248.075 183.591 C 248.857 184.533, 248.658 184.723, 247.271 184.361 C 245.914 184.006, 244.977 184.826, 243.714 187.473 C 241.522 192.069, 241.554 192.309, 244.168 190.910 C 247.006 189.391, 261.994 173.988, 260.584 174.039 C 259.988 174.061, 257.925 174.760, 256 175.594 M 258.425 178.922 C 253.394 183.017, 247.711 190, 249.409 190 C 249.696 190, 251.521 188.603, 253.465 186.896 C 257.163 183.649, 258.259 183.914, 255.250 187.328 C 253.563 189.242, 253.579 189.294, 255.685 188.768 C 257.040 188.429, 258.074 188.749, 258.404 189.611 C 259.390 192.181, 261.774 191.029, 263.289 187.250 C 264.978 183.035, 264.724 182, 262 182 C 259.277 182, 258.716 183.573, 260.723 185.580 C 261.909 186.766, 262.015 187.172, 261.054 186.851 C 260.278 186.593, 259.161 185.594, 258.571 184.632 C 257.149 182.310, 260.346 179.798, 263.662 180.630 C 265.730 181.149, 266 180.865, 266 178.167 C 266 176.490, 265.629 174.889, 265.175 174.608 C 264.721 174.328, 261.684 176.269, 258.425 178.922 M 285.663 181 C 287.347 188.042, 286.576 200.116, 284.083 205.742 C 281.604 211.337, 275.787 217.316, 270.645 219.553 C 268.915 220.306, 268.008 220.939, 268.628 220.961 C 269.248 220.982, 271.315 220.349, 273.220 219.552 C 275.126 218.756, 277.768 218.337, 279.092 218.621 C 281.143 219.061, 281.245 218.975, 279.781 218.037 C 278.215 217.033, 278.367 216.516, 281.487 212.218 C 283.371 209.623, 286.105 206.033, 287.563 204.240 C 289.021 202.448, 289.587 201.221, 288.821 201.515 C 287.671 201.956, 287.497 200.309, 287.827 192.105 C 288.157 183.892, 287.930 181.755, 286.526 179.830 C 284.836 177.513, 284.831 177.519, 285.663 181 M 266.615 181.814 C 266.339 182.261, 266.484 184.848, 266.939 187.564 L 267.765 192.500 267.882 186.750 C 267.995 181.224, 267.697 180.063, 266.615 181.814 M 236.590 185.222 C 233.079 190.581, 232.775 202.975, 236.008 209.014 C 237.599 211.989, 237.889 211.428, 236.919 207.250 C 235.569 201.437, 235.843 193.531, 237.572 188.440 C 239.361 183.171, 238.908 181.685, 236.590 185.222 M 239.427 186.520 C 238.618 188.457, 237.712 192.169, 237.413 194.770 L 236.870 199.500 240.435 191.583 C 242.396 187.229, 244 183.516, 244 183.333 C 244 183.150, 243.302 183, 242.449 183 C 241.596 183, 240.236 184.584, 239.427 186.520 M 276.158 187 C 276.158 188.375, 276.385 188.938, 276.662 188.250 C 276.940 187.563, 276.940 186.438, 276.662 185.750 C 276.385 185.063, 276.158 185.625, 276.158 187 M 232.028 187.948 C 231.404 189.114, 231.030 192.190, 231.197 194.784 L 231.500 199.500 232.732 193.066 C 234.056 186.154, 233.838 184.566, 232.028 187.948 M 263.975 188.565 C 262.680 191.971, 262.735 192.535, 264.500 194 C 265.797 195.076, 266 194.618, 266 190.622 C 266 185.412, 265.404 184.806, 263.975 188.565 M 93.269 187.693 C 94.242 187.947, 95.592 187.930, 96.269 187.656 C 96.946 187.382, 96.150 187.175, 94.500 187.195 C 92.850 187.215, 92.296 187.439, 93.269 187.693 M 277.634 190 C 276.843 192.043, 275.055 200.180, 275.024 201.872 C 275.005 202.979, 275.290 203.004, 276.500 202 C 277.325 201.315, 278 201.152, 278 201.637 C 278 202.122, 277.114 203.072, 276.031 203.748 C 273.919 205.068, 270.418 211, 271.752 211 C 273.662 211, 277.320 207.477, 278.606 204.401 C 280.124 200.767, 280.344 193.679, 279.037 190.500 C 278.376 188.893, 278.101 188.795, 277.634 190 M 113.750 190.706 C 114.987 190.944, 117.013 190.944, 118.250 190.706 C 119.487 190.467, 118.475 190.272, 116 190.272 C 113.525 190.272, 112.513 190.467, 113.750 190.706 M 251.771 191.750 C 249.512 194.321, 246.353 200.937, 245.205 205.506 C 242.795 215.090, 242.795 214.925, 245.232 214.455 C 246.465 214.218, 248.283 213.006, 249.273 211.762 C 253.082 206.974, 256.815 201.326, 258.953 197.114 C 260.751 193.572, 260.922 192.565, 259.840 191.880 C 257.766 190.565, 257.675 190.661, 254.701 197.324 C 251.100 205.392, 245.996 214.329, 245.354 213.688 C 245.080 213.413, 246.091 211.234, 247.601 208.844 C 251.517 202.648, 256.167 192.079, 255.472 190.954 C 254.602 189.547, 253.500 189.784, 251.771 191.750 M 246.526 193.950 C 244.779 197.328, 244.665 198, 245.839 198 C 246.550 198, 247.440 196.597, 249.801 191.750 C 250.002 191.338, 249.691 191, 249.109 191 C 248.527 191, 247.365 192.328, 246.526 193.950 M 242.441 193.502 C 240.530 194.982, 240.531 194.995, 242.500 194.342 C 244.372 193.722, 244.356 193.839, 242.250 196.154 C 240.414 198.174, 240.019 199.721, 240.102 204.564 C 240.199 210.222, 240.250 210.336, 241.183 207 C 241.721 205.075, 242.948 200.912, 243.908 197.750 C 245.756 191.667, 245.557 191.091, 242.441 193.502 M 229.110 197.434 C 229 201.363, 231.948 208.882, 234.393 210.912 C 235.105 211.502, 234.627 209.843, 233.331 207.225 C 232.035 204.606, 230.580 200.447, 230.097 197.982 L 229.219 193.500 229.110 197.434 M 260.590 196.826 C 258.622 200.632, 258.610 201.087, 260.500 200.362 C 263.108 199.361, 262.122 200.886, 259.176 202.409 C 256.637 203.722, 250.601 211.315, 250.529 213.286 C 250.513 213.719, 249.900 214.444, 249.166 214.897 C 248.297 215.434, 248.873 215.683, 250.818 215.611 C 252.460 215.550, 253.626 215.212, 253.410 214.859 C 253.194 214.507, 254.251 213.433, 255.759 212.472 C 258.686 210.608, 262.905 206.041, 262.964 204.672 C 262.984 204.217, 260.645 205.905, 257.767 208.422 C 250.027 215.194, 249.639 213.982, 257.300 206.962 C 264.544 200.324, 266.031 197.603, 263.693 195.264 C 262.342 193.914, 262.009 194.081, 260.590 196.826 M 70.500 196 C 70.101 196.646, 70.224 197.624, 70.774 198.174 C 71.441 198.841, 72.016 198.783, 72.500 198 C 72.899 197.354, 72.776 196.376, 72.226 195.826 C 71.559 195.159, 70.984 195.217, 70.500 196 M 88 198.500 C 88 199.417, 88.484 200.005, 89.075 199.808 C 89.666 199.611, 90.150 199.022, 90.150 198.500 C 90.150 197.978, 89.666 197.389, 89.075 197.192 C 88.484 196.995, 88 197.583, 88 198.500 M 238.272 204 C 238.272 206.475, 238.467 207.488, 238.706 206.250 C 238.944 205.012, 238.944 202.988, 238.706 201.750 C 238.467 200.512, 238.272 201.525, 238.272 204 M 243.484 203.072 C 242.545 207.350, 243.322 207.602, 244.625 203.441 C 245.217 201.548, 245.354 200, 244.930 200 C 244.506 200, 243.855 201.382, 243.484 203.072 M 91.028 259.467 C 78.841 298.908, 73.115 316.060, 72.040 316.351 C 71.193 316.580, 72.339 316.820, 74.587 316.884 L 78.674 317 86.412 294.750 C 90.668 282.512, 95.941 266.425, 98.130 259 C 103.595 240.463, 103.829 240.066, 104.050 249 C 104.233 256.421, 104.244 256.449, 105.053 251.625 C 105.502 248.944, 107.520 244.077, 109.536 240.811 L 113.202 234.871 112.510 226.121 C 111.841 217.672, 111.907 217.264, 114.422 214.275 C 115.855 212.572, 117.685 209.605, 118.489 207.681 C 119.293 205.757, 120.524 203.953, 121.225 203.671 C 121.926 203.389, 119.345 203.122, 115.488 203.079 L 108.476 203 91.028 259.467 M 270.890 213.266 C 268.904 214.495, 265.754 216.547, 263.890 217.827 C 261.025 219.794, 260.887 220.046, 263 219.451 C 267.037 218.314, 270.333 216.369, 272.924 213.595 C 275.876 210.436, 275.550 210.383, 270.890 213.266 M 256.500 217.016 C 249.944 218.433, 248.972 218.872, 251.116 219.447 C 254.123 220.254, 260.646 218.733, 263.531 216.552 C 264.614 215.733, 265.275 215.114, 265 215.175 C 264.725 215.236, 260.900 216.064, 256.500 217.016 M 254.768 221.725 C 256.565 221.947, 259.265 221.943, 260.768 221.715 C 262.271 221.486, 260.800 221.304, 257.500 221.310 C 254.200 221.315, 252.971 221.502, 254.768 221.725 M 152.246 222.579 C 153.196 223.530, 160.808 223.738, 162.205 222.852 C 162.966 222.369, 161.059 222.024, 157.583 222.015 C 154.329 222.007, 151.927 222.261, 152.246 222.579 M 73.195 239.500 C 73.215 241.150, 73.439 241.704, 73.693 240.731 C 73.947 239.758, 73.930 238.408, 73.656 237.731 C 73.382 237.054, 73.175 237.850, 73.195 239.500 M 72.195 245.500 C 72.215 247.150, 72.439 247.704, 72.693 246.731 C 72.947 245.758, 72.930 244.408, 72.656 243.731 C 72.382 243.054, 72.175 243.850, 72.195 245.500 M 71.195 251.500 C 71.215 253.150, 71.439 253.704, 71.693 252.731 C 71.947 251.758, 71.930 250.408, 71.656 249.731 C 71.382 249.054, 71.175 249.850, 71.195 251.500 M 299 254.393 C 299 256.742, 298.693 257.037, 296.854 256.454 C 295.058 255.884, 294.793 256.101, 295.233 257.785 C 295.523 258.891, 295.251 261.980, 294.630 264.649 C 293.892 267.816, 293.697 275.402, 294.067 286.500 L 294.634 303.500 294.713 284.379 C 294.787 266.227, 295.502 261, 297.910 261 C 300.215 261, 300.662 277.972, 298.934 299.943 C 297.314 320.547, 295.704 331.270, 294.153 331.785 C 293.045 332.152, 292.935 329.893, 293.535 319.047 C 294.027 310.145, 293.911 305.154, 293.177 303.681 C 289.876 297.060, 288.677 293.092, 288.924 289.605 C 289.146 286.479, 288.903 285.823, 287.694 286.287 C 286.680 286.676, 285.789 285.905, 284.972 283.933 C 283.293 279.880, 281.971 280.263, 282.150 284.750 C 282.280 288.011, 282.356 288.122, 282.731 285.596 L 283.162 282.693 284.413 285.096 C 285.101 286.418, 286.220 287.377, 286.900 287.227 C 287.706 287.049, 288.026 287.920, 287.819 289.727 C 287.566 291.928, 286.920 292.566, 284.690 292.822 C 281.489 293.189, 278.963 291.525, 279.079 289.128 C 279.129 288.091, 279.341 287.954, 279.662 288.750 C 279.940 289.438, 280.634 290, 281.206 290 C 281.833 290, 281.752 289.406, 281 288.500 C 278.998 286.088, 277.699 286.724, 278.445 289.750 C 278.817 291.262, 279.239 295.200, 279.381 298.500 C 279.522 301.800, 280.015 310.688, 280.474 318.250 L 281.310 332 278.905 332.086 C 276.738 332.163, 276.797 332.263, 279.500 333.090 C 282.945 334.143, 320.239 333.979, 324 332.894 C 326.375 332.208, 326.387 332.168, 324.250 332.086 C 323.012 332.039, 322.004 331.663, 322.010 331.250 C 322.041 328.782, 325.153 302.383, 326.078 296.736 C 326.815 292.235, 326.860 289.037, 326.213 287.181 C 325.496 285.125, 325.603 283.895, 326.620 282.505 C 328.402 280.067, 328.393 277.912, 326.604 278.599 C 325.836 278.893, 324.558 278.207, 323.764 277.074 C 322.166 274.792, 321 275.298, 321 278.274 C 321 279.547, 320.508 280.025, 319.567 279.664 C 318.249 279.158, 313.220 285.762, 311.697 290 C 311.400 290.825, 311.122 286.198, 311.079 279.718 C 310.999 267.778, 309.900 262.819, 306.758 260.213 C 305.827 259.441, 305.428 258.078, 305.761 256.807 C 306.156 255.295, 305.962 254.906, 305.083 255.448 C 304.355 255.899, 302.862 255.279, 301.426 253.930 L 299 251.651 299 254.393 M 299.607 256.430 C 299.006 258.825, 298.710 259.005, 297.296 257.838 C 295.921 256.703, 295.749 256.728, 296.164 258 C 296.847 260.090, 302.357 260.479, 303.958 258.551 C 304.983 257.315, 304.988 257, 303.983 257 C 303.288 257, 302.175 256.254, 301.508 255.342 C 300.432 253.871, 300.219 253.993, 299.607 256.430 M 70.195 257.500 C 70.215 259.150, 70.439 259.704, 70.693 258.731 C 70.947 257.758, 70.930 256.408, 70.656 255.731 C 70.382 255.054, 70.175 255.850, 70.195 257.500 M 109.613 266.218 L 104.009 272.500 103.795 267 C 103.678 263.975, 103.283 275.225, 102.918 292 C 102.553 308.775, 101.917 324.841, 101.504 327.702 L 100.755 332.904 95.627 333.267 C 92.807 333.467, 111.200 333.609, 136.500 333.584 C 161.800 333.559, 171.726 333.409, 158.558 333.250 C 138.716 333.012, 134.326 332.700, 132.919 331.427 C 131.986 330.582, 129.035 329.037, 126.361 327.992 C 123.687 326.948, 121.976 326.073, 122.559 326.047 C 123.141 326.021, 124.491 325.300, 125.559 324.445 C 127.434 322.943, 127.426 322.926, 125.316 323.945 C 122.585 325.264, 117.677 325.332, 118.476 324.039 C 118.803 323.510, 120.742 322.762, 122.785 322.376 C 124.830 321.991, 125.826 321.451, 125 321.175 C 124.175 320.901, 122.936 319.961, 122.248 319.088 C 121.125 317.665, 121.051 317.663, 121.536 319.072 C 121.895 320.114, 121.145 321.069, 119.308 321.906 L 116.539 323.167 118.519 320.873 L 120.500 318.578 117.750 320.312 C 115.765 321.564, 115 321.692, 115.001 320.773 C 115.002 319.855, 113.469 319.596, 109.501 319.843 L 104 320.185 104 303.174 L 104 286.163 108 282 C 110.603 279.291, 112.006 276.905, 112.018 275.168 C 112.028 273.701, 113.378 270.520, 115.018 268.100 C 118.421 263.077, 118.514 262.671, 116.609 261.090 C 115.493 260.164, 114.108 261.179, 109.613 266.218 M 305.401 262 C 305.716 263.375, 306.023 274.400, 306.085 286.500 C 306.192 307.283, 306.279 308.251, 307.662 304 C 309.285 299.013, 310.677 273.347, 309.619 267.908 C 309.255 266.034, 308.028 263.375, 306.893 262 L 304.830 259.500 305.401 262 M 300.793 271.441 C 301.283 282.479, 299.759 307.281, 297.640 322.750 L 296.372 332 300.042 332 L 303.711 332 304.348 325.250 C 305.157 316.690, 305.174 266.252, 304.370 263.250 C 304.038 262.012, 302.993 261, 302.047 261 C 300.502 261, 300.375 262.055, 300.793 271.441 M 69.195 264.500 C 69.215 266.150, 69.439 266.704, 69.693 265.731 C 69.947 264.758, 69.930 263.408, 69.656 262.731 C 69.382 262.054, 69.175 262.850, 69.195 264.500 M 68.195 270.500 C 68.215 272.150, 68.439 272.704, 68.693 271.731 C 68.947 270.758, 68.930 269.408, 68.656 268.731 C 68.382 268.054, 68.175 268.850, 68.195 270.500 M 67.195 276.500 C 67.215 278.150, 67.439 278.704, 67.693 277.731 C 67.947 276.758, 67.930 275.408, 67.656 274.731 C 67.382 274.054, 67.175 274.850, 67.195 276.500 M 322.032 278.583 C 321.988 281.445, 320.968 282.217, 319.179 280.741 C 317.948 279.725, 317.764 279.772, 318.165 281 C 318.858 283.123, 325.561 283.586, 326.337 281.565 C 326.662 280.717, 326.526 280.131, 326.035 280.262 C 325.543 280.393, 324.449 279.600, 323.602 278.500 C 322.070 276.508, 322.063 276.508, 322.032 278.583 M 66.195 282.500 C 66.215 284.150, 66.439 284.704, 66.693 283.731 C 66.947 282.758, 66.930 281.408, 66.656 280.731 C 66.382 280.054, 66.175 280.850, 66.195 282.500 M 315.663 284.820 C 312.136 288.717, 306.801 309.381, 305.451 324.376 C 304.886 330.646, 305.008 332.164, 306.046 331.818 C 306.837 331.554, 308.014 327.464, 309.032 321.441 C 311.246 308.335, 314.560 295.721, 317.467 289.326 C 319.633 284.562, 319.762 283, 317.988 283 C 317.615 283, 316.569 283.819, 315.663 284.820 M 318.781 289 C 315.735 295.236, 311.739 310.270, 309.663 323.303 L 308.260 332.105 311.880 331.803 L 315.500 331.500 316.101 325 C 316.431 321.425, 317.915 313.176, 319.398 306.668 C 321.112 299.149, 321.981 292.770, 321.781 289.168 L 321.468 283.500 318.781 289 M 323.132 290.242 C 323.030 293.125, 321.608 301.468, 319.973 308.781 C 318.338 316.095, 317 324.311, 317 327.039 C 317 331.333, 317.269 332, 319 332 C 320.100 332, 321 331.756, 321 331.457 C 321 329.172, 324.280 301.300, 325.095 296.662 C 326.101 290.933, 325.584 285, 324.079 285 C 323.660 285, 323.234 287.359, 323.132 290.242 M 65.195 288.500 C 65.215 290.150, 65.439 290.704, 65.693 289.731 C 65.947 288.758, 65.930 287.408, 65.656 286.731 C 65.382 286.054, 65.175 286.850, 65.195 288.500 M 64.195 294.500 C 64.215 296.150, 64.439 296.704, 64.693 295.731 C 64.947 294.758, 64.930 293.408, 64.656 292.731 C 64.382 292.054, 64.175 292.850, 64.195 294.500 M 280.589 296.102 C 280.186 297.534, 280.339 303.029, 280.929 308.313 C 281.518 313.598, 282 321.089, 282 324.961 C 282 330.551, 282.309 332, 283.500 332 C 285.342 332, 285.343 332.352, 283.463 312.627 C 281.620 293.298, 281.527 292.763, 280.589 296.102 M 283.543 301 C 283.824 305.125, 284.573 313.788, 285.207 320.250 C 286.215 330.525, 286.588 332, 288.180 332 C 290.531 332, 290.516 331.812, 286.450 311 C 283.654 296.686, 283.125 294.865, 283.543 301 M 288.695 302.716 C 293.081 318.789, 292.790 318.137, 292.846 312 C 292.898 306.394, 289.328 294.943, 287.321 294.274 C 286.758 294.086, 287.376 297.885, 288.695 302.716 M 285.492 298.500 C 286.823 307.070, 291.244 330.556, 291.595 330.917 C 291.818 331.146, 292 329.192, 292 326.574 C 292 320.807, 288.475 302.995, 286.472 298.643 L 285.026 295.500 285.492 298.500 M 63.195 300.500 C 63.215 302.150, 63.439 302.704, 63.693 301.731 C 63.947 300.758, 63.930 299.408, 63.656 298.731 C 63.382 298.054, 63.175 298.850, 63.195 300.500 M 61.599 309.407 C 61.169 312.655, 60.585 315.918, 60.301 316.657 C 59.951 317.569, 60.622 318, 62.393 318 C 63.827 318, 65.007 318.563, 65.015 319.250 C 65.026 320.146, 65.239 320.179, 65.765 319.366 C 66.169 318.742, 67.400 318.007, 68.500 317.732 C 69.600 317.457, 68.424 317.180, 65.887 317.116 L 61.273 317 62.195 311.925 C 62.703 309.134, 62.952 306.096, 62.750 305.175 C 62.547 304.254, 62.030 306.158, 61.599 309.407 M 64.116 321.750 C 64.048 322.483, 62.450 323.049, 60.250 323.118 C 56.543 323.235, 56.534 323.245, 59.500 323.965 L 62.500 324.694 58.782 326.347 C 56.737 327.256, 54.423 328, 53.639 328 C 51.406 328, 50.646 331.268, 52.556 332.664 C 54.091 333.787, 54.056 334.112, 52.110 336.845 C 47.602 343.176, 50.128 343.312, 62.875 337.422 C 68.423 334.859, 71.815 333.954, 76.391 333.815 L 82.500 333.630 77.364 333.267 L 72.228 332.903 73.991 329.202 C 74.960 327.166, 76.098 324.379, 76.521 323.008 C 77.152 320.957, 77.042 320.713, 75.894 321.627 C 75.127 322.238, 72.384 322.965, 69.799 323.241 C 66.029 323.644, 65.011 323.422, 64.665 322.122 C 64.427 321.230, 64.180 321.063, 64.116 321.750 M 50.374 324.467 C 50.065 325.274, 50.043 326.511, 50.327 327.217 C 50.610 327.923, 50.878 327.520, 50.921 326.323 C 50.964 325.126, 51.788 323.941, 52.750 323.689 C 54.390 323.261, 54.388 323.225, 52.719 323.116 C 51.739 323.052, 50.684 323.660, 50.374 324.467 M 54.250 329.220 C 53.013 329.817, 52 330.687, 52 331.153 C 52 332.649, 54.708 332.059, 57.139 330.033 C 59.775 327.837, 58.097 327.365, 54.250 329.220 M 212.250 333.748 C 222.013 333.912, 237.988 333.912, 247.750 333.748 C 257.513 333.585, 249.525 333.451, 230 333.451 C 210.475 333.451, 202.488 333.585, 212.250 333.748" stroke="none" fill="#353023" fill-rule="evenodd"/><path d="M 227.500 20.051 C 214.084 21.834, 197.455 28.898, 177.250 41.399 C 172.162 44.546, 168 47.319, 168 47.561 C 168 47.802, 195.241 48, 228.535 48 C 288.053 48, 289.053 47.968, 288.036 46.068 C 286.105 42.460, 277.523 34.396, 271.500 30.530 C 263.467 25.373, 255.075 22.045, 246 20.416 C 237.698 18.926, 236.190 18.896, 227.500 20.051 M 84.200 50.200 C 83.540 50.860, 83 53.562, 83 56.204 L 83 61.008 204.250 60.754 L 325.500 60.500 325.414 55.660 C 325.360 52.658, 324.791 50.481, 323.914 49.926 C 321.605 48.464, 85.666 48.734, 84.200 50.200 M 81.237 66.844 C 81.009 82.592, 80.922 83.208, 78.866 83.745 C 73.517 85.144, 58.822 93.257, 52.162 98.488 C 43.850 105.017, 34.323 116.436, 29.934 125.130 L 26.971 131 30.972 131 C 35.149 131, 35.882 131.514, 54.078 147.194 C 57.145 149.837, 59.923 152, 60.250 152 C 60.577 152, 61.392 150.313, 62.060 148.250 C 65.357 138.074, 73.228 127.330, 80.274 123.386 C 81.900 122.476, 82.006 119.835, 81.750 86.453 C 81.598 66.679, 81.367 57.855, 81.237 66.844 M 307.667 52.667 C 307.300 53.033, 307 54.383, 307 55.667 C 307 57.593, 307.524 58, 310 58 C 312.667 58, 313 57.667, 313 55 C 313 52.524, 312.593 52, 310.667 52 C 309.383 52, 308.033 52.300, 307.667 52.667 M 317.333 55 C 317.333 57.254, 317.633 57.720, 318.578 56.936 C 319.435 56.224, 320.024 56.229, 320.470 56.951 C 320.826 57.528, 321.597 58, 322.181 58 C 322.852 58, 322.785 57.446, 322 56.500 C 321.007 55.303, 321.007 54.697, 322 53.500 C 322.785 52.554, 322.852 52, 322.181 52 C 321.597 52, 320.826 52.472, 320.470 53.049 C 320.024 53.771, 319.435 53.776, 318.578 53.064 C 317.633 52.280, 317.333 52.746, 317.333 55 M 308 55 C 308 56.333, 308.667 57, 310 57 C 311.333 57, 312 56.333, 312 55 C 312 53.667, 311.333 53, 310 53 C 308.667 53, 308 53.667, 308 55 M 298.762 57.707 C 300.006 57.946, 301.806 57.937, 302.762 57.687 C 303.718 57.437, 302.700 57.241, 300.500 57.252 C 298.300 57.263, 297.518 57.468, 298.762 57.707 M 325.382 73.500 C 325.384 80.100, 325.546 82.670, 325.741 79.211 C 325.937 75.752, 325.936 70.352, 325.738 67.211 C 325.540 64.070, 325.380 66.900, 325.382 73.500 M 93 69.500 C 92.315 70.325, 92.090 71, 92.500 71 C 92.910 71, 92.635 71.787, 91.890 72.750 C 90.604 74.410, 90.641 74.410, 92.601 72.746 C 93.737 71.781, 94.667 70.319, 94.667 69.496 C 94.667 67.639, 94.544 67.639, 93 69.500 M 142.402 69.395 C 142.108 70.162, 142.009 72.524, 142.183 74.645 L 142.500 78.500 221.155 79 C 264.415 79.275, 299.601 79.163, 299.346 78.750 C 299.091 78.338, 263.809 78, 220.941 78 L 143 78 143 73.506 L 143 69.012 220.750 68.750 L 298.500 68.488 220.719 68.244 C 154.946 68.038, 142.855 68.215, 142.402 69.395 M 108.663 70.250 C 109.961 72.329, 109.884 73.852, 108.416 75.070 C 107.649 75.706, 107.249 76.595, 107.527 77.044 C 108.417 78.484, 106.377 78.968, 103.228 78.065 C 100.697 77.339, 99.835 77.559, 98.213 79.344 C 97.136 80.530, 96.481 82.125, 96.757 82.889 C 97.094 83.821, 96.836 84.017, 95.975 83.485 C 95.136 82.966, 94.937 83.089, 95.400 83.838 C 95.789 84.468, 95.648 85.775, 95.085 86.742 C 94.519 87.713, 94.047 87.940, 94.030 87.250 C 94.009 86.377, 92.266 86.054, 88.250 86.180 C 82.552 86.359, 82.543 86.364, 87.258 86.735 C 92.673 87.162, 97.460 90.637, 96.408 93.379 C 96.066 94.270, 96.209 95, 96.726 95 C 97.662 95, 97.894 94.197, 98.292 89.585 C 98.431 87.972, 98.861 87.470, 99.587 88.073 C 100.869 89.136, 104.550 85.536, 105.284 82.500 C 105.716 80.713, 105.780 80.743, 105.884 82.781 C 105.948 84.036, 106.672 85.321, 107.494 85.636 C 108.316 85.952, 108.744 86.606, 108.445 87.090 C 108.145 87.574, 109.318 87.686, 111.052 87.340 C 113.217 86.907, 114.479 87.146, 115.086 88.105 C 115.718 89.102, 115.974 89.144, 115.985 88.250 C 115.997 87.258, 137.574 87, 220.494 87 L 324.987 87 325.253 162.750 L 325.519 238.500 325.510 162.500 L 325.500 86.500 220 86.240 C 151.031 86.069, 114.587 85.637, 114.750 84.990 C 114.888 84.445, 113.988 84.007, 112.750 84.015 C 110.931 84.028, 110.787 84.216, 112 85 C 113.206 85.779, 113.046 85.972, 111.183 85.985 C 109.272 85.997, 108.984 85.627, 109.540 83.875 C 110.007 82.401, 109.861 81.968, 109.061 82.462 C 108.259 82.958, 108.049 82.311, 108.372 80.337 C 108.627 78.777, 108.929 77.388, 109.043 77.250 C 109.157 77.112, 109.313 76.662, 109.390 76.250 C 109.743 74.365, 111.245 73.029, 112.319 73.645 C 112.969 74.018, 112.409 73.125, 111.076 71.661 C 108.505 68.840, 107.365 68.173, 108.663 70.250 M 126 70.500 C 126 71.325, 126.436 72, 126.969 72 C 127.501 72, 127.678 71.325, 127.362 70.500 C 127.045 69.675, 126.609 69, 126.393 69 C 126.177 69, 126 69.675, 126 70.500 M 300.286 73.500 C 300.294 76.250, 300.488 77.256, 300.718 75.736 C 300.947 74.216, 300.941 71.966, 300.704 70.736 C 300.467 69.506, 300.279 70.750, 300.286 73.500 M 314.754 71.167 C 315.018 72.175, 315.353 73, 315.500 73 C 315.647 73, 315.982 72.175, 316.246 71.167 C 316.518 70.125, 316.196 69.333, 315.500 69.333 C 314.804 69.333, 314.482 70.125, 314.754 71.167 M 121.500 73.500 C 121.500 74.770, 121.838 75.600, 122.250 75.345 C 122.662 75.091, 123 74.260, 123 73.500 C 123 72.740, 122.662 71.909, 122.250 71.655 C 121.838 71.400, 121.500 72.230, 121.500 73.500 M 93.386 76.424 C 93.709 78.622, 95.623 80.420, 96.364 79.221 C 96.688 78.696, 96.098 77.493, 95.052 76.547 C 93.380 75.034, 93.180 75.019, 93.386 76.424 M 129.333 77.651 C 129.333 78.635, 129.670 78.689, 130.667 77.862 C 131.400 77.253, 132 76.660, 132 76.544 C 132 76.428, 131.400 76.333, 130.667 76.333 C 129.933 76.333, 129.333 76.926, 129.333 77.651 M 316.273 78 C 317.671 79.100, 319.143 80, 319.543 80 C 319.943 80, 319.126 79.100, 317.727 78 C 316.329 76.900, 314.857 76, 314.457 76 C 314.057 76, 314.874 76.900, 316.273 78 M 98.405 80.250 L 96.500 82.500 98.750 80.595 C 99.987 79.547, 101 78.535, 101 78.345 C 101 77.545, 100.195 78.136, 98.405 80.250 M 181.824 80.750 C 203.453 80.900, 238.553 80.900, 259.824 80.750 C 281.096 80.599, 263.400 80.476, 220.500 80.476 C 177.600 80.476, 160.196 80.599, 181.824 80.750 M 100.546 89.949 C 99.599 90.995, 98.977 92.601, 99.162 93.518 C 99.426 94.819, 99.993 94.517, 101.741 92.146 C 104.233 88.765, 103.251 86.960, 100.546 89.949 M 92.098 94.500 C 92.131 97.990, 92.268 98.226, 93.175 96.353 C 93.900 94.853, 93.889 93.646, 93.137 92.353 C 92.242 90.811, 92.067 91.172, 92.098 94.500 M 106 93.378 C 106 94.135, 105.213 95.351, 104.250 96.079 C 102.761 97.206, 102.687 97.194, 103.750 96.002 C 105.834 93.665, 105.153 92.854, 102.542 94.564 C 100.560 95.863, 100.198 96.738, 100.667 99.087 C 101.187 101.685, 100.979 102, 98.742 102 C 97.149 102, 96.058 102.670, 95.753 103.835 C 95.367 105.312, 95.735 105.582, 97.637 105.219 C 100.355 104.699, 100.406 104.911, 98.831 110.170 C 98.038 112.818, 97.400 113.658, 96.846 112.786 C 96.259 111.860, 96.026 111.835, 96.015 112.699 C 96.007 113.359, 97.463 114.980, 99.250 116.302 C 103.689 119.585, 105.459 120.552, 104.660 119.259 C 103.881 117.999, 106.736 116.719, 108.245 117.651 C 108.872 118.039, 109.016 117.835, 108.595 117.155 C 108.203 116.520, 108.359 116, 108.941 116 C 111.147 116, 109.877 112.837, 107.016 111.203 C 103.239 109.048, 102.025 106.552, 105.256 107.589 C 110.791 109.364, 113.920 109.752, 113.712 108.636 C 113.595 108.011, 114.082 107.619, 114.793 107.764 C 115.827 107.976, 115.844 107.576, 114.879 105.764 C 113.856 103.844, 113.887 103.677, 115.086 104.665 C 116.255 105.628, 116.500 105.254, 116.500 102.510 C 116.500 100.685, 116.126 99.422, 115.669 99.705 C 115.211 99.987, 114.986 99.290, 115.169 98.155 C 115.539 95.845, 115.458 95.806, 112.102 96.684 C 109.826 97.279, 109.798 97.379, 111.548 98.659 C 113.081 99.780, 113.166 100.218, 112.050 101.254 C 111.255 101.991, 110.966 102.036, 111.342 101.363 C 111.692 100.738, 111.317 99.678, 110.510 99.008 C 109.422 98.105, 109.304 97.300, 110.056 95.895 C 110.807 94.493, 110.736 93.996, 109.785 93.985 C 108.882 93.974, 108.945 93.682, 110 93 C 111.169 92.245, 110.893 92.027, 108.750 92.015 C 107.073 92.006, 106 92.538, 106 93.378 M 95.136 97.167 C 95.061 98.083, 94.438 99.060, 93.750 99.338 C 92.789 99.726, 92.802 99.860, 93.809 99.921 C 94.558 99.966, 94.816 100.535, 94.412 101.250 C 93.880 102.193, 94.009 102.222, 94.938 101.365 C 95.615 100.741, 95.968 99.166, 95.721 97.865 C 95.474 96.564, 95.211 96.250, 95.136 97.167 M 107 96.833 C 107 97.475, 106.494 97.888, 105.875 97.750 C 105.256 97.612, 104.544 98.063, 104.292 98.750 C 104.040 99.438, 104.560 100, 105.448 100 C 107.144 100, 108.693 97.359, 107.624 96.290 C 107.281 95.947, 107 96.192, 107 96.833 M 111.349 114.185 C 111.645 115.112, 111.352 116.049, 110.696 116.268 C 110.003 116.499, 110.402 117.145, 111.653 117.814 C 113.365 118.730, 113.911 118.673, 114.349 117.533 C 114.732 116.534, 114.411 116.289, 113.285 116.721 C 112.366 117.074, 111.929 116.924, 112.270 116.372 C 112.599 115.840, 112.405 114.751, 111.840 113.952 C 110.990 112.752, 110.905 112.792, 111.349 114.185 M 179.750 115.662 C 180.438 115.940, 181.563 115.940, 182.250 115.662 C 182.938 115.385, 182.375 115.158, 181 115.158 C 179.625 115.158, 179.063 115.385, 179.750 115.662 M 93.585 117.138 C 94.056 117.899, 92.719 118.395, 90.853 118.153 C 90.496 118.106, 90.440 119.065, 90.728 120.284 C 91.246 122.482, 91.236 122.484, 89.551 120.500 C 88.616 119.400, 88.166 119.111, 88.551 119.857 C 89.078 120.879, 88.719 121.046, 87.100 120.532 C 85.917 120.156, 85.014 120.221, 85.093 120.675 C 85.172 121.129, 85.177 122.400, 85.103 123.500 C 84.999 125.059, 84.775 125.192, 84.086 124.106 C 82.092 120.956, 71.200 130.726, 66.612 139.779 C 65.168 142.629, 64.479 145.157, 64.943 145.908 C 65.478 146.773, 66.483 145.624, 68.061 142.342 C 70.879 136.485, 79.056 128.408, 85.619 125 C 92.821 121.260, 99.517 117.017, 98.446 116.872 C 94.386 116.325, 93.125 116.393, 93.585 117.138 M 176.763 117.420 C 177.074 117.926, 176.585 118.055, 175.676 117.706 C 174.679 117.323, 174.118 117.535, 174.262 118.241 C 174.393 118.883, 173.938 119.430, 173.250 119.455 C 171.298 119.526, 171.664 121.274, 174.189 123.938 C 175.460 125.280, 175.868 125.998, 175.095 125.534 C 174.163 124.974, 173.922 125.065, 174.378 125.802 C 174.755 126.413, 175.798 126.631, 176.696 126.286 C 177.882 125.831, 178.126 126.048, 177.590 127.080 C 177.184 127.861, 177.492 127.719, 178.275 126.766 C 179.057 125.812, 180.063 125.362, 180.509 125.766 C 180.955 126.169, 181.022 125.978, 180.657 125.340 C 179.171 122.743, 180.973 121.483, 185.641 121.855 C 189.178 122.136, 190.072 121.925, 189.471 120.953 C 188.899 120.028, 189.271 119.838, 190.845 120.249 C 192.032 120.560, 192.751 120.405, 192.442 119.907 C 192.134 119.408, 190.671 118.993, 189.191 118.985 C 187.711 118.976, 185.825 118.487, 185 117.898 C 183.806 117.045, 183.979 116.932, 185.849 117.346 C 187.141 117.631, 187.891 117.557, 187.515 117.182 C 186.469 116.137, 176.116 116.366, 176.763 117.420 M 117.250 117.706 C 114.501 118.235, 114.255 120, 116.930 120 C 117.992 120, 119.058 120.787, 119.298 121.750 C 119.539 122.713, 119.650 122.273, 119.545 120.774 C 119.440 119.275, 119.837 117.848, 120.427 117.603 C 121.717 117.068, 120.330 117.113, 117.250 117.706 M 100.538 118.836 C 101.288 120.296, 95.225 127.257, 93.911 126.445 C 93.486 126.182, 92.880 126.385, 92.564 126.896 C 91.465 128.674, 94.974 127.373, 97.384 125.109 C 99.762 122.875, 99.824 122.869, 100.446 124.829 C 100.795 125.930, 100.838 127.993, 100.540 129.415 C 100.243 130.837, 99.762 133.143, 99.471 134.541 C 99.128 136.187, 98.511 136.831, 97.721 136.369 C 97.049 135.977, 97.382 136.661, 98.460 137.889 C 100.132 139.793, 100.205 140.258, 98.960 141.046 C 98.061 141.614, 97.958 141.975, 98.691 141.985 C 100.652 142.010, 101.262 140.028, 99.853 138.206 C 98.940 137.024, 99.250 137.112, 100.862 138.491 L 103.189 140.481 105.492 137.804 C 106.758 136.332, 108.035 135.368, 108.329 135.662 C 108.623 135.956, 108.216 134.044, 107.424 131.412 C 106.632 128.780, 106.278 125.699, 106.638 124.564 C 107.415 122.116, 107.122 121.642, 104.598 121.256 C 103.552 121.097, 102.056 120.186, 101.274 119.233 C 100.492 118.280, 100.161 118.101, 100.538 118.836 M 122.750 118.689 C 120.450 119.290, 120.528 120.677, 122.934 121.965 C 125.518 123.347, 126 123.274, 126 121.500 C 126 120.675, 125.523 120, 124.941 120 C 124.359 120, 124.160 119.550, 124.500 119 C 124.840 118.450, 124.979 118.052, 124.809 118.116 C 124.639 118.180, 123.713 118.438, 122.750 118.689 M 131.005 120.389 C 131.814 121.428, 132.343 123.287, 132.182 124.520 C 131.976 126.089, 132.977 127.660, 135.514 129.751 C 137.508 131.394, 140.878 135.053, 143.003 137.882 C 145.718 141.494, 147.108 142.649, 147.677 141.762 C 148.858 139.922, 148.766 136.106, 147.546 136.318 C 146.970 136.418, 146.493 135.773, 146.485 134.886 C 146.466 132.890, 144.051 129.850, 143 130.500 C 142.575 130.763, 141.671 130.308, 140.991 129.489 C 140.311 128.670, 140.125 128, 140.578 128 C 141.030 128, 140.843 127.443, 140.162 126.762 C 139.480 126.080, 138.153 125.518, 137.212 125.512 C 136.270 125.505, 135.607 124.954, 135.738 124.286 C 135.885 123.537, 135.343 123.315, 134.324 123.706 C 133.314 124.094, 132.921 123.937, 133.312 123.304 C 133.665 122.734, 132.959 121.420, 131.744 120.384 C 129.579 118.538, 129.564 118.538, 131.005 120.389 M 184.750 120.662 C 185.438 120.940, 186.563 120.940, 187.250 120.662 C 187.938 120.385, 187.375 120.158, 186 120.158 C 184.625 120.158, 184.063 120.385, 184.750 120.662 M 169.885 122.691 C 169.821 123.136, 169.709 124.174, 169.635 124.997 C 169.561 125.821, 168.825 126.496, 168 126.497 C 167.175 126.499, 166.444 127.063, 166.375 127.750 C 166.306 128.438, 166.194 129.525, 166.125 130.167 C 166.056 130.808, 165.704 131.037, 165.342 130.675 C 164.343 129.676, 162.051 131.968, 162.605 133.413 C 162.872 134.110, 162.283 135.314, 161.296 136.090 C 159.622 137.404, 159.601 137.364, 160.983 135.500 C 162.451 133.520, 162.443 133.519, 160.233 135.405 C 157.945 137.357, 157.210 138.606, 159 137.500 C 161.300 136.078, 159.559 138.925, 154.107 145.500 C 150.877 149.395, 147.574 152.439, 146.662 152.363 C 145.760 152.288, 145.268 152.625, 145.570 153.113 C 146.847 155.180, 150.458 153.680, 155.356 149.048 C 161.340 143.389, 167.683 135, 165.979 135 C 165.349 135, 165.030 134.438, 165.270 133.750 C 165.511 133.063, 166.537 132.653, 167.550 132.839 C 169.094 133.123, 169.188 132.932, 168.132 131.659 C 167.093 130.407, 167.191 129.974, 168.685 129.200 C 169.683 128.683, 171.326 128.392, 172.336 128.554 C 174.065 128.831, 174.074 128.739, 172.488 126.987 C 171.562 125.964, 171.081 124.679, 171.418 124.132 C 171.756 123.585, 171.575 122.856, 171.016 122.510 C 170.457 122.165, 169.948 122.246, 169.885 122.691 M 85.667 127.667 C 85.300 128.033, 85 128.798, 85 129.367 C 85 129.993, 85.466 129.934, 86.183 129.217 C 86.834 128.566, 87.134 127.801, 86.850 127.517 C 86.566 127.233, 86.033 127.300, 85.667 127.667 M 174.553 129.915 C 174.231 130.436, 174.394 131.125, 174.915 131.447 C 175.436 131.769, 176.125 131.606, 176.447 131.085 C 176.769 130.564, 176.606 129.875, 176.085 129.553 C 175.564 129.231, 174.875 129.394, 174.553 129.915 M 86.667 130.667 C 86.300 131.033, 86 131.798, 86 132.367 C 86 132.993, 86.466 132.934, 87.183 132.217 C 87.834 131.566, 88.134 130.801, 87.850 130.517 C 87.566 130.232, 87.033 130.300, 86.667 130.667 M 114.333 131.700 C 114.333 133.368, 114.804 133.338, 116.581 131.561 C 117.833 130.310, 117.780 130.141, 116.177 130.262 C 115.163 130.338, 114.333 130.985, 114.333 131.700 M 125.158 132 C 125.158 133.375, 125.385 133.938, 125.662 133.250 C 125.940 132.563, 125.940 131.438, 125.662 130.750 C 125.385 130.063, 125.158 130.625, 125.158 132 M 23.500 132.465 C 26.115 133.724, 26.202 134.533, 23.676 134.094 C 23.222 134.015, 23.180 134.482, 23.582 135.133 C 24.124 136.009, 23.119 136.151, 19.700 135.682 C 17.163 135.335, 14.842 135.446, 14.543 135.930 C 14.244 136.414, 17.594 136.735, 21.988 136.643 C 29.544 136.485, 30.081 136.618, 31.920 139.106 C 33.368 141.064, 33.575 142.025, 32.732 142.868 C 32.109 143.491, 31.831 144, 32.113 144 C 32.395 144, 33.948 142.545, 35.563 140.766 C 38.023 138.056, 38.094 137.852, 36 139.508 L 33.500 141.486 35.750 138.928 C 36.987 137.522, 38 135.853, 38 135.221 C 38 133.305, 34.231 131.907, 29.742 132.159 C 27.409 132.290, 24.375 132.087, 23 131.708 C 21.020 131.163, 21.124 131.320, 23.500 132.465 M 131.158 133 C 131.158 134.375, 131.385 134.938, 131.662 134.250 C 131.940 133.563, 131.940 132.438, 131.662 131.750 C 131.385 131.063, 131.158 131.625, 131.158 133 M 88.589 133.856 C 88.298 134.326, 89.172 134.499, 90.530 134.239 C 91.889 133.979, 93 133.594, 93 133.383 C 93 132.610, 89.101 133.027, 88.589 133.856 M 92.136 136.691 C 91.979 139.219, 93.520 140.585, 94.585 138.862 C 95.020 138.158, 94.877 137.958, 94.226 138.360 C 93.601 138.746, 92.959 138.071, 92.708 136.765 C 92.276 134.517, 92.271 134.516, 92.136 136.691 M 38.882 136.550 C 38.816 137.072, 38.839 137.905, 38.931 138.399 C 39.024 138.894, 38.778 140.019, 38.386 140.899 C 37.994 141.780, 37.634 142.950, 37.586 143.500 C 37.539 144.050, 36.938 144.556, 36.250 144.625 C 32.586 144.991, 32.509 145.037, 33.985 145.969 C 35.039 146.636, 36.124 146.292, 37.731 144.783 C 38.974 143.615, 39.785 142.451, 39.531 142.198 C 39.278 141.944, 39.546 140.848, 40.128 139.761 C 40.878 138.360, 40.867 137.467, 40.093 136.693 C 39.480 136.080, 38.948 136.018, 38.882 136.550 M 22.500 138 C 18.584 138.537, 18.219 138.720, 20.817 138.843 C 23.478 138.969, 24.030 139.347, 23.604 140.750 C 16.820 163.120, 20.752 189.958, 34.057 212.095 C 39.921 221.852, 44.853 227.817, 59.714 243.129 C 68.395 252.074, 71 255.376, 71 257.438 C 71 259.011, 70.577 259.857, 69.976 259.485 C 69.305 259.071, 69.161 260.342, 69.557 263.176 C 70.014 266.445, 69.894 267.134, 69.067 266 C 68.240 264.867, 68.117 265.602, 68.567 269 C 69.016 272.398, 68.893 273.133, 68.067 272 C 67.240 270.867, 67.117 271.602, 67.567 275 C 68.016 278.398, 67.893 279.133, 67.067 278 C 66.240 276.867, 66.117 277.602, 66.567 281 C 67.016 284.398, 66.893 285.133, 66.067 284 C 65.240 282.867, 65.117 283.602, 65.567 287 C 66.016 290.398, 65.893 291.133, 65.067 290 C 64.240 288.867, 64.117 289.602, 64.567 293 C 65.016 296.398, 64.893 297.133, 64.067 296 C 63.240 294.867, 63.117 295.602, 63.567 299 C 64.010 302.351, 63.887 303.117, 63.088 302 C 62.291 300.887, 62.162 301.791, 62.589 305.500 C 62.995 309.027, 62.866 310.073, 62.151 309.052 C 61.427 308.018, 61.283 308.877, 61.648 312.052 C 62.029 315.366, 61.888 316.118, 61.095 315 C 60.340 313.936, 60.026 313.873, 60.015 314.781 C 59.997 316.351, 60.999 316.678, 68 317.390 C 71.697 317.766, 73.008 317.635, 72 316.990 C 70.674 316.142, 70.677 316.029, 72.030 316.015 C 73.175 316.004, 77.940 301.824, 91.018 259.500 L 108.476 203 115.488 203.079 C 119.345 203.122, 121.926 203.389, 121.225 203.671 C 120.524 203.953, 119.293 205.757, 118.489 207.681 C 117.685 209.605, 115.855 212.572, 114.422 214.275 C 111.907 217.264, 111.841 217.672, 112.510 226.121 L 113.202 234.871 109.536 240.811 C 107.520 244.077, 105.502 248.944, 105.053 251.625 C 104.244 256.449, 104.233 256.421, 104.050 249 C 103.829 240.067, 103.596 240.461, 98.128 259 C 95.937 266.425, 93.862 273.228, 93.516 274.119 C 93.108 275.169, 93.522 275.943, 94.693 276.322 C 95.687 276.644, 97.963 278.111, 99.750 279.582 L 103 282.256 103.163 271.878 C 103.289 263.844, 103.459 262.696, 103.913 266.794 L 104.500 272.088 109.846 266.002 C 114.159 261.092, 115.464 260.140, 116.596 261.080 C 118.515 262.672, 118.425 263.072, 115.018 268.100 C 113.378 270.520, 112.028 273.701, 112.018 275.168 C 112.006 276.905, 110.603 279.291, 108 282 L 104 286.163 104 300.408 L 104 314.654 107.250 314.256 C 109.761 313.949, 110.159 314.102, 109 314.928 C 107.875 315.730, 108.374 315.833, 111 315.341 C 115.299 314.536, 116.194 313.373, 115.517 309.470 C 115.180 307.524, 115.709 305.032, 116.996 302.508 C 120.005 296.607, 119.715 295.012, 115.995 297.003 C 114.786 297.650, 113.908 297.660, 113.520 297.032 C 112.809 295.881, 114.520 292.395, 119.227 285.403 C 121.985 281.307, 123.092 278.068, 124.868 268.903 C 126.083 262.631, 127.311 256.308, 127.596 254.852 C 128.009 252.741, 127.747 252.233, 126.307 252.352 C 124.363 252.511, 124.199 251.041, 125.513 245.250 C 126.111 242.614, 125.943 242, 124.625 242 C 122.024 242, 122.696 238.751, 127.040 230.331 C 132.047 220.627, 133.377 212.996, 132.453 199.275 C 131.950 191.806, 131.340 188.706, 130.190 187.775 C 128.886 186.719, 128.761 186.741, 129.464 187.906 C 130.152 189.048, 129.671 189.189, 126.905 188.657 C 124.329 188.162, 123.865 188.265, 125 189.082 C 126.121 189.889, 125.363 190.011, 122 189.567 C 118.621 189.120, 117.874 189.242, 119 190.058 C 120.129 190.875, 119.197 191.038, 115.235 190.717 C 110.177 190.307, 109.833 190.442, 106.485 194.148 C 104.568 196.270, 102.993 199.017, 102.985 200.253 C 102.972 202.078, 102.785 202.218, 101.986 201 C 101.288 199.935, 101.172 200.515, 101.586 203 C 102.038 205.715, 101.918 206.164, 101.054 205 C 100.166 203.805, 100.059 204.019, 100.529 206.054 C 101.360 209.654, 97.422 219.570, 93.439 223.907 C 90.218 227.415, 89.974 227.497, 83.094 227.361 L 76.049 227.223 75.443 230.861 C 74.483 236.618, 73.944 236.973, 74.474 231.500 C 74.943 226.660, 74.855 226.452, 71.729 225 C 68.569 223.532, 68.501 223.360, 68.533 217 C 68.551 213.425, 68.939 208.363, 69.396 205.750 C 70.171 201.320, 70.085 201, 68.114 201 C 65.580 201, 65.475 199.917, 67.605 195.796 C 71.338 188.577, 74.362 185.491, 77.500 185.696 C 80.288 185.878, 80.323 185.840, 78.005 185.152 C 76.633 184.745, 75.352 183.591, 75.159 182.588 C 74.966 181.584, 75.188 180.995, 75.654 181.278 C 76.119 181.562, 76.625 179.215, 76.777 176.063 C 77.097 169.466, 75.614 168.535, 71.768 172.917 L 69.500 175.500 72.500 173 L 75.500 170.500 73 173.342 C 70.088 176.652, 66.332 179.027, 67.453 176.850 C 67.836 176.107, 67.519 176.266, 66.749 177.202 C 65.836 178.312, 64.506 178.717, 62.925 178.365 C 60.944 177.925, 60.775 178.037, 62 178.979 C 63.210 179.908, 63.017 180.002, 61 179.465 C 56.271 178.207, 50.618 173.484, 44.315 165.527 C 38.062 157.632, 36.368 154.503, 39.750 157.097 C 40.712 157.835, 40.409 157.216, 39.076 155.720 C 36.389 152.706, 34.971 152, 37.128 154.750 C 38.379 156.346, 38.342 156.376, 36.704 155.090 C 35.717 154.314, 35.135 153.091, 35.411 152.372 C 35.687 151.653, 35.413 150.755, 34.802 150.378 C 34.087 149.936, 33.955 150.191, 34.432 151.095 C 34.840 151.868, 34.248 151.375, 33.117 150 C 31.986 148.625, 31.291 146.750, 31.571 145.834 C 31.852 144.918, 31.633 143.891, 31.084 143.552 C 30.536 143.213, 30.343 142.270, 30.656 141.455 C 31.214 140.001, 29.359 136.849, 28.128 137.157 C 27.782 137.244, 25.250 137.623, 22.500 138 M 105.431 139.112 C 105.053 139.723, 105.364 140.616, 106.122 141.096 C 108.305 142.479, 109.686 142.078, 107.766 140.619 C 106.812 139.895, 106.324 139.009, 106.682 138.651 C 107.040 138.293, 107.060 138, 106.726 138 C 106.391 138, 105.809 138.500, 105.431 139.112 M 41 139.969 C 41 140.501, 41.675 140.678, 42.500 140.362 C 43.474 139.988, 44 140.387, 44 141.500 C 44 142.717, 43.496 143.021, 42.262 142.547 C 40.812 141.991, 40.853 142.197, 42.512 143.790 C 44.010 145.229, 44.580 145.367, 44.823 144.350 C 45.171 142.898, 46.263 142.596, 47.325 143.658 C 47.687 144.020, 47.521 144.872, 46.958 145.551 C 45.147 147.733, 59.109 158.548, 65.025 159.547 C 68.096 160.065, 68.267 159.988, 66.500 158.883 C 65.400 158.195, 59.708 153.440, 53.850 148.316 C 43.801 139.525, 41 137.705, 41 139.969 M 95.500 140 C 95.160 140.550, 95.332 141, 95.882 141 C 96.432 141, 97.160 140.550, 97.500 140 C 97.840 139.450, 97.668 139, 97.118 139 C 96.568 139, 95.840 139.450, 95.500 140 M 154.757 141.477 C 153.249 142.805, 152.349 144.082, 152.757 144.316 C 153.166 144.549, 154.547 143.449, 155.826 141.870 C 158.646 138.390, 158.377 138.291, 154.757 141.477 M 87 144.872 C 84.370 145.344, 83.421 146.059, 83.180 147.750 C 82.829 150.226, 83.748 150.433, 90.301 149.350 C 93.439 148.831, 94.050 148.355, 93.801 146.621 C 93.466 144.285, 92.152 143.947, 87 144.872 M 103.641 146.210 C 103.303 147.470, 103.066 149.400, 103.114 150.500 C 103.162 151.600, 103.613 150.745, 104.116 148.599 C 105.091 144.444, 104.674 142.351, 103.641 146.210 M 168.490 155.016 C 168.144 155.575, 167.518 155.820, 167.098 155.560 C 166.677 155.301, 166.333 155.745, 166.333 156.548 C 166.333 157.756, 166.650 157.722, 168.167 156.349 C 169.988 154.701, 170.404 154, 169.559 154 C 169.316 154, 168.835 154.457, 168.490 155.016 M 34 156.477 C 34 158.895, 47.779 177.554, 48.807 176.527 C 49.117 176.217, 47.756 174.284, 45.783 172.232 C 43.811 170.179, 40.352 165.618, 38.098 162.095 C 35.844 158.572, 34 156.044, 34 156.477 M 104.720 157.332 C 104.324 158.339, 104.029 160.139, 104.063 161.332 C 104.124 163.389, 104.177 163.375, 105.101 161.062 C 105.636 159.722, 105.932 157.922, 105.758 157.062 C 105.497 155.777, 105.313 155.825, 104.720 157.332 M 260.736 159.598 C 259.890 160.444, 261.012 163, 262.229 163 C 262.846 163, 262.788 162.449, 262.081 161.597 C 261.187 160.520, 261.216 160.074, 262.208 159.676 C 262.919 159.391, 263.012 159.122, 262.417 159.079 C 261.821 159.036, 261.064 159.269, 260.736 159.598 M 135.918 160.250 C 135.873 160.387, 135.660 161.850, 135.446 163.500 C 135.091 166.233, 135.142 166.294, 136.020 164.186 C 136.637 162.702, 137.435 162.143, 138.242 162.628 C 139.113 163.151, 139.077 162.863, 138.128 161.692 C 136.854 160.122, 136.118 159.642, 135.918 160.250 M 251.750 162.662 C 252.438 162.940, 253.563 162.940, 254.250 162.662 C 254.938 162.385, 254.375 162.158, 253 162.158 C 251.625 162.158, 251.063 162.385, 251.750 162.662 M 165.500 164 C 165.160 164.550, 165.212 165, 165.615 165 C 166.019 165, 165.305 166.111, 164.029 167.469 C 162.753 168.827, 161.255 169.658, 160.700 169.315 C 160.103 168.946, 160.003 169.196, 160.455 169.927 C 161.383 171.429, 166.667 166.788, 166.667 164.473 C 166.667 162.747, 166.353 162.620, 165.500 164 M 140.057 165.569 C 140.701 166.344, 141.656 166.713, 142.180 166.389 C 143.344 165.669, 142.480 164.688, 140.415 164.385 C 139.211 164.208, 139.135 164.458, 140.057 165.569 M 107.336 166.917 C 107.464 168.798, 108.093 169.359, 110.173 169.447 C 111.643 169.509, 112.605 169.169, 112.310 168.693 C 112.015 168.216, 110.950 168.041, 109.943 168.305 C 108.667 168.638, 107.968 168.133, 107.642 166.642 C 107.248 164.845, 107.199 164.889, 107.336 166.917 M 170.543 166.931 C 170.226 167.443, 170.494 168.187, 171.138 168.585 C 171.836 169.017, 172.042 168.877, 171.648 168.240 C 171.285 167.652, 171.553 166.943, 172.244 166.664 C 173.143 166.302, 173.161 166.135, 172.309 166.079 C 171.654 166.036, 170.859 166.419, 170.543 166.931 M 236.923 167.250 C 236.384 169.014, 236.290 171.043, 236.771 170.563 C 237.500 169.833, 238.010 167, 237.412 167 C 237.185 167, 236.966 167.113, 236.923 167.250 M 261 169.003 C 261 170.024, 262.922 171.356, 264.806 171.642 C 265.748 171.784, 265.820 171.488, 265.064 170.578 C 264.489 169.884, 264.219 169.114, 264.466 168.868 C 264.712 168.621, 264.033 168.353, 262.957 168.272 C 261.881 168.191, 261 168.520, 261 169.003 M 276.015 168.750 C 276.024 169.162, 276.454 170.169, 276.971 170.987 C 277.710 172.156, 277.875 171.996, 277.743 170.237 C 277.594 168.255, 275.977 166.863, 276.015 168.750 M 105.158 171 C 105.158 172.375, 105.385 172.938, 105.662 172.250 C 105.940 171.563, 105.940 170.438, 105.662 169.750 C 105.385 169.063, 105.158 169.625, 105.158 171 M 168.324 170.250 C 167.888 170.938, 167.524 171.950, 167.515 172.500 C 167.507 173.050, 166.863 173.500, 166.083 173.500 C 165.304 173.500, 164.550 174.074, 164.408 174.775 C 164.266 175.476, 164.380 175.586, 164.660 175.019 C 164.941 174.452, 165.531 174.210, 165.972 174.483 C 166.926 175.072, 169.327 172.383, 169.618 170.399 C 169.872 168.665, 169.367 168.607, 168.324 170.250 M 242.694 169.639 C 240.693 171.641, 247.487 173.073, 249.550 171.085 C 250.072 170.581, 251.625 169.968, 253 169.721 C 254.793 169.399, 254.423 169.234, 251.691 169.136 C 249.377 169.053, 248.124 169.392, 248.500 170 C 248.862 170.585, 247.824 171, 246 171 C 244.176 171, 243.138 170.585, 243.500 170 C 244.191 168.882, 243.679 168.654, 242.694 169.639 M 150.500 171 C 150.160 171.550, 150.332 172, 150.882 172 C 151.432 172, 152.160 171.550, 152.500 171 C 152.840 170.450, 152.668 170, 152.118 170 C 151.568 170, 150.840 170.450, 150.500 171 M 135.684 172.382 C 135.308 173.362, 135.029 174.914, 135.063 175.832 C 135.105 176.937, 135.453 176.685, 136.092 175.086 C 136.623 173.758, 136.902 172.206, 136.712 171.636 C 136.522 171.067, 136.059 171.403, 135.684 172.382 M 237.437 174.077 C 235.822 175.770, 234.950 177.066, 235.500 176.959 C 236.050 176.851, 236.725 176.851, 237 176.958 C 238.903 177.700, 241 177.676, 241 176.912 C 241 176.410, 240.523 176, 239.941 176 C 239.344 176, 239.223 175.455, 239.663 174.750 C 240.420 173.538, 241.053 171, 240.599 171 C 240.475 171, 239.052 172.385, 237.437 174.077 M 274.241 171.498 C 274.649 171.948, 274.481 172.920, 273.869 173.658 C 273.256 174.396, 273.035 175.056, 273.378 175.125 C 273.720 175.194, 274.337 175.313, 274.750 175.390 C 275.163 175.467, 276.175 175.961, 277 176.487 C 278.605 177.511, 281.522 178.189, 280.675 177.342 C 280.395 177.062, 279.951 176.983, 279.688 177.167 C 278.881 177.729, 275.015 173.785, 275.540 172.935 C 275.811 172.497, 275.463 171.810, 274.766 171.409 C 274.070 171.008, 273.834 171.048, 274.241 171.498 M 261.438 172.900 C 261.830 173.533, 261.405 174, 260.437 174 C 259.143 174, 259.012 174.310, 259.869 175.342 C 260.481 176.080, 260.762 176.980, 260.491 177.342 C 260.221 177.704, 260.337 177.737, 260.750 177.417 C 261.163 177.096, 261.500 176.346, 261.500 175.750 C 261.500 175.154, 262.125 174.458, 262.889 174.204 C 263.653 173.949, 264.011 174.174, 263.683 174.704 C 263.356 175.233, 263.723 175.667, 264.500 175.667 C 266.299 175.667, 265.488 174.332, 262.824 172.906 C 261.330 172.106, 260.947 172.105, 261.438 172.900 M 266.543 172.931 C 266.226 173.443, 266.494 174.187, 267.138 174.585 C 267.923 175.070, 268.039 174.872, 267.490 173.985 C 266.896 173.023, 267.128 172.835, 268.336 173.299 C 269.251 173.650, 270 173.501, 270 172.969 C 270 171.731, 267.302 171.702, 266.543 172.931 M 230.451 174.079 C 230.198 174.489, 230.655 174.727, 231.466 174.608 C 233.556 174.301, 234.307 173.333, 232.456 173.333 C 231.607 173.333, 230.705 173.669, 230.451 174.079 M 238.074 174.411 C 237.172 175.498, 237.201 175.994, 238.201 176.571 C 238.916 176.983, 239.166 176.952, 238.759 176.502 C 238.351 176.052, 238.519 175.080, 239.131 174.342 C 239.744 173.604, 240.020 173, 239.745 173 C 239.470 173, 238.718 173.635, 238.074 174.411 M 251.351 175.861 C 251.417 177.492, 251.788 178.631, 252.174 178.392 C 252.561 178.153, 252.694 177.007, 252.470 175.844 C 251.838 172.565, 251.216 172.575, 251.351 175.861 M 242.928 176.586 C 242.165 177.506, 242.305 177.778, 243.454 177.610 C 245.717 177.278, 247.479 175.333, 245.517 175.333 C 244.665 175.333, 243.500 175.897, 242.928 176.586 M 254.109 180.387 C 252.304 182.250, 251.250 184.036, 251.768 184.356 C 252.286 184.677, 253.753 183.827, 255.029 182.469 C 256.305 181.111, 256.990 180, 256.552 180 C 256.114 180, 256.315 179.325, 257 178.500 C 259.283 175.749, 257.436 176.955, 254.109 180.387 M 80.345 179.543 C 80.019 180.392, 79.976 181.310, 80.249 181.583 C 80.523 181.856, 80.986 181.161, 81.279 180.040 C 81.903 177.657, 81.210 177.289, 80.345 179.543 M 245.440 179.098 C 244.574 180.498, 246.756 180.999, 247.871 179.656 C 248.699 178.657, 248.594 178.333, 247.440 178.333 C 246.600 178.333, 245.699 178.677, 245.440 179.098 M 106.195 181.500 C 106.215 183.150, 106.439 183.704, 106.693 182.731 C 106.947 181.758, 106.930 180.408, 106.656 179.731 C 106.382 179.054, 106.175 179.850, 106.195 181.500 M 136.720 180.332 C 136.324 181.339, 136.014 182.914, 136.030 183.832 C 136.058 185.320, 136.173 185.308, 137.098 183.719 C 137.668 182.739, 137.978 181.164, 137.788 180.219 C 137.471 178.649, 137.378 178.659, 136.720 180.332 M 287.076 180.727 C 287.823 181.702, 288.561 182.688, 288.717 182.917 C 288.873 183.146, 289 182.631, 289 181.774 C 289 180.916, 288.261 179.931, 287.359 179.584 C 285.930 179.036, 285.893 179.184, 287.076 180.727 M 253.405 182.250 L 251.500 184.500 253.750 182.595 C 255.864 180.805, 256.455 180, 255.655 180 C 255.465 180, 254.453 181.012, 253.405 182.250 M 224.333 182.333 C 224.333 183.067, 224.926 183.667, 225.651 183.667 C 226.635 183.667, 226.689 183.330, 225.862 182.333 C 225.253 181.600, 224.660 181, 224.544 181 C 224.428 181, 224.333 181.600, 224.333 182.333 M 266.729 181.604 C 266.328 182.005, 266 183.023, 266 183.867 C 266 184.992, 266.296 185.104, 267.113 184.288 C 267.724 183.676, 268.053 182.657, 267.842 182.025 C 267.631 181.393, 267.130 181.203, 266.729 181.604 M 273.825 184.674 C 274.251 186.767, 274.503 187.019, 274.794 185.644 C 275.011 184.623, 274.751 183.351, 274.218 182.818 C 273.592 182.192, 273.452 182.849, 273.825 184.674 M 254.405 185.250 C 252.506 187.493, 252.506 187.495, 254.556 185.770 C 256.348 184.263, 256.798 184.226, 258.056 185.484 C 259.114 186.541, 259.901 186.644, 261 185.870 C 262.251 184.987, 262.203 184.907, 260.712 185.389 C 259.633 185.737, 258.699 185.378, 258.355 184.483 C 257.571 182.439, 256.631 182.621, 254.405 185.250 M 269.195 186.500 C 269.215 188.150, 269.439 188.704, 269.693 187.731 C 269.947 186.758, 269.930 185.408, 269.656 184.731 C 269.382 184.054, 269.175 184.850, 269.195 186.500 M 283.624 185.539 C 282.659 188.053, 282.943 188.702, 284.122 186.675 C 284.706 185.671, 284.973 184.639, 284.715 184.382 C 284.458 184.124, 283.966 184.645, 283.624 185.539 M 286.116 185.668 C 286.052 186.311, 285.709 187.661, 285.353 188.668 C 284.851 190.089, 284.984 190.244, 285.947 189.356 C 286.629 188.727, 286.973 187.377, 286.710 186.356 C 286.447 185.335, 286.180 185.026, 286.116 185.668 M 83.013 186.747 C 76.982 187.029, 75.066 187.526, 73.165 189.299 C 71.135 191.193, 67 197.966, 67 199.399 C 67 199.662, 69.138 200.154, 71.750 200.492 C 74.362 200.830, 78.300 201.359, 80.500 201.667 C 82.700 201.976, 84.173 201.887, 83.773 201.470 C 83.373 201.053, 84.385 199.186, 86.023 197.321 C 87.794 195.304, 89 192.808, 89 191.158 C 89 189.064, 89.673 188.120, 91.750 187.299 C 93.751 186.509, 93.955 186.238, 92.500 186.305 C 91.400 186.356, 87.131 186.555, 83.013 186.747 M 263.702 187.667 C 263.984 188.400, 264.343 189, 264.500 189 C 264.657 189, 265.016 188.400, 265.298 187.667 C 265.579 186.933, 265.220 186.333, 264.500 186.333 C 263.780 186.333, 263.421 186.933, 263.702 187.667 M 96 188 C 94.707 188.835, 94.734 188.971, 96.191 188.985 C 97.121 188.993, 98.160 188.550, 98.500 188 C 99.282 186.734, 97.958 186.734, 96 188 M 267.195 189.500 C 267.215 191.150, 267.439 191.704, 267.693 190.731 C 267.947 189.758, 267.930 188.408, 267.656 187.731 C 267.382 187.054, 267.175 187.850, 267.195 189.500 M 138.272 193 C 138.272 195.475, 138.467 196.488, 138.706 195.250 C 138.944 194.012, 138.944 191.988, 138.706 190.750 C 138.467 189.512, 138.272 190.525, 138.272 193 M 288.232 192 C 288.232 193.925, 288.438 194.713, 288.689 193.750 C 288.941 192.787, 288.941 191.213, 288.689 190.250 C 288.438 189.287, 288.232 190.075, 288.232 192 M 242.441 193.502 C 240.530 194.982, 240.531 194.995, 242.500 194.342 C 244.372 193.722, 244.356 193.839, 242.250 196.154 C 241.012 197.515, 240.014 199.050, 240.030 199.564 C 240.047 200.079, 240.525 199.703, 241.092 198.729 C 241.659 197.755, 242.658 197.265, 243.311 197.639 C 243.965 198.014, 244.166 197.952, 243.759 197.502 C 243.351 197.052, 243.519 196.080, 244.131 195.342 C 244.744 194.604, 244.852 193.993, 244.372 193.985 C 243.893 193.976, 244.175 193.533, 245 193 C 245.825 192.467, 246.024 192.024, 245.441 192.015 C 244.859 192.007, 243.509 192.676, 242.441 193.502 M 247.437 192.771 C 247.779 193.112, 248.761 193.494, 249.621 193.621 C 250.480 193.747, 250.904 193.571, 250.563 193.229 C 250.221 192.888, 249.239 192.506, 248.379 192.379 C 247.520 192.253, 247.096 192.429, 247.437 192.771 M 237 194.500 C 237 195.325, 237.436 196, 237.969 196 C 238.501 196, 238.678 195.325, 238.362 194.500 C 238.045 193.675, 237.609 193, 237.393 193 C 237.177 193, 237 193.675, 237 194.500 M 281 196.441 C 281 198.334, 281.346 200.096, 281.768 200.357 C 282.191 200.618, 282.369 199.070, 282.163 196.916 C 281.702 192.080, 281 191.794, 281 196.441 M 70.500 196 C 70.101 196.646, 70.224 197.624, 70.774 198.174 C 71.441 198.841, 72.016 198.783, 72.500 198 C 72.899 197.354, 72.776 196.376, 72.226 195.826 C 71.559 195.159, 70.984 195.217, 70.500 196 M 227.195 197.500 C 227.215 199.150, 227.439 199.704, 227.693 198.731 C 227.947 197.758, 227.930 196.408, 227.656 195.731 C 227.382 195.054, 227.175 195.850, 227.195 197.500 M 235.232 198 C 235.232 199.925, 235.438 200.713, 235.689 199.750 C 235.941 198.787, 235.941 197.213, 235.689 196.250 C 235.438 195.287, 235.232 196.075, 235.232 198 M 285.583 195.866 C 285.152 196.563, 285.070 197.403, 285.400 197.733 C 286.295 198.628, 287.271 197.312, 286.787 195.862 C 286.449 194.846, 286.213 194.846, 285.583 195.866 M 89.882 197.750 C 89.816 198.162, 89.816 198.838, 89.882 199.250 C 90.060 200.377, 88.242 200.152, 87.658 198.975 C 87.379 198.411, 87.266 198.524, 87.408 199.225 C 87.795 201.134, 90.271 200.762, 90.566 198.750 C 90.707 197.787, 90.638 197, 90.412 197 C 90.185 197, 89.947 197.338, 89.882 197.750 M 229 200.559 C 229 201.416, 229.457 201.835, 230.016 201.490 C 230.575 201.144, 230.774 200.443, 230.457 199.931 C 229.600 198.544, 229 198.802, 229 200.559 M 275.351 201.861 C 275.417 203.492, 275.788 204.631, 276.174 204.392 C 276.561 204.153, 276.694 203.007, 276.470 201.844 C 275.838 198.565, 275.216 198.575, 275.351 201.861 M 278.638 200.500 C 278.322 201.325, 278.499 202, 279.031 202 C 279.564 202, 280 201.325, 280 200.500 C 280 199.675, 279.823 199, 279.607 199 C 279.391 199, 278.955 199.675, 278.638 200.500 M 287 199.774 C 287 200.384, 287.457 201.165, 288.016 201.510 C 288.575 201.856, 288.731 202.627, 288.362 203.224 C 287.952 203.887, 288.159 204.020, 288.894 203.565 C 289.825 202.990, 289.811 202.446, 288.832 201.161 C 288.135 200.247, 287.439 199.313, 287.283 199.083 C 287.127 198.854, 287 199.165, 287 199.774 M 238.272 204 C 238.272 206.475, 238.467 207.488, 238.706 206.250 C 238.944 205.012, 238.944 202.988, 238.706 201.750 C 238.467 200.512, 238.272 201.525, 238.272 204 M 270.372 201.294 C 269.991 201.957, 270.048 202.166, 270.498 201.759 C 270.948 201.351, 271.920 201.519, 272.658 202.131 C 273.502 202.831, 274 202.868, 274 202.229 C 274 200.668, 271.152 199.933, 270.372 201.294 M 91 202 C 88.673 202.745, 88.651 202.808, 90.691 202.900 C 91.896 202.955, 93.160 202.550, 93.500 202 C 93.840 201.450, 93.979 201.045, 93.809 201.100 C 93.639 201.155, 92.375 201.560, 91 202 M 265 201.882 C 265 202.432, 265.450 203.160, 266 203.500 C 266.550 203.840, 267 203.668, 267 203.118 C 267 202.568, 266.550 201.840, 266 201.500 C 265.450 201.160, 265 201.332, 265 201.882 M 243.374 203.467 C 243.065 204.274, 243.004 205.511, 243.240 206.217 C 243.476 206.923, 243.906 206.262, 244.196 204.750 C 244.762 201.797, 244.295 201.068, 243.374 203.467 M 70.084 208.042 C 69.465 210.929, 69.135 213.468, 69.350 213.683 C 69.565 213.899, 70.812 213.651, 72.121 213.133 C 73.429 212.616, 76.571 211.462, 79.101 210.570 C 82.082 209.519, 84.099 208.077, 84.830 206.474 C 85.935 204.048, 85.872 204, 81.604 204 C 79.209 204, 75.891 203.728, 74.230 203.396 C 71.274 202.805, 71.187 202.903, 70.084 208.042 M 268.087 204.396 C 267.145 205.530, 267.168 205.798, 268.194 205.648 C 269.576 205.445, 270.467 204.133, 269.726 203.393 C 269.483 203.150, 268.746 203.601, 268.087 204.396 M 240.571 206.571 C 240.204 208.037, 240.096 209.429, 240.331 209.665 C 240.567 209.900, 241.061 208.894, 241.429 207.429 C 241.796 205.963, 241.904 204.571, 241.669 204.335 C 241.433 204.100, 240.939 205.106, 240.571 206.571 M 260.296 206.250 C 259.167 207.488, 258.374 209.290, 258.534 210.255 C 258.694 211.220, 257.864 212.682, 256.690 213.505 C 255.516 214.327, 255.105 215.067, 255.777 215.150 C 259.008 215.546, 259.497 215.395, 259.499 214 C 259.499 213.175, 259.950 212.387, 260.500 212.250 C 261.050 212.113, 261.500 212.412, 261.500 212.917 C 261.500 213.421, 261.875 214.208, 262.333 214.667 C 262.792 215.125, 263.076 215.050, 262.965 214.500 C 262.854 213.950, 262.851 213.275, 262.958 213 C 263.972 210.398, 263.613 209.189, 261.921 209.515 C 260.888 209.714, 259.795 209.477, 259.493 208.989 C 258.814 207.891, 262.475 205.809, 263.421 206.755 C 263.798 207.131, 263.809 206.665, 263.446 205.720 C 262.624 203.577, 262.755 203.555, 260.296 206.250 M 279.405 207.250 L 277.500 209.500 279.750 207.595 C 281.864 205.805, 282.455 205, 281.655 205 C 281.465 205, 280.453 206.012, 279.405 207.250 M 251.281 208.355 C 250.956 208.879, 251.160 209.019, 251.732 208.666 C 252.865 207.966, 255.336 210.330, 254.425 211.242 C 254.118 211.549, 254.307 212.072, 254.846 212.405 C 255.384 212.737, 255.697 212.220, 255.541 211.255 C 255.385 210.290, 255.629 209.028, 256.085 208.450 C 256.617 207.775, 256.012 207.400, 254.392 207.400 C 253.005 207.400, 251.605 207.830, 251.281 208.355 M 233 208.711 C 233 209.285, 233.787 210.373, 234.750 211.128 C 236.369 212.397, 236.390 212.350, 235.033 210.500 C 234.226 209.400, 233.439 208.313, 233.283 208.083 C 233.127 207.854, 233 208.137, 233 208.711 M 138.195 211.500 C 138.215 213.150, 138.439 213.704, 138.693 212.731 C 138.947 211.758, 138.930 210.408, 138.656 209.731 C 138.382 209.054, 138.175 209.850, 138.195 211.500 M 233 212.500 C 234.866 214.425, 236.617 216, 236.892 216 C 237.167 216, 235.866 214.425, 234 212.500 C 232.134 210.575, 230.383 209, 230.108 209 C 229.833 209, 231.134 210.575, 233 212.500 M 269.601 209.836 C 269.347 210.248, 270.007 210.650, 271.069 210.730 C 273.366 210.903, 273.568 210.432, 271.532 209.651 C 270.725 209.341, 269.856 209.424, 269.601 209.836 M 245.435 211.106 C 244.980 211.841, 245.113 212.048, 245.776 211.638 C 246.373 211.269, 247.144 211.425, 247.490 211.984 C 248.100 212.970, 246.805 213.406, 244.250 213.075 C 243.563 212.985, 243 213.356, 243 213.899 C 243 215.025, 246.913 214.487, 248.219 213.181 C 248.707 212.693, 248.450 211.789, 247.631 211.109 C 246.499 210.170, 246.014 210.169, 245.435 211.106 M 251 211.500 C 250.315 212.325, 250.148 213.014, 250.628 213.032 C 251.107 213.049, 250.626 213.724, 249.559 214.532 C 248.491 215.339, 248.127 216, 248.750 216 C 249.373 216, 250.174 215.528, 250.530 214.951 C 250.967 214.244, 251.719 214.320, 252.839 215.184 C 254.261 216.281, 254.250 216.171, 252.764 214.419 C 251.424 212.841, 251.299 212.101, 252.214 211.186 C 252.866 210.534, 253.140 210, 252.822 210 C 252.505 210, 251.685 210.675, 251 211.500 M 280.451 211.079 C 280.198 211.489, 280.655 211.727, 281.466 211.608 C 283.556 211.301, 284.307 210.333, 282.456 210.333 C 281.607 210.333, 280.705 210.669, 280.451 211.079 M 267.074 215.411 C 266.172 216.498, 266.201 216.994, 267.201 217.571 C 267.916 217.983, 268.166 217.952, 267.759 217.502 C 267.351 217.052, 267.519 216.080, 268.131 215.342 C 268.744 214.604, 269.020 214, 268.745 214 C 268.470 214, 267.718 214.635, 267.074 215.411 M 269.926 215.250 C 269.060 218.163, 269.308 219.904, 270.663 220.424 C 271.874 220.889, 272.027 220.725, 271.270 219.773 C 270.713 219.073, 270.384 217.713, 270.540 216.750 C 270.762 215.376, 270.256 214.139, 269.926 215.250 M 256.500 218 C 259.249 219.181, 260.828 219.181, 259 218 C 258.175 217.467, 256.825 217.055, 256 217.086 C 255.011 217.122, 255.181 217.433, 256.500 218 M 250 218.986 C 250.825 219.527, 252.588 219.976, 253.917 219.985 C 257.126 220.005, 256.313 219.436, 252 218.645 C 249.538 218.193, 248.945 218.294, 250 218.986 M 265.493 220.002 C 263.855 220.577, 264.014 220.770, 266.528 221.253 C 270.015 221.922, 270.184 221.854, 268.614 220.411 C 267.963 219.813, 266.558 219.629, 265.493 220.002 M 70 222 C 69.175 222.533, 68.950 222.969, 69.500 222.969 C 70.050 222.969, 71.175 222.533, 72 222 C 72.825 221.467, 73.050 221.031, 72.500 221.031 C 71.950 221.031, 70.825 221.467, 70 222 M 137.158 223 C 137.158 224.375, 137.385 224.938, 137.662 224.250 C 137.940 223.563, 137.940 222.438, 137.662 221.750 C 137.385 221.063, 137.158 221.625, 137.158 223 M 254.768 221.725 C 256.565 221.947, 259.265 221.943, 260.768 221.715 C 262.271 221.486, 260.800 221.304, 257.500 221.310 C 254.200 221.315, 252.971 221.502, 254.768 221.725 M 162 223 C 160.718 223.828, 160.754 223.972, 162.250 223.985 C 163.213 223.993, 164 223.550, 164 223 C 164 221.780, 163.887 221.780, 162 223 M 188.812 223.748 C 197.233 223.916, 210.733 223.915, 218.812 223.748 C 226.890 223.580, 220 223.443, 203.500 223.443 C 187 223.444, 180.390 223.581, 188.812 223.748 M 238.264 223.718 C 239.784 223.947, 242.034 223.941, 243.264 223.704 C 244.494 223.467, 243.250 223.279, 240.500 223.286 C 237.750 223.294, 236.744 223.488, 238.264 223.718 M 263.750 223.662 C 264.438 223.940, 265.563 223.940, 266.250 223.662 C 266.938 223.385, 266.375 223.158, 265 223.158 C 263.625 223.158, 263.063 223.385, 263.750 223.662 M 274.750 223.662 C 275.438 223.940, 276.563 223.940, 277.250 223.662 C 277.938 223.385, 277.375 223.158, 276 223.158 C 274.625 223.158, 274.063 223.385, 274.750 223.662 M 73.195 239.500 C 73.215 241.150, 73.439 241.704, 73.693 240.731 C 73.947 239.758, 73.930 238.408, 73.656 237.731 C 73.382 237.054, 73.175 237.850, 73.195 239.500 M 134.563 243.250 C 129.235 268.488, 124.392 296.715, 125.215 297.731 C 126.567 299.399, 149.288 310.500, 155.448 312.502 C 176.335 319.292, 195.953 318.194, 211.899 309.341 C 220.737 304.434, 233.306 291.752, 240.627 280.357 C 243.857 275.328, 249.875 264.654, 254 256.637 L 261.500 242.060 293 241.766 C 310.325 241.604, 281.871 241.365, 229.769 241.235 L 135.038 241 134.563 243.250 M 72.195 245.500 C 72.215 247.150, 72.439 247.704, 72.693 246.731 C 72.947 245.758, 72.930 244.408, 72.656 243.731 C 72.382 243.054, 72.175 243.850, 72.195 245.500 M 71.195 251.500 C 71.215 253.150, 71.439 253.704, 71.693 252.731 C 71.947 251.758, 71.930 250.408, 71.656 249.731 C 71.382 249.054, 71.175 249.850, 71.195 251.500 M 300.426 253.694 C 300.571 254.687, 301.023 255.425, 301.429 255.333 C 302.947 254.990, 303.005 254.249, 301.604 253.087 C 300.430 252.112, 300.210 252.226, 300.426 253.694 M 296.789 256.779 C 295.212 259.450, 295.224 259.591, 297.047 259.729 C 299.499 259.913, 300.205 258.729, 299.225 256.080 C 298.474 254.048, 298.388 254.073, 296.789 256.779 M 303.478 257.913 C 304.565 258.338, 305.501 259.544, 305.557 260.593 C 305.612 261.642, 305.779 272.850, 305.928 285.500 C 306.182 307.191, 306.280 308.244, 307.647 304 C 308.452 301.498, 309.310 293.727, 309.579 286.500 C 309.844 279.350, 310.224 271.527, 310.423 269.115 C 310.675 266.057, 310.488 265.149, 309.806 266.115 C 309.077 267.145, 308.951 266.932, 309.311 265.284 C 309.577 264.065, 309.335 263.165, 308.772 263.284 C 308.210 263.403, 307.523 262.875, 307.245 262.111 C 306.898 261.155, 307.171 260.971, 308.120 261.522 C 308.879 261.962, 308.409 261.125, 307.076 259.661 C 305.742 258.198, 303.942 257.032, 303.076 257.070 C 301.939 257.121, 302.051 257.356, 303.478 257.913 M 76.083 273.583 C 74.296 281.604, 73.027 288.361, 73.264 288.598 C 73.501 288.835, 75.170 282.478, 76.972 274.472 C 78.775 266.466, 80.043 259.710, 79.791 259.458 C 79.539 259.206, 77.871 265.562, 76.083 273.583 M 296.329 262.584 C 295.841 263.857, 295.559 263.906, 294.889 262.834 C 294.403 262.055, 294.261 263.164, 294.547 265.500 C 294.873 268.162, 294.755 268.857, 294.195 267.578 C 293.652 266.337, 293.344 268.643, 293.329 274.078 C 293.306 282.209, 293.329 282.293, 293.985 276.500 C 294.438 272.498, 294.662 275.996, 294.659 287 C 294.656 297.323, 294.429 301.067, 294.051 297 L 293.447 290.500 292.974 296.848 C 292.713 300.339, 292.897 303.440, 293.383 303.739 C 293.881 304.045, 293.957 310.376, 293.557 318.250 C 292.979 329.639, 293.093 332.136, 294.174 331.778 C 297.351 330.724, 301.611 275.306, 299.375 264.125 C 298.700 260.749, 297.304 260.043, 296.329 262.584 M 300.793 271.441 C 301.283 282.479, 299.759 307.281, 297.640 322.750 L 296.372 332 300.042 332 L 303.711 332 304.348 325.250 C 305.157 316.690, 305.174 266.252, 304.370 263.250 C 304.038 262.012, 302.993 261, 302.047 261 C 300.502 261, 300.375 262.055, 300.793 271.441 M 311.300 274 C 311.300 277.025, 311.487 278.262, 311.716 276.750 C 311.945 275.238, 311.945 272.762, 311.716 271.250 C 311.487 269.738, 311.300 270.975, 311.300 274 M 322.553 276.915 C 322.231 277.436, 322.394 278.125, 322.915 278.447 C 323.436 278.769, 324.125 278.606, 324.447 278.085 C 324.769 277.564, 324.606 276.875, 324.085 276.553 C 323.564 276.231, 322.875 276.394, 322.553 276.915 M 318.057 281.107 C 318.930 282.737, 317.458 284.114, 314.500 284.436 C 313.950 284.496, 313.643 285.367, 313.817 286.373 C 313.991 287.378, 313.696 287.930, 313.160 287.599 C 312.586 287.244, 312.418 287.883, 312.751 289.155 C 313.061 290.342, 312.907 291.060, 312.408 290.752 C 311.908 290.443, 311.445 291.161, 311.379 292.345 C 311.312 293.530, 310.105 299.450, 308.696 305.500 C 305.476 319.324, 304.155 332.448, 306.046 331.818 C 306.837 331.554, 308.014 327.464, 309.032 321.441 C 311.200 308.607, 314.531 295.808, 317.344 289.500 C 318.571 286.750, 319.557 283.600, 319.537 282.500 C 319.517 281.400, 319.944 280.182, 320.487 279.794 C 321.030 279.406, 320.502 279.162, 319.313 279.251 C 317.609 279.380, 317.343 279.772, 318.057 281.107 M 281.115 284.219 C 281.046 285.849, 280.499 286.815, 279.750 286.633 C 279.063 286.465, 278.840 286.517, 279.256 286.749 C 279.672 286.981, 279.751 287.594, 279.432 288.110 C 279.113 288.627, 279.447 288.926, 280.176 288.775 C 280.905 288.623, 281.356 289.174, 281.179 290 C 280.966 290.990, 281.189 291.160, 281.834 290.500 C 282.419 289.902, 282.494 287.891, 282.021 285.500 C 281.408 282.401, 281.204 282.113, 281.115 284.219 M 325.409 282.853 C 325.804 283.491, 325.494 284.257, 324.720 284.554 C 323.798 284.908, 323.251 286.882, 323.130 290.289 C 323.029 293.146, 321.608 301.468, 319.973 308.781 C 318.338 316.095, 317 324.311, 317 327.039 C 317 331.333, 317.269 332, 319 332 C 320.491 332, 321.025 331.300, 321.100 329.250 L 321.199 326.500 321.981 329 C 322.452 330.508, 322.617 328.524, 322.396 324 C 322.145 318.863, 322.307 317.288, 322.908 319 C 323.515 320.730, 323.669 319.344, 323.407 314.500 C 323.141 309.587, 323.294 308.246, 323.920 310 C 324.552 311.775, 324.697 310.616, 324.419 306 C 324.134 301.258, 324.277 300.176, 324.948 302 C 325.621 303.830, 325.731 303.027, 325.356 299 C 325.075 295.975, 325.217 294.020, 325.672 294.655 C 326.155 295.327, 326.500 293.802, 326.500 291 C 326.500 288.355, 326.169 286.711, 325.765 287.345 C 325.271 288.122, 325.026 287.993, 325.015 286.950 C 325.007 286.097, 325.489 284.911, 326.087 284.313 C 326.870 283.530, 326.827 283.011, 325.933 282.458 C 325.130 281.962, 324.945 282.101, 325.409 282.853 M 318.781 289 C 315.735 295.236, 311.739 310.270, 309.663 323.303 L 308.260 332.105 311.880 331.803 L 315.500 331.500 316.101 325 C 316.431 321.425, 317.915 313.176, 319.398 306.668 C 321.112 299.149, 321.981 292.770, 321.781 289.168 L 321.468 283.500 318.781 289 M 285.872 286.750 C 284.603 288.369, 284.650 288.390, 286.500 287.033 C 287.600 286.226, 288.688 285.439, 288.917 285.283 C 289.146 285.127, 288.863 285, 288.289 285 C 287.715 285, 286.627 285.788, 285.872 286.750 M 286.663 291.435 C 286.286 292.417, 286.430 292.852, 287.011 292.493 C 287.555 292.157, 288 292.359, 288 292.941 C 288 293.523, 287.621 294, 287.158 294 C 286.696 294, 287.391 297.938, 288.704 302.750 C 292.828 317.861, 292.981 318.180, 292.434 310.500 C 291.688 300.026, 291.559 299.154, 290.822 299.610 C 289.983 300.129, 288.692 296.308, 289.348 295.246 C 289.610 294.822, 289.257 293.415, 288.564 292.120 C 287.486 290.104, 287.212 290.006, 286.663 291.435 M 281.116 294.809 C 281.052 295.529, 280.663 295.913, 280.250 295.662 C 279.837 295.412, 279.469 297.931, 279.432 301.261 C 279.387 305.219, 279.645 306.655, 280.177 305.408 C 280.641 304.322, 280.836 307.810, 280.630 313.500 C 280.395 320.011, 280.514 321.756, 280.971 318.500 C 281.581 314.164, 281.696 314.729, 281.837 322.750 C 281.969 330.233, 282.287 332, 283.500 332 C 285.342 332, 285.343 332.352, 283.463 312.627 C 281.946 296.714, 281.349 292.181, 281.116 294.809 M 283.543 301 C 283.824 305.125, 284.573 313.788, 285.207 320.250 C 286.215 330.525, 286.588 332, 288.180 332 C 290.531 332, 290.516 331.812, 286.450 311 C 283.654 296.686, 283.125 294.865, 283.543 301 M 285.492 298.500 C 286.823 307.070, 291.244 330.556, 291.595 330.917 C 291.818 331.146, 292 329.192, 292 326.574 C 292 320.807, 288.475 302.995, 286.472 298.643 L 285.026 295.500 285.492 298.500 M 102.336 313 C 102.336 317.125, 102.513 318.813, 102.728 316.750 C 102.944 314.688, 102.944 311.313, 102.728 309.250 C 102.513 307.188, 102.336 308.875, 102.336 313 M 114.015 317.198 C 114.004 318.498, 112.887 318.989, 109.250 319.293 L 104.500 319.690 109.726 319.595 C 113.582 319.525, 115.060 319.893, 115.360 321 C 115.620 321.957, 115.804 321.775, 115.869 320.500 C 115.924 319.400, 115.533 317.825, 115 317 C 114.165 315.709, 114.028 315.736, 114.015 317.198 M 118.564 318.694 C 118.196 319.654, 118.214 320.119, 118.605 319.728 C 118.996 319.337, 119.867 319.475, 120.541 320.034 C 121.415 320.759, 121.959 320.550, 122.436 319.306 C 122.804 318.346, 122.786 317.881, 122.395 318.272 C 122.004 318.663, 121.133 318.525, 120.459 317.966 C 119.585 317.241, 119.041 317.450, 118.564 318.694 M 61.475 318.733 C 62.561 319.008, 64.061 319.968, 64.807 320.867 C 66.042 322.354, 66.111 322.336, 65.582 320.668 C 65.262 319.661, 65 318.648, 65 318.418 C 65 318.188, 63.763 318.052, 62.250 318.116 C 60.172 318.204, 59.983 318.354, 61.475 318.733 M 53.288 323.101 C 54.491 323.802, 55.961 323.818, 57.788 323.150 C 60.291 322.234, 60.154 322.154, 56 322.109 C 52.418 322.071, 51.865 322.273, 53.288 323.101 M 71.750 322.662 C 72.438 322.940, 73.563 322.940, 74.250 322.662 C 74.938 322.385, 74.375 322.158, 73 322.158 C 71.625 322.158, 71.063 322.385, 71.750 322.662 M 125 322.941 C 125 323.459, 125.375 324.114, 125.833 324.397 C 126.292 324.680, 126.667 324.257, 126.667 323.456 C 126.667 322.655, 126.292 322, 125.833 322 C 125.375 322, 125 322.423, 125 322.941 M 118.446 324.088 C 118.136 324.589, 119.371 325.007, 121.191 325.015 C 123.802 325.027, 124.183 325.255, 123 326.091 C 122.007 326.794, 121.947 327.034, 122.825 326.801 C 123.554 326.608, 124.108 326.011, 124.056 325.475 C 123.927 324.139, 119.145 322.956, 118.446 324.088 M 51 327.789 C 51 328.224, 52.237 328.561, 53.750 328.539 C 55.518 328.514, 56.402 328.973, 56.225 329.824 C 56.074 330.553, 56.433 330.850, 57.024 330.485 C 58.706 329.445, 56.148 327, 53.378 327 C 52.070 327, 51 327.355, 51 327.789 M 100 329.945 C 100 331.547, 99.160 331.957, 95.250 332.265 L 90.500 332.640 95.750 332.820 C 100.731 332.991, 101 332.872, 101 330.500 C 101 329.125, 100.775 328, 100.500 328 C 100.225 328, 100 328.875, 100 329.945 M 132.296 331.018 C 134.732 332.934, 136.069 333.022, 158.681 332.749 L 182.500 332.462 158.372 332.231 C 138.345 332.039, 134.033 331.745, 133 330.500 C 132.315 329.675, 131.300 329, 130.743 329 C 130.186 329, 130.885 329.908, 132.296 331.018 M 51 332.409 C 51 332.599, 51.675 333.315, 52.500 334 C 53.365 334.718, 54 334.815, 54 334.229 C 54 333.671, 53.325 332.955, 52.500 332.638 C 51.675 332.322, 51 332.219, 51 332.409 M 73 332.563 C 76.508 333.337, 82.794 333.475, 82.357 332.768 C 82.096 332.346, 79.546 332.052, 76.691 332.116 C 73.836 332.180, 72.175 332.381, 73 332.563 M 207 332.713 C 238.595 333.416, 265.770 333.433, 265.347 332.750 C 265.091 332.337, 249.046 332.098, 229.691 332.217 C 210.336 332.337, 200.125 332.560, 207 332.713 M 324 333 L 321.500 333.801 324.250 333.900 C 325.762 333.955, 327 333.550, 327 333 C 327 332.450, 326.887 332.045, 326.750 332.100 C 326.613 332.155, 325.375 332.560, 324 333 M 277.750 333.662 C 278.438 333.940, 279.563 333.940, 280.250 333.662 C 280.938 333.385, 280.375 333.158, 279 333.158 C 277.625 333.158, 277.063 333.385, 277.750 333.662 M 310.250 333.689 C 311.212 333.941, 312.788 333.941, 313.750 333.689 C 314.712 333.438, 313.925 333.232, 312 333.232 C 310.075 333.232, 309.288 333.438, 310.250 333.689" stroke="none" fill="#f1c738" fill-rule="evenodd"/></svg>