<svg xmlns="http://www.w3.org/2000/svg" fill="none" viewBox="0 0 24 24" id="Alarm-Bell-1--Streamline-Ultimate" height="24" width="24"><desc>Alarm Bell 1 Streamline Icon: https://streamlinehq.com</desc><path fill="#ffffff" d="M4 11.3738c0 -2.12175 0.84285 -4.15658 2.34315 -5.65687C7.84344 4.21663 9.87827 3.37378 12 3.37378c2.1217 0 4.1566 0.84285 5.6569 2.34315C19.1571 7.21722 20 9.25205 20 11.3738v6.5c0 0.3978 0.158 0.7793 0.4393 1.0606s0.6629 0.4394 1.0607 0.4394h-19c0.39782 0 0.77936 -0.1581 1.06066 -0.4394 0.2813 -0.2813 0.43934 -0.6628 0.43934 -1.0606v-6.5Z" stroke-width="1"></path><path fill="#ffffff" d="M12 3.37378c-2.12173 0 -4.15656 0.84285 -5.65685 2.34315C4.84285 7.21722 4 9.25205 4 11.3738v6.5c0 0.3978 -0.15804 0.7793 -0.43934 1.0606s-0.66284 0.4394 -1.06066 0.4394H12V3.37378Z" stroke-width="1"></path><path stroke="#ffffff" stroke-linecap="round" stroke-linejoin="round" d="M4 11.3738c0 -2.12175 0.84285 -4.15658 2.34315 -5.65687C7.84344 4.21663 9.87827 3.37378 12 3.37378c2.1217 0 4.1566 0.84285 5.6569 2.34315C19.1571 7.21722 20 9.25205 20 11.3738v6.5c0 0.3978 0.158 0.7793 0.4393 1.0606s0.6629 0.4394 1.0607 0.4394h-19c0.39782 0 0.77936 -0.1581 1.06066 -0.4394 0.2813 -0.2813 0.43934 -0.6628 0.43934 -1.0606v-6.5Z" stroke-width="1"></path><path stroke="#ffffff" stroke-linecap="round" stroke-linejoin="round" d="M12 0.623779V3.37378" stroke-width="1"></path><path fill="#ffffff" d="M14.45 21.3738c-0.1148 0.5651 -0.4214 1.0732 -0.8679 1.4382 -0.4465 0.3649 -1.0054 0.5643 -1.5821 0.5643s-1.1356 -0.1994 -1.5821 -0.5643c-0.44653 -0.365 -0.75314 -0.8731 -0.8679 -1.4382" stroke-width="1"></path><path stroke="#ffffff" stroke-linecap="round" stroke-linejoin="round" d="M14.45 21.3738c-0.1148 0.5651 -0.4214 1.0732 -0.8679 1.4382 -0.4465 0.3649 -1.0054 0.5643 -1.5821 0.5643s-1.1356 -0.1994 -1.5821 -0.5643c-0.44653 -0.365 -0.75314 -0.8731 -0.8679 -1.4382" stroke-width="1"></path><path stroke="#ffffff" stroke-linecap="round" stroke-linejoin="round" d="M14.5 6.84277c0.7507 0.37247 1.3825 0.94717 1.8242 1.65937S17 10.0357 17 10.8738" stroke-width="1"></path></svg>
