<svg xmlns="http://www.w3.org/2000/svg" fill="none" viewBox="0 0 24 24" id="Layout-Dashboard--Streamline-Ultimate" height="24" width="24"><desc>Layout Dashboard Streamline Icon: https://streamlinehq.com</desc><path fill="#ff808c" d="M9.5 16.5h-8c-0.552285 0 -1 0.4477 -1 1v5c0 0.5523 0.447715 1 1 1h8c0.5523 0 1 -0.4477 1 -1v-5c0 -0.5523 -0.4477 -1 -1 -1Z" stroke-width="1"></path><path fill="#ffbfc5" d="M5.5 16.5h-4c-0.26522 0 -0.51957 0.1054 -0.707107 0.2929C0.605357 16.9804 0.5 17.2348 0.5 17.5v5c0 0.2652 0.105357 0.5196 0.292893 0.7071 0.187537 0.1875 0.441887 0.2929 0.707107 0.2929h4v-7Z" stroke-width="1"></path><path fill="#78eb7b" d="M14.5 23.5h8c0.5523 0 1 -0.4477 1 -1v-11c0 -0.5523 -0.4477 -1 -1 -1l-8 0c-0.5523 0 -1 0.4477 -1 1l0 11c0 0.5523 0.4477 1 1 1Z" stroke-width="1"></path><path fill="#c9f7ca" d="M18.5 10.5h-4c-0.2652 0 -0.5196 0.1054 -0.7071 0.2929s-0.2929 0.4419 -0.2929 0.7071v11c0 0.2652 0.1054 0.5196 0.2929 0.7071s0.4419 0.2929 0.7071 0.2929h4v-13Z" stroke-width="1"></path><path fill="#ffef5e" d="m14.5 7.5 8 0c0.5523 0 1 -0.44772 1 -1v-5c0 -0.552285 -0.4477 -1 -1 -1l-8 0c-0.5523 0 -1 0.447715 -1 1v5c0 0.55228 0.4477 1 1 1Z" stroke-width="1"></path><path fill="#fff7ae" d="M18.5 0.5h-4c-0.2652 0 -0.5196 0.105357 -0.7071 0.292893C13.6054 0.98043 13.5 1.23478 13.5 1.5v5c0 0.26522 0.1054 0.51957 0.2929 0.70711 0.1875 0.18753 0.4419 0.29289 0.7071 0.29289h4v-7Z" stroke-width="1"></path><path fill="#78eb7b" d="M9.5 0.5h-8c-0.552285 0 -1 0.447715 -1 1v11c0 0.5523 0.447715 1 1 1h8c0.5523 0 1 -0.4477 1 -1v-11c0 -0.552285 -0.4477 -1 -1 -1Z" stroke-width="1"></path><path fill="#c9f7ca" d="M5.5 0.5h-4C1.23478 0.5 0.98043 0.605357 0.792893 0.792893 0.605357 0.98043 0.5 1.23478 0.5 1.5v11c0 0.2652 0.105357 0.5196 0.292893 0.7071 0.187537 0.1875 0.441887 0.2929 0.707107 0.2929h4V0.5Z" stroke-width="1"></path><path stroke="#191919" stroke-linecap="round" stroke-linejoin="round" d="M9.5 16.5h-8c-0.552285 0 -1 0.4477 -1 1v5c0 0.5523 0.447715 1 1 1h8c0.5523 0 1 -0.4477 1 -1v-5c0 -0.5523 -0.4477 -1 -1 -1Z" stroke-width="1"></path><path stroke="#191919" stroke-linecap="round" stroke-linejoin="round" d="M14.5 23.5h8c0.5523 0 1 -0.4477 1 -1v-11c0 -0.5523 -0.4477 -1 -1 -1l-8 0c-0.5523 0 -1 0.4477 -1 1l0 11c0 0.5523 0.4477 1 1 1Z" stroke-width="1"></path><path stroke="#191919" stroke-linecap="round" stroke-linejoin="round" d="m14.5 7.5 8 0c0.5523 0 1 -0.44772 1 -1v-5c0 -0.552285 -0.4477 -1 -1 -1l-8 0c-0.5523 0 -1 0.447715 -1 1v5c0 0.55228 0.4477 1 1 1Z" stroke-width="1"></path><path stroke="#191919" stroke-linecap="round" stroke-linejoin="round" d="M9.5 0.5h-8c-0.552285 0 -1 0.447715 -1 1v11c0 0.5523 0.447715 1 1 1h8c0.5523 0 1 -0.4477 1 -1v-11c0 -0.552285 -0.4477 -1 -1 -1Z" stroke-width="1"></path></svg>