<svg viewBox="0 0 24 24" fill="none" xmlns="http://www.w3.org/2000/svg" id="Fitness-Heart-Rate--Streamline-Ultimate" height="24" width="24"><desc>Fitness Heart Rate Streamline Icon: https://streamlinehq.com</desc><g id="fitness-heart-rate"><path id="Vector" d="M12 21.932 2.2 11.84a5.67 5.67 0 0 1 -1.088 -6.607A5.84 5.84 0 0 1 10.4 3.746L12 5.205l1.6 -1.459a5.839 5.839 0 0 1 9.287 1.487A5.67 5.67 0 0 1 21.8 11.84L12 21.932Z" fill="#ffbfc5" stroke-width="1"></path><path id="Vector_2" d="M16.325 11.068a0.5 0.5 0 0 0 -0.457 0.3l-1.422 3.2a0.5 0.5 0 0 1 -0.91 0.008l-2.66 -5.7a0.5 0.5 0 0 0 -0.869 -0.066l-1.359 2.036a0.5 0.5 0 0 1 -0.416 0.222H1.543c0.196 0.276 0.415 0.534 0.656 0.772L12 21.932l9.8 -10.092c0.24 -0.238 0.46 -0.496 0.655 -0.772h-6.13Z" fill="#ff808c" stroke-width="1"></path><path id="Vector_3" d="M12 21.932 2.2 11.84a5.67 5.67 0 0 1 -1.088 -6.607v0A5.84 5.84 0 0 1 10.4 3.746L12 5.205l1.6 -1.459a5.839 5.839 0 0 1 9.287 1.487v0A5.67 5.67 0 0 1 21.8 11.84L12 21.932Z" stroke="#191919" stroke-linecap="round" stroke-linejoin="round" stroke-width="1"></path><path id="Vector_4" d="M1.544 11.068h6.688a0.5 0.5 0 0 0 0.416 -0.222l1.359 -2.038a0.5 0.5 0 0 1 0.869 0.066l2.66 5.7a0.5 0.5 0 0 0 0.91 -0.008l1.422 -3.2a0.5 0.5 0 0 1 0.457 -0.3h6.131" stroke="#191919" stroke-linecap="round" stroke-linejoin="round" stroke-width="1"></path></g></svg>