<svg xmlns="http://www.w3.org/2000/svg" width="512" height="512" viewBox="0 0 512 512" version="1.1"><path d="M 186.247 30.109 C 174.277 32.104, 163.883 37.181, 156.840 44.473 L 152.500 48.967 140 48.987 C 126.270 49.009, 122.173 50.331, 119.819 55.498 L 118.679 58 85.999 58 L 53.319 58 47.222 61.047 C 40.658 64.327, 36.336 68.579, 32.756 75.278 C 30.502 79.497, 30.500 79.544, 30.218 135.769 C 29.969 185.555, 30.113 192.106, 31.468 192.626 C 33.715 193.488, 33.730 214.506, 31.484 215.368 C 30.140 215.884, 29.999 229.738, 30.234 338.225 L 30.500 460.500 33.172 465.563 C 36.366 471.615, 42.539 477.432, 48.878 480.363 L 53.500 482.500 197.500 482.500 L 341.500 482.500 347 479.887 C 353.196 476.944, 359.286 471.274, 362.057 465.871 C 365.073 459.987, 365.984 450.885, 365.992 426.550 L 366 403.600 417.160 303.050 C 445.299 247.747, 470.741 197.857, 473.699 192.181 C 480.650 178.844, 482.467 171.977, 481.059 164.364 C 478.333 149.617, 466.426 139.648, 451.464 139.585 C 442.742 139.548, 434.817 143.049, 429.424 149.319 C 425.133 154.308, 391.728 219.349, 392.199 221.797 C 392.403 222.856, 393.467 223.500, 395.014 223.500 C 397.207 223.500, 398.382 221.777, 405 208.856 L 412.500 194.212 433.250 204.611 C 444.663 210.330, 454 215.243, 454 215.529 C 454 215.991, 362.081 396.992, 361.413 397.845 C 361.089 398.259, 320 377.037, 320 376.456 C 320 376.235, 334.899 346.784, 353.109 311.011 C 380.451 257.299, 386.004 245.710, 384.987 244.484 C 382.090 240.993, 380.346 242.786, 373.369 256.434 L 366.500 269.868 365.986 176.184 C 365.507 88.879, 365.348 82.180, 363.661 77.805 C 361.003 70.917, 354.623 64.210, 347.540 60.859 L 341.500 58.002 309.307 58.001 L 277.113 58 275.350 55.016 C 272.465 50.132, 268.695 49, 255.318 49 L 243.437 49 238.069 43.880 C 226.021 32.388, 205.421 26.914, 186.247 30.109 M 406.660 30.750 C 406.409 31.163, 405.662 33.514, 405.002 35.976 C 403.644 41.039, 398.673 46.371, 394.310 47.444 C 390.930 48.276, 387 50.699, 387 51.952 C 387 53.575, 390.095 56, 392.167 56 C 396.110 56, 400.208 60.168, 403.703 67.732 C 406.531 73.854, 407.479 75.070, 409.224 74.812 C 410.688 74.595, 411.660 73.352, 412.415 70.728 C 414.023 65.140, 418.009 60.807, 424.939 57.113 C 432.804 52.921, 432.903 50.658, 425.341 47.847 C 419.669 45.737, 416.222 42.016, 413.020 34.546 C 411.646 31.342, 410.488 30, 409.095 30 C 408.007 30, 406.912 30.337, 406.660 30.750 M 405.166 47.818 L 400.832 52.215 403.262 54.857 C 404.599 56.311, 406.330 58.459, 407.108 59.631 C 408.505 61.737, 408.582 61.707, 413.511 57.131 L 418.500 52.500 414 47.961 L 409.500 43.422 405.166 47.818 M 450.359 50.207 C 449.832 50.918, 448.835 53.742, 448.143 56.482 C 445.966 65.094, 439.539 71.579, 429.949 74.839 C 421.457 77.725, 420.747 82.048, 428.557 83.316 C 436.486 84.602, 443.309 91.746, 447.197 102.832 C 449.438 109.225, 450.622 111, 452.644 111 C 454.150 111, 455.126 109.001, 456.977 102.125 C 458.547 96.297, 465.429 89.552, 474.808 84.649 C 480.824 81.505, 482.062 80.448, 481.808 78.670 C 481.567 76.979, 480.307 76.193, 476 75.047 C 469.072 73.203, 462.546 66.991, 458.604 58.487 C 454.536 49.712, 454.419 49.526, 452.801 49.207 C 451.984 49.046, 450.885 49.496, 450.359 50.207 M 451.647 65.716 C 450.106 68.697, 442.858 75.861, 439.462 77.761 C 437.678 78.760, 437.872 79.136, 442.092 82.850 C 444.598 85.055, 447.739 88.916, 449.072 91.430 C 450.406 93.943, 451.722 95.983, 451.998 95.961 C 452.274 95.940, 453.400 94.501, 454.500 92.762 C 456.381 89.790, 465.151 81.983, 468.140 80.620 C 469.277 80.102, 469.272 79.897, 468.108 79.369 C 465.307 78.100, 458.591 71.385, 455.902 67.164 L 453.140 62.829 451.647 65.716 M 407.353 83.765 C 406.723 84.169, 405.699 86.392, 405.077 88.705 C 403.207 95.664, 398.937 99.472, 389.727 102.393 C 385.742 103.656, 386.977 109, 391.254 109 C 396.423 109, 403.471 117.062, 405.364 125.140 C 406.011 127.900, 408.088 129.287, 410.301 128.438 C 411.016 128.164, 412.157 125.861, 412.836 123.322 C 414.245 118.054, 418.633 113.488, 425.859 109.769 C 429.374 107.961, 430.500 106.815, 430.500 105.045 C 430.500 103.126, 429.669 102.467, 425.834 101.349 C 420.551 99.809, 416.767 95.957, 413.700 89 C 411.910 84.940, 410.407 83.031, 409 83.031 C 408.725 83.031, 407.984 83.361, 407.353 83.765 M 284.567 91.714 C 276.845 92.081, 276.548 92.189, 273.431 95.795 L 270.229 99.500 199.103 99.770 C 121.609 100.063, 124.166 100.235, 120.394 94.479 L 118.770 92 94.308 92 L 69.846 92 66.923 94.923 L 64 97.846 64 271.201 C 64 426.672, 64.161 444.785, 65.561 446.783 C 69.278 452.090, 68.086 452, 134.482 452 C 188.298 452, 196.135 452.189, 196.638 453.500 C 197.093 454.684, 199.167 455, 206.485 455 C 213.505 455, 216.057 454.636, 217 453.500 C 218.078 452.202, 225.295 452, 270.718 452 C 318.383 452, 323.456 451.844, 326.080 450.294 C 330.267 447.821, 332 443.354, 332 435.039 L 332 427.880 324.558 433.025 C 320.465 435.854, 316.303 438.014, 315.308 437.823 C 313.636 437.504, 313.435 435.252, 312.637 407.863 L 311.774 378.249 321.887 358.176 L 332 338.102 331.985 219.301 C 331.974 127.004, 331.695 99.964, 330.735 98.096 C 330.056 96.774, 328.231 94.749, 326.680 93.596 C 324.112 91.687, 322.466 91.493, 308.180 91.419 C 299.556 91.374, 288.930 91.507, 284.567 91.714 M 405 101 L 400.500 105.500 403.571 108.500 C 405.261 110.150, 407.081 112.292, 407.617 113.260 C 408.485 114.829, 409.117 114.531, 413.428 110.516 L 418.265 106.012 413.962 101.256 C 411.595 98.640, 409.623 96.500, 409.580 96.500 C 409.536 96.500, 407.475 98.525, 405 101 M 195.422 117.342 C 195.108 118.161, 194.997 120.107, 195.175 121.666 C 195.411 123.725, 196.047 124.500, 197.500 124.500 C 199.166 124.500, 199.500 123.833, 199.500 120.514 C 199.500 117.510, 199.068 116.444, 197.747 116.190 C 196.783 116.004, 195.737 116.522, 195.422 117.342 M 161.342 131.551 C 160.672 133.298, 164.582 138, 166.706 138 C 169.183 138, 169.317 134.967, 166.952 132.449 C 164.317 129.644, 162.204 129.306, 161.342 131.551 M 228.128 132.564 C 226.074 135.176, 226.232 138, 228.433 138 C 230.448 138, 234.306 133.239, 233.658 131.551 C 232.771 129.239, 230.403 129.673, 228.128 132.564 M 186.300 132.802 C 176.311 136.369, 169.242 142.882, 164.734 152.670 C 161.351 160.018, 161.540 173.453, 165.135 181.120 C 168.703 188.728, 173.732 194.034, 181.232 198.101 C 187.172 201.322, 188.024 201.500, 197.500 201.500 C 206.497 201.500, 208.052 201.218, 213 198.684 C 220.209 194.993, 226.091 189.149, 229.634 182.155 C 232.220 177.052, 232.500 175.525, 232.500 166.500 C 232.500 157.024, 232.322 156.172, 229.101 150.232 C 222.686 138.401, 212.380 131.913, 199.020 131.294 C 193.515 131.039, 190.107 131.443, 186.300 132.802 M 188.479 138.740 C 178.580 142.284, 172.230 148.962, 169.355 158.850 C 164.092 176.955, 178.486 196, 197.433 196 C 205.572 196, 211.866 193.294, 217.993 187.161 C 224.273 180.874, 227 174.772, 227 167.003 C 227 146.887, 206.905 132.144, 188.479 138.740 M 441.158 148.567 C 438.065 150.133, 434.651 152.880, 433.047 155.094 C 430.200 159.024, 427.432 164.807, 428.115 165.396 C 428.327 165.578, 437.658 170.353, 448.852 176.008 C 465.103 184.217, 469.384 186.008, 470.097 184.894 C 470.589 184.127, 471.937 181.025, 473.093 178 C 480.747 157.979, 460.123 138.971, 441.158 148.567 M 147.359 165.506 C 146.441 167.900, 148.292 169.189, 152.123 168.823 C 154.726 168.574, 155.500 168.041, 155.500 166.500 C 155.500 164.910, 154.730 164.436, 151.742 164.189 C 148.994 163.962, 147.816 164.316, 147.359 165.506 M 239.380 165.452 C 238.485 167.784, 239.876 169, 243.437 169 C 247.316 169, 249.594 166.994, 247.776 165.176 C 246.091 163.491, 240.056 163.690, 239.380 165.452 M 419.983 179.422 C 417.523 184.054, 415.733 188.032, 416.005 188.264 C 417.167 189.250, 455.883 209, 456.653 208.999 C 457.417 208.998, 466 194.029, 466 192.697 C 466 192.200, 425.782 171, 424.840 171 C 424.629 171, 422.443 174.790, 419.983 179.422 M 163.388 197.342 C 160.602 199.739, 160.548 203, 163.294 203 C 165.418 203, 169.328 198.298, 168.658 196.551 C 167.838 194.414, 166.572 194.604, 163.388 197.342 M 226.976 196.529 C 225.923 197.798, 226.102 198.480, 228.028 200.529 C 230.781 203.460, 234 203.808, 234 201.174 C 234 199.527, 230.193 195, 228.808 195 C 228.498 195, 227.674 195.688, 226.976 196.529 M 195.422 209.342 C 195.108 210.161, 194.997 212.107, 195.175 213.666 C 195.411 215.725, 196.047 216.500, 197.500 216.500 C 199.166 216.500, 199.500 215.833, 199.500 212.514 C 199.500 209.510, 199.068 208.444, 197.747 208.190 C 196.783 208.004, 195.737 208.522, 195.422 209.342 M 121.500 233.080 C 115.825 234.462, 108.828 239.532, 105.183 244.902 C 90.345 266.763, 112.352 294.914, 137.563 286.324 C 140.794 285.223, 144.236 282.895, 147.589 279.542 C 154.208 272.923, 156.521 266.486, 155.647 257.124 C 155.038 250.604, 155.063 250.520, 158.611 246.886 C 164.704 240.646, 160.867 235.829, 154.624 241.880 L 151.459 244.948 148.756 241.560 C 143.437 234.894, 130.534 230.880, 121.500 233.080 M 117.907 241.327 C 115.483 242.606, 112.157 245.560, 110.516 247.890 C 107.990 251.477, 107.486 253.228, 107.228 259.313 C 106.972 265.343, 107.292 267.128, 109.212 270.405 C 114.323 279.127, 124.709 283.577, 133.998 281.025 C 139.810 279.428, 147.336 272.084, 148.882 266.500 C 150.167 261.857, 150.343 257, 149.227 257 C 148.801 257, 144.874 260.600, 140.500 265 C 136.126 269.400, 131.852 273, 131.004 273 C 128.865 273, 111 254.870, 111 252.700 C 111 251.730, 111.714 250.663, 112.588 250.328 C 113.682 249.908, 116.718 252.248, 122.359 257.860 L 130.543 266.001 138.841 257.660 L 147.139 249.319 144.444 246.115 C 138.296 238.809, 126.655 236.709, 117.907 241.327 M 178.365 259.492 C 178.046 260.321, 178.046 261.679, 178.365 262.508 C 178.873 263.832, 186.044 263.985, 237.222 263.758 L 295.500 263.500 295.500 261 L 295.500 258.500 237.222 258.242 C 186.044 258.015, 178.873 258.168, 178.365 259.492 M 121.500 301.080 C 115.825 302.462, 108.828 307.532, 105.183 312.902 C 90.345 334.763, 112.352 362.914, 137.563 354.324 C 140.794 353.223, 144.236 350.895, 147.589 347.542 C 154.208 340.923, 156.521 334.486, 155.647 325.124 C 155.038 318.604, 155.063 318.520, 158.611 314.886 C 164.704 308.646, 160.867 303.829, 154.624 309.880 L 151.459 312.948 148.756 309.560 C 143.437 302.894, 130.534 298.880, 121.500 301.080 M 117.907 309.327 C 115.483 310.606, 112.157 313.560, 110.516 315.890 C 107.990 319.477, 107.486 321.228, 107.228 327.313 C 106.972 333.343, 107.292 335.128, 109.212 338.405 C 114.323 347.127, 124.709 351.577, 133.998 349.025 C 139.810 347.428, 147.336 340.084, 148.882 334.500 C 150.167 329.857, 150.343 325, 149.227 325 C 148.801 325, 144.874 328.600, 140.500 333 C 136.126 337.400, 131.852 341, 131.004 341 C 128.865 341, 111 322.870, 111 320.700 C 111 319.730, 111.714 318.663, 112.588 318.328 C 113.682 317.908, 116.718 320.248, 122.359 325.860 L 130.543 334.001 138.841 325.660 L 147.139 317.319 144.444 314.115 C 138.296 306.809, 126.655 304.709, 117.907 309.327 M 178.365 327.492 C 178.046 328.321, 178.046 329.679, 178.365 330.508 C 178.873 331.832, 186.044 331.985, 237.222 331.758 L 295.500 331.500 295.500 329 L 295.500 326.500 237.222 326.242 C 186.044 326.015, 178.873 326.168, 178.365 327.492 M 121.500 369.080 C 115.825 370.462, 108.828 375.532, 105.183 380.902 C 90.345 402.763, 112.352 430.914, 137.563 422.324 C 140.794 421.223, 144.236 418.895, 147.589 415.542 C 154.208 408.923, 156.521 402.486, 155.647 393.124 C 155.038 386.604, 155.063 386.520, 158.611 382.886 C 164.704 376.646, 160.867 371.829, 154.624 377.880 L 151.459 380.948 148.756 377.560 C 143.437 370.894, 130.534 366.880, 121.500 369.080 M 117.907 377.327 C 115.483 378.606, 112.157 381.560, 110.516 383.890 C 107.990 387.477, 107.486 389.228, 107.228 395.313 C 106.972 401.343, 107.292 403.128, 109.212 406.405 C 114.323 415.127, 124.709 419.577, 133.998 417.025 C 139.810 415.428, 147.336 408.084, 148.882 402.500 C 150.167 397.857, 150.343 393, 149.227 393 C 148.801 393, 144.874 396.600, 140.500 401 C 136.126 405.400, 131.852 409, 131.004 409 C 128.865 409, 111 390.870, 111 388.700 C 111 387.730, 111.714 386.663, 112.588 386.328 C 113.682 385.908, 116.718 388.248, 122.359 393.860 L 130.543 402.001 138.841 393.660 L 147.139 385.319 144.444 382.115 C 138.296 374.809, 126.655 372.709, 117.907 377.327 M 178.365 395.492 C 178.046 396.321, 178.046 397.679, 178.365 398.508 C 178.873 399.832, 186.044 399.985, 237.222 399.758 L 295.500 399.500 295.500 397 L 295.500 394.500 237.222 394.242 C 186.044 394.015, 178.873 394.168, 178.365 395.492" stroke="none" fill="#5d564a" fill-rule="evenodd"/><path d="M 405.166 47.818 L 400.832 52.215 403.262 54.857 C 404.599 56.311, 406.330 58.459, 407.108 59.631 C 408.505 61.737, 408.582 61.707, 413.511 57.131 L 418.500 52.500 414 47.961 L 409.500 43.422 405.166 47.818 M 451.647 65.716 C 450.106 68.697, 442.858 75.861, 439.462 77.761 C 437.678 78.760, 437.872 79.136, 442.092 82.850 C 444.598 85.055, 447.739 88.916, 449.072 91.430 C 450.406 93.943, 451.722 95.983, 451.998 95.961 C 452.274 95.940, 453.400 94.501, 454.500 92.762 C 456.381 89.790, 465.151 81.983, 468.140 80.620 C 469.277 80.102, 469.272 79.897, 468.108 79.369 C 465.307 78.100, 458.591 71.385, 455.902 67.164 L 453.140 62.829 451.647 65.716 M 284.567 91.714 C 276.845 92.081, 276.548 92.189, 273.431 95.795 L 270.229 99.500 199.103 99.770 C 121.609 100.063, 124.166 100.235, 120.394 94.479 L 118.770 92 94.308 92 L 69.846 92 66.923 94.923 L 64 97.846 64 271.201 C 64 426.672, 64.161 444.785, 65.561 446.783 C 69.278 452.090, 68.086 452, 134.482 452 C 188.298 452, 196.135 452.189, 196.638 453.500 C 197.093 454.684, 199.167 455, 206.485 455 C 213.505 455, 216.057 454.636, 217 453.500 C 218.078 452.202, 225.295 452, 270.718 452 C 318.383 452, 323.456 451.844, 326.080 450.294 C 330.267 447.821, 332 443.354, 332 435.039 L 332 427.880 324.558 433.025 C 320.465 435.854, 316.303 438.014, 315.308 437.823 C 313.636 437.504, 313.435 435.252, 312.637 407.863 L 311.774 378.249 321.887 358.176 L 332 338.102 331.985 219.301 C 331.974 127.004, 331.695 99.964, 330.735 98.096 C 330.056 96.774, 328.231 94.749, 326.680 93.596 C 324.112 91.687, 322.466 91.493, 308.180 91.419 C 299.556 91.374, 288.930 91.507, 284.567 91.714 M 405 101 L 400.500 105.500 403.571 108.500 C 405.261 110.150, 407.081 112.292, 407.617 113.260 C 408.485 114.829, 409.117 114.531, 413.428 110.516 L 418.265 106.012 413.962 101.256 C 411.595 98.640, 409.623 96.500, 409.580 96.500 C 409.536 96.500, 407.475 98.525, 405 101 M 195.422 117.342 C 195.108 118.161, 194.997 120.107, 195.175 121.666 C 195.411 123.725, 196.047 124.500, 197.500 124.500 C 199.166 124.500, 199.500 123.833, 199.500 120.514 C 199.500 117.510, 199.068 116.444, 197.747 116.190 C 196.783 116.004, 195.737 116.522, 195.422 117.342 M 161.342 131.551 C 160.672 133.298, 164.582 138, 166.706 138 C 169.183 138, 169.317 134.967, 166.952 132.449 C 164.317 129.644, 162.204 129.306, 161.342 131.551 M 228.128 132.564 C 226.074 135.176, 226.232 138, 228.433 138 C 230.448 138, 234.306 133.239, 233.658 131.551 C 232.771 129.239, 230.403 129.673, 228.128 132.564 M 186.300 132.802 C 176.311 136.369, 169.242 142.882, 164.734 152.670 C 161.351 160.018, 161.540 173.453, 165.135 181.120 C 168.703 188.728, 173.732 194.034, 181.232 198.101 C 187.172 201.322, 188.024 201.500, 197.500 201.500 C 206.497 201.500, 208.052 201.218, 213 198.684 C 220.209 194.993, 226.091 189.149, 229.634 182.155 C 232.220 177.052, 232.500 175.525, 232.500 166.500 C 232.500 157.024, 232.322 156.172, 229.101 150.232 C 222.686 138.401, 212.380 131.913, 199.020 131.294 C 193.515 131.039, 190.107 131.443, 186.300 132.802 M 188.479 138.740 C 178.580 142.284, 172.230 148.962, 169.355 158.850 C 164.092 176.955, 178.486 196, 197.433 196 C 205.572 196, 211.866 193.294, 217.993 187.161 C 224.273 180.874, 227 174.772, 227 167.003 C 227 146.887, 206.905 132.144, 188.479 138.740 M 441.158 148.567 C 438.065 150.133, 434.651 152.880, 433.047 155.094 C 430.200 159.024, 427.432 164.807, 428.115 165.396 C 428.327 165.578, 437.658 170.353, 448.852 176.008 C 465.103 184.217, 469.384 186.008, 470.097 184.894 C 470.589 184.127, 471.937 181.025, 473.093 178 C 480.747 157.979, 460.123 138.971, 441.158 148.567 M 147.359 165.506 C 146.441 167.900, 148.292 169.189, 152.123 168.823 C 154.726 168.574, 155.500 168.041, 155.500 166.500 C 155.500 164.910, 154.730 164.436, 151.742 164.189 C 148.994 163.962, 147.816 164.316, 147.359 165.506 M 239.380 165.452 C 238.485 167.784, 239.876 169, 243.437 169 C 247.316 169, 249.594 166.994, 247.776 165.176 C 246.091 163.491, 240.056 163.690, 239.380 165.452 M 419.983 179.422 C 417.523 184.054, 415.733 188.032, 416.005 188.264 C 417.167 189.250, 455.883 209, 456.653 208.999 C 457.417 208.998, 466 194.029, 466 192.697 C 466 192.200, 425.782 171, 424.840 171 C 424.629 171, 422.443 174.790, 419.983 179.422 M 404.956 208.848 C 399.483 219.604, 396.968 223.577, 395.500 223.790 C 394.126 223.989, 391.969 226.933, 388.607 233.196 C 384.440 240.959, 383.892 242.598, 384.916 244.238 C 385.962 245.912, 381.792 254.665, 353.060 311.109 C 334.877 346.828, 320 376.235, 320 376.456 C 320 377.037, 361.089 398.259, 361.413 397.845 C 362.081 396.992, 454 215.991, 454 215.529 C 454 215.243, 444.643 210.326, 433.206 204.603 L 412.411 194.197 404.956 208.848 M 163.388 197.342 C 160.602 199.739, 160.548 203, 163.294 203 C 165.418 203, 169.328 198.298, 168.658 196.551 C 167.838 194.414, 166.572 194.604, 163.388 197.342 M 226.976 196.529 C 225.923 197.798, 226.102 198.480, 228.028 200.529 C 230.781 203.460, 234 203.808, 234 201.174 C 234 199.527, 230.193 195, 228.808 195 C 228.498 195, 227.674 195.688, 226.976 196.529 M 195.422 209.342 C 195.108 210.161, 194.997 212.107, 195.175 213.666 C 195.411 215.725, 196.047 216.500, 197.500 216.500 C 199.166 216.500, 199.500 215.833, 199.500 212.514 C 199.500 209.510, 199.068 208.444, 197.747 208.190 C 196.783 208.004, 195.737 208.522, 195.422 209.342 M 121.500 233.080 C 115.825 234.462, 108.828 239.532, 105.183 244.902 C 90.345 266.763, 112.352 294.914, 137.563 286.324 C 140.794 285.223, 144.236 282.895, 147.589 279.542 C 154.208 272.923, 156.521 266.486, 155.647 257.124 C 155.038 250.604, 155.063 250.520, 158.611 246.886 C 164.704 240.646, 160.867 235.829, 154.624 241.880 L 151.459 244.948 148.756 241.560 C 143.437 234.894, 130.534 230.880, 121.500 233.080 M 117.907 241.327 C 115.483 242.606, 112.157 245.560, 110.516 247.890 C 107.990 251.477, 107.486 253.228, 107.228 259.313 C 106.972 265.343, 107.292 267.128, 109.212 270.405 C 114.323 279.127, 124.709 283.577, 133.998 281.025 C 139.810 279.428, 147.336 272.084, 148.882 266.500 C 150.167 261.857, 150.343 257, 149.227 257 C 148.801 257, 144.874 260.600, 140.500 265 C 136.126 269.400, 131.852 273, 131.004 273 C 128.865 273, 111 254.870, 111 252.700 C 111 251.730, 111.714 250.663, 112.588 250.328 C 113.682 249.908, 116.718 252.248, 122.359 257.860 L 130.543 266.001 138.841 257.660 L 147.139 249.319 144.444 246.115 C 138.296 238.809, 126.655 236.709, 117.907 241.327 M 178.365 259.492 C 178.046 260.321, 178.046 261.679, 178.365 262.508 C 178.873 263.832, 186.044 263.985, 237.222 263.758 L 295.500 263.500 295.500 261 L 295.500 258.500 237.222 258.242 C 186.044 258.015, 178.873 258.168, 178.365 259.492 M 121.500 301.080 C 115.825 302.462, 108.828 307.532, 105.183 312.902 C 90.345 334.763, 112.352 362.914, 137.563 354.324 C 140.794 353.223, 144.236 350.895, 147.589 347.542 C 154.208 340.923, 156.521 334.486, 155.647 325.124 C 155.038 318.604, 155.063 318.520, 158.611 314.886 C 164.704 308.646, 160.867 303.829, 154.624 309.880 L 151.459 312.948 148.756 309.560 C 143.437 302.894, 130.534 298.880, 121.500 301.080 M 117.907 309.327 C 115.483 310.606, 112.157 313.560, 110.516 315.890 C 107.990 319.477, 107.486 321.228, 107.228 327.313 C 106.972 333.343, 107.292 335.128, 109.212 338.405 C 114.323 347.127, 124.709 351.577, 133.998 349.025 C 139.810 347.428, 147.336 340.084, 148.882 334.500 C 150.167 329.857, 150.343 325, 149.227 325 C 148.801 325, 144.874 328.600, 140.500 333 C 136.126 337.400, 131.852 341, 131.004 341 C 128.865 341, 111 322.870, 111 320.700 C 111 319.730, 111.714 318.663, 112.588 318.328 C 113.682 317.908, 116.718 320.248, 122.359 325.860 L 130.543 334.001 138.841 325.660 L 147.139 317.319 144.444 314.115 C 138.296 306.809, 126.655 304.709, 117.907 309.327 M 178.365 327.492 C 178.046 328.321, 178.046 329.679, 178.365 330.508 C 178.873 331.832, 186.044 331.985, 237.222 331.758 L 295.500 331.500 295.500 329 L 295.500 326.500 237.222 326.242 C 186.044 326.015, 178.873 326.168, 178.365 327.492 M 121.500 369.080 C 115.825 370.462, 108.828 375.532, 105.183 380.902 C 90.345 402.763, 112.352 430.914, 137.563 422.324 C 140.794 421.223, 144.236 418.895, 147.589 415.542 C 154.208 408.923, 156.521 402.486, 155.647 393.124 C 155.038 386.604, 155.063 386.520, 158.611 382.886 C 164.704 376.646, 160.867 371.829, 154.624 377.880 L 151.459 380.948 148.756 377.560 C 143.437 370.894, 130.534 366.880, 121.500 369.080 M 117.907 377.327 C 115.483 378.606, 112.157 381.560, 110.516 383.890 C 107.990 387.477, 107.486 389.228, 107.228 395.313 C 106.972 401.343, 107.292 403.128, 109.212 406.405 C 114.323 415.127, 124.709 419.577, 133.998 417.025 C 139.810 415.428, 147.336 408.084, 148.882 402.500 C 150.167 397.857, 150.343 393, 149.227 393 C 148.801 393, 144.874 396.600, 140.500 401 C 136.126 405.400, 131.852 409, 131.004 409 C 128.865 409, 111 390.870, 111 388.700 C 111 387.730, 111.714 386.663, 112.588 386.328 C 113.682 385.908, 116.718 388.248, 122.359 393.860 L 130.543 402.001 138.841 393.660 L 147.139 385.319 144.444 382.115 C 138.296 374.809, 126.655 372.709, 117.907 377.327 M 178.365 395.492 C 178.046 396.321, 178.046 397.679, 178.365 398.508 C 178.873 399.832, 186.044 399.985, 237.222 399.758 L 295.500 399.500 295.500 397 L 295.500 394.500 237.222 394.242 C 186.044 394.015, 178.873 394.168, 178.365 395.492" stroke="none" fill="#e8ddc0" fill-rule="evenodd"/></svg>