<svg xmlns="http://www.w3.org/2000/svg" width="900" height="633" viewBox="0 0 900 633" version="1.1"><path d="M 390 80.640 C 377.471 84.984, 372.072 90.053, 363.366 105.647 C 358.901 113.645, 356.212 123.550, 354.449 138.500 C 353.931 142.894, 352.640 149.680, 352.170 150.482 C 351.854 151.023, 351.518 152.148, 351.423 152.982 C 351.329 153.817, 350.932 155.850, 350.541 157.500 C 350.150 159.150, 349.669 162.075, 349.473 164 C 349.276 165.925, 348.411 170.200, 347.551 173.500 C 345.411 181.703, 344.692 185.809, 344.588 190.417 C 344.539 192.591, 343.944 194.518, 343.250 194.750 C 342.563 194.979, 342 195.752, 342 196.467 C 342 197.613, 340.353 198.491, 336.293 199.508 C 335.630 199.674, 333.605 200.573, 331.793 201.504 C 328.937 202.973, 315.404 207.982, 314 208.089 C 313.725 208.110, 311.475 209.027, 309 210.125 C 306.525 211.224, 301.575 213.293, 298 214.724 C 294.425 216.154, 289.700 218.395, 287.500 219.703 C 285.300 221.011, 281.475 223.033, 279 224.195 C 273.884 226.599, 266.665 231.130, 266.167 232.250 C 265.983 232.662, 265.387 233, 264.841 233 C 263.497 233, 253.261 241.003, 249.301 245.150 C 245.839 248.775, 242.574 255.501, 243.527 257.044 C 243.852 257.570, 243.716 258, 243.226 258 C 242.226 258, 241.866 259.861, 241.879 264.969 C 241.886 267.433, 241.628 268.016, 240.988 266.981 C 240.296 265.861, 240.126 266.025, 240.252 267.693 C 240.342 268.886, 240.730 269.667, 241.115 269.429 C 241.500 269.191, 242.020 271.360, 242.271 274.248 C 242.884 281.287, 243.704 284.499, 246.076 289.150 C 248.541 293.980, 258.518 303.815, 263.668 306.490 C 265.776 307.585, 267.831 308.935, 268.235 309.490 C 268.639 310.046, 268.976 310.178, 268.985 309.785 C 268.998 309.141, 283.795 317.775, 290 322.048 C 291.375 322.995, 302.175 329.714, 314 336.980 C 325.825 344.246, 335.611 350.296, 335.746 350.424 C 336.023 350.688, 336.896 361.024, 337.526 371.500 C 338.009 379.552, 342.230 408.848, 344.542 420.195 C 346.180 428.235, 350.140 441.362, 352.479 446.500 C 353.230 448.150, 353.992 450.175, 354.172 451 C 354.623 453.063, 359.003 459.148, 361.469 461.138 C 362.586 462.039, 364.964 464.182, 366.753 465.900 C 372.589 471.504, 390.932 478.888, 403 480.493 C 406.025 480.895, 409.089 481.701, 409.809 482.284 C 411.289 483.481, 421.291 481.813, 428.972 479.088 C 446.261 472.955, 469.100 453.947, 490.371 427.988 C 500.007 416.229, 502.049 415.584, 516.500 419.743 C 520.350 420.850, 525.750 422.367, 528.500 423.112 C 531.250 423.857, 533.725 424.699, 534 424.983 C 534.275 425.268, 534.950 425.511, 535.500 425.524 C 538.152 425.586, 547.215 427.363, 553.500 429.053 C 564.813 432.093, 589.426 434.845, 597.042 433.921 C 609.203 432.446, 619.406 427.589, 626.553 419.875 C 632.314 413.656, 634.144 408.371, 634.174 397.863 C 634.214 384.034, 631.898 373.229, 625.952 359.500 C 624.999 357.300, 622.843 352.245, 621.161 348.266 C 617.761 340.225, 608.330 322.811, 603.816 316.239 C 597.395 306.892, 596.116 298.408, 600.363 293.327 C 603.951 289.034, 614.894 272.706, 621.694 261.500 C 631.135 245.941, 638.705 230.028, 639.533 224 C 639.722 222.625, 640.559 218.575, 641.393 215 C 642.227 211.425, 643.098 206.410, 643.330 203.856 C 643.561 201.302, 644.058 198.715, 644.434 198.106 C 644.810 197.498, 644.737 197, 644.272 197 C 643.806 197, 643.361 196.137, 643.281 195.082 C 643.015 191.551, 636.245 178.539, 632.831 175 C 619.875 161.565, 605.468 153.435, 588.549 150.010 C 582.664 148.819, 577.222 148.084, 576.456 148.378 C 575.691 148.672, 574.857 148.578, 574.605 148.170 C 573.626 146.585, 545.585 147.146, 534 148.982 C 523.203 150.693, 504.556 154.893, 500.827 156.455 C 499.658 156.944, 498.781 156.453, 497.920 154.828 C 493.768 146.989, 472.332 124.919, 456.539 112.223 C 452.668 109.110, 447.880 105.199, 445.900 103.532 C 443.920 101.864, 440.835 99.375, 439.044 98 C 437.252 96.625, 433.922 93.804, 431.643 91.731 C 424.835 85.538, 411.654 79.911, 400.500 78.437 C 398.850 78.219, 394.125 79.210, 390 80.640 M 390.068 101.652 C 383.009 105.030, 380.602 108.182, 375.670 120.500 C 372.731 127.841, 367.761 149.833, 366.427 161.395 C 363.361 187.982, 359.917 203.815, 356.519 206.945 C 353.085 210.108, 343.385 214.854, 334.103 217.913 C 325.720 220.675, 302.248 231.088, 299 233.485 C 298.175 234.094, 294.899 235.911, 291.720 237.523 C 283.568 241.656, 280.887 244.734, 280.737 250.129 C 280.571 256.079, 282.967 259.451, 288.453 260.987 C 292.596 262.147, 293.176 262.039, 299.167 258.996 C 306.086 255.481, 315.916 250.142, 317.500 249.038 C 318.050 248.655, 320.975 247.309, 324 246.047 C 327.025 244.785, 331.300 242.971, 333.500 242.018 C 341.167 238.693, 343.105 238, 344.729 238 C 347.739 238, 366.451 228.081, 370.634 224.268 C 375.112 220.186, 379.319 213.983, 380.309 210 C 382.937 199.431, 384.232 192.671, 385.960 180.500 C 390.527 148.326, 394.402 131.145, 398.929 123 C 399.387 122.175, 400.828 121.615, 402.131 121.756 C 409.277 122.528, 412.449 121.944, 415.147 119.359 C 420.914 113.834, 419.703 105.668, 412.489 101.441 C 406.755 98.080, 397.346 98.169, 390.068 101.652 M 544.500 164.962 C 531.863 167.140, 520.407 169.849, 516.372 171.611 C 512.151 173.456, 509.799 177.298, 510.121 181.822 C 510.469 186.706, 513.018 190.243, 517.304 191.793 C 520.309 192.880, 521.859 192.782, 528.155 191.111 C 532.195 190.039, 537.750 188.843, 540.500 188.453 C 543.250 188.063, 546.288 187.336, 547.252 186.836 C 548.877 185.993, 567.024 185.648, 576.729 186.276 C 579.450 186.452, 581.134 186.094, 581.448 185.275 C 581.717 184.574, 582.543 184, 583.283 184 C 585.390 184, 588.198 177.179, 587.466 173.843 C 585.332 164.131, 568.958 160.746, 544.500 164.962 M 267.321 256.653 C 263.965 257.373, 258 265.253, 258 268.968 C 258 272.811, 260.362 277.588, 262.945 278.970 C 264.003 279.537, 267.064 280, 269.747 280 C 273.781 280, 275.070 279.524, 277.191 277.250 C 280.779 273.403, 282 270.694, 282 266.582 C 282 259.785, 274.951 255.017, 267.321 256.653 M 363.164 405.577 C 358.531 408.863, 357.247 412.360, 358.147 419.244 C 359.242 427.623, 361.671 435.270, 364.047 437.820 C 366.571 440.529, 371.956 441.500, 376.374 440.042 C 379.174 439.117, 380.212 438.012, 381.538 434.540 C 382.450 432.151, 382.909 429.288, 382.556 428.178 C 381.540 424.976, 380.952 421.873, 380.337 416.464 C 379.518 409.263, 375.945 405.343, 369.385 404.450 C 366.686 404.082, 364.787 404.426, 363.164 405.577" stroke="none" fill="#ebe120" fill-rule="evenodd"/></svg>