<svg xmlns="http://www.w3.org/2000/svg" fill="none" viewBox="0 0 24 24" id="Check--Streamline-Ultimate" height="24" width="24"><desc>Check Streamline Icon: https://streamlinehq.com</desc><path fill="#78eb7b" d="M0.854 15.646a1.207 1.207 0 0 0 0 1.707l5.792 5.793a1.21 1.21 0 0 0 1.708 0L23.146 8.353a1.207 1.207 0 0 0 0 -1.707l-2.292 -2.293a1.207 1.207 0 0 0 -1.708 0L7.5 16l-2.646 -2.647a1.208 1.208 0 0 0 -1.708 0L0.854 15.646Z" stroke-width="1"></path><path fill="#c9f7ca" d="M7.5 19.5 21.75 5.25l-0.9 -0.9a1.208 1.208 0 0 0 -1.708 0L7.5 16l-2.646 -2.647a1.207 1.207 0 0 0 -1.708 0l-0.9 0.9L7.5 19.5Z" stroke-width="1"></path><path stroke="#191919" stroke-linecap="round" stroke-linejoin="round" d="M0.854 15.646a1.207 1.207 0 0 0 0 1.707l5.792 5.793a1.21 1.21 0 0 0 1.708 0L23.146 8.353a1.207 1.207 0 0 0 0 -1.707l-2.292 -2.293a1.207 1.207 0 0 0 -1.708 0L7.5 16l-2.646 -2.647a1.208 1.208 0 0 0 -1.708 0L0.854 15.646Z" stroke-width="1"></path></svg>
