<svg xmlns="http://www.w3.org/2000/svg" fill="none" viewBox="0 0 24 24" id="Single-Neutral-Actions-Text--Streamline-Ultimate" height="24" width="24"><desc>Single Neutral Actions Text Streamline Icon: https://streamlinehq.com</desc><path fill="#44a8bf" d="m7.5 23.5 0.5 -6h2.5V14c0 -1.3261 -0.52678 -2.5979 -1.46447 -3.5355C8.09785 9.52678 6.82608 9 5.5 9c-1.32608 0 -2.59785 0.52678 -3.53553 1.4645C1.02678 11.4021 0.5 12.6739 0.5 14v3.5H3l0.5 6h4Z" stroke-width="1"></path><path fill="#44a8bf" d="M5.5 7.5C7.433 7.5 9 5.933 9 4S7.433 0.5 5.5 0.5 2 2.067 2 4s1.567 3.5 3.5 3.5Z" stroke-width="1"></path><path fill="#ffffff" d="M10.5 14v2c0 -1.3261 -0.52678 -2.5979 -1.46447 -3.5355C8.09785 11.5268 6.82608 11 5.5 11c-1.32608 0 -2.59785 0.5268 -3.53553 1.4645C1.02678 13.4021 0.5 14.6739 0.5 16v-2c0 -1.3261 0.52678 -2.5979 1.46447 -3.5355C2.90215 9.52678 4.17392 9 5.5 9c1.32608 0 2.59785 0.52678 3.53553 1.4645C9.97322 11.4021 10.5 12.6739 10.5 14Z" stroke-width="1"></path><path fill="#ffffff" d="M9 4c0.0014 0.33904 -0.04919 0.67629 -0.15 1 -0.21407 -0.72238 -0.65591 -1.3562 -1.25962 -1.80696 -0.60371 -0.45076 -1.33696 -0.6943 -2.09038 -0.6943 -0.75343 0 -1.48667 0.24354 -2.09038 0.6943C2.8059 3.6438 2.36407 4.27762 2.15 5c-0.10082 -0.32371 -0.1514 -0.66096 -0.15 -1 0 -0.92826 0.36875 -1.8185 1.02512 -2.47487C3.6815 0.868749 4.57174 0.5 5.5 0.5c0.92826 0 1.81849 0.368749 2.47487 1.02513C8.63125 2.1815 9 3.07174 9 4Z" stroke-width="1"></path><path stroke="#191919" stroke-linecap="round" stroke-linejoin="round" d="M5.5 7.5C7.433 7.5 9 5.933 9 4S7.433 0.5 5.5 0.5 2 2.067 2 4s1.567 3.5 3.5 3.5Z" stroke-width="1"></path><path stroke="#191919" stroke-linecap="round" stroke-linejoin="round" d="M9 10.43c-0.70314 -0.68919 -1.59411 -1.15547 -2.56118 -1.34034 -0.96708 -0.18487 -1.96721 -0.0801 -2.87498 0.30116 -0.90777 0.38127 -1.68278 1.02208 -2.22782 1.84198C0.790969 12.0528 0.500141 13.0154 0.5 14v3.5H3l0.5 6h4l0.5 -6h1" stroke-width="1"></path><path fill="#44a8bf" d="M22.5 11.5h-10c-0.5523 0 -1 0.4477 -1 1v10c0 0.5523 0.4477 1 1 1h10c0.5523 0 1 -0.4477 1 -1v-10c0 -0.5523 -0.4477 -1 -1 -1Z" stroke-width="1"></path><path fill="#ffffff" d="M22.5 11.5h-10c-0.2652 0 -0.5196 0.1054 -0.7071 0.2929s-0.2929 0.4419 -0.2929 0.7071v10c0.0012 0.1429 0.0335 0.2838 0.0946 0.413 0.0612 0.1291 0.1497 0.2435 0.2594 0.335l11.394 -11.394c-0.0915 -0.1097 -0.2059 -0.1982 -0.335 -0.2594 -0.1292 -0.0611 -0.2701 -0.0934 -0.413 -0.0946Z" stroke-width="1"></path><path stroke="#191919" stroke-linecap="round" stroke-linejoin="round" d="M22.5 11.5h-10c-0.5523 0 -1 0.4477 -1 1v10c0 0.5523 0.4477 1 1 1h10c0.5523 0 1 -0.4477 1 -1v-10c0 -0.5523 -0.4477 -1 -1 -1Z" stroke-width="1"></path><path stroke="#191919" stroke-linecap="round" stroke-linejoin="round" d="M14.5 14.5h6" stroke-width="1"></path><path stroke="#191919" stroke-linecap="round" stroke-linejoin="round" d="M14.5 17.5h6" stroke-width="1"></path><path stroke="#191919" stroke-linecap="round" stroke-linejoin="round" d="M14.5 20.5h2.25" stroke-width="1"></path></svg>
