<svg xmlns="http://www.w3.org/2000/svg" fill="none" viewBox="0 0 24 24" id="Composition-Window-Human--Streamline-Ultimate" height="24" width="24"><desc>Composition Window Human Streamline Icon: https://streamlinehq.com</desc><path fill="#66e1ff" d="M19.5 4.5h-15a4 4 0 0 0 -4 4v7a4 4 0 0 0 4 4h15a4 4 0 0 0 4 -4v-7a4 4 0 0 0 -4 -4Z" stroke-width="1"></path><path fill="#c2f3ff" d="M4.5 4.5a4 4 0 0 0 -4 4v7a3.99 3.99 0 0 0 3.749 3.975L19.224 4.5H4.5Z" stroke-width="1"></path><path stroke="#191919" stroke-linecap="round" stroke-linejoin="round" d="M19.5 4.5h-15a4 4 0 0 0 -4 4v7a4 4 0 0 0 4 4h15a4 4 0 0 0 4 -4v-7a4 4 0 0 0 -4 -4Z" stroke-width="1"></path><path fill="#ffffff" d="M5.5 19.5a7.1 7.1 0 0 1 0.565 -2.7c0.4 -0.8 2.063 -1.35 4.153 -2.124 0.565 -0.209 0.472 -1.684 0.222 -1.96a4.167 4.167 0 0 1 -1.085 -3.231A2.725 2.725 0 0 1 12 6.5a2.726 2.726 0 0 1 2.645 2.985 4.167 4.167 0 0 1 -1.085 3.232c-0.25 0.276 -0.343 1.751 0.222 1.96 2.09 0.774 3.754 1.327 4.153 2.124a7.1 7.1 0 0 1 0.565 2.7l-13 -0.001Z" stroke-width="1"></path><path stroke="#191919" stroke-linecap="round" stroke-linejoin="round" d="M5.5 19.5a7.1 7.1 0 0 1 0.565 -2.7c0.4 -0.8 2.063 -1.35 4.153 -2.124 0.565 -0.209 0.472 -1.684 0.222 -1.96a4.167 4.167 0 0 1 -1.085 -3.231A2.725 2.725 0 0 1 12 6.5a2.726 2.726 0 0 1 2.645 2.985 4.167 4.167 0 0 1 -1.085 3.232c-0.25 0.276 -0.343 1.751 0.222 1.96 2.09 0.774 3.754 1.327 4.153 2.124a7.1 7.1 0 0 1 0.565 2.7l-13 -0.001Z" stroke-width="1"></path></svg>
