<?xml version="1.0" standalone="no"?>
<!DOCTYPE svg PUBLIC "-//W3C//DTD SVG 20010904//EN"
 "http://www.w3.org/TR/2001/REC-SVG-20010904/DTD/svg10.dtd">
<svg version="1.0" xmlns="http://www.w3.org/2000/svg"
 width="512.000000pt" height="512.000000pt" viewBox="0 0 512.000000 512.000000"
 preserveAspectRatio="xMidYMid meet">

<g transform="translate(0.000000,512.000000) scale(0.100000,-0.100000)"
fill="#000000" stroke="none">
<path d="M2393 5105 c-96 -17 -163 -40 -256 -86 -43 -22 -457 -294 -920 -607
-779 -524 -849 -574 -937 -662 -152 -152 -244 -336 -270 -540 -7 -59 -10 -446
-8 -1245 3 -1156 3 -1160 25 -1236 53 -186 131 -320 262 -449 130 -129 275
-211 457 -257 65 -17 180 -18 1814 -18 1633 0 1749 1 1814 18 181 46 323 125
451 252 102 100 135 144 193 261 49 96 77 186 92 290 8 56 10 416 8 1244 -3
1160 -3 1165 -25 1241 -53 186 -142 338 -270 460 -60 56 -279 209 -918 640
-462 311 -865 579 -895 596 -172 96 -415 135 -617 98z m293 -210 c49 -9 123
-31 165 -48 88 -39 1729 -1141 1816 -1221 100 -91 177 -220 219 -366 17 -61
19 -131 22 -1185 2 -756 -1 -1146 -8 -1201 -45 -347 -309 -611 -654 -654 -110
-14 -3262 -14 -3372 0 -313 39 -563 260 -642 568 -16 62 -17 160 -17 1232 0
1072 1 1170 17 1232 37 142 118 281 221 374 45 42 480 338 1549 1057 225 152
299 188 431 212 98 18 149 18 253 0z"/>
<path d="M1957 2979 c-100 -24 -192 -103 -227 -195 -20 -55 -21 -68 -18 -668
l3 -611 23 -43 c35 -66 88 -119 150 -149 l57 -28 615 0 615 0 57 28 c62 30
115 83 150 149 l23 43 0 625 0 625 -24 49 c-33 66 -91 122 -160 155 l-56 26
-585 2 c-322 1 -602 -3 -623 -8z m1209 -243 l34 -34 0 -561 c0 -624 2 -609
-65 -637 -51 -21 -1099 -21 -1150 0 -66 28 -65 14 -65 631 0 502 2 560 17 585
9 16 26 33 37 39 13 6 229 10 589 10 l569 1 34 -34z"/>
</g>
</svg>
